<svg version="1" xmlns="http://www.w3.org/2000/svg" width="1440" height="1440" viewBox="0 0 1080 1080"><path d="M0 234c0 164.5.3 234 1.1 234 .5 0 .7.6.3 1.2-.6 1-.4 1 .8 0 1.4-1.1 1.8-1 2.8.5.7 1.1 1 1.2.7.3-.6-2.1 2.1-4.7 2.9-2.7.3.9 1.4 1.2 3 .9 1.3-.2 2.4 0 2.4.5 0 1.2 5.8 1.5 6.4.4.9-1.4 23.4-.1 29.6 1.7.8.2 3.1.6 5 .9 1.9.3 3.8 1 4.2 1.6.3.5 2 1 3.8.9 1.8 0 4.4.4 5.9 1 1.4.6 3.7 1.3 5.1 1.5 1.3.2 3 .9 3.6 1.4.7.6 1.6.4 2.4-.6 1.7-2 3.1-1.9 2.3.2-.4 1.1-.3 1.4.5.9.6-.4 2.2-.1 3.4.5 3.2 1.7 6.8 2 6.2.5-.3-.8.3-1.2 1.8-1.1 1.2.1 3-.8 3.9-1.9 1.5-1.8 1.9-1.9 3.5-.6 1.7 1.3 1.6 1.2-.1-.9-1.7-2.1-1.8-2.4-.2-1.8.9.4 1.7.2 1.7-.3s.6-.8 1.3-.6c.6.1.9.1.4-.1-1.4-.9-.7-2.3 1.3-2.3 1.1 0 2 .4 2 1 0 .5.7.7 1.6.3.9-.3 2 0 2.5.8.7 1.1.9 1 .9-.4 0-1.1.4-1.5 1.2-1.1.7.4.8.3.4-.5-.5-.7-1.6-.9-2.9-.5-1.9.6-2 .5-.9-.8.9-1.2 2.1-1.4 4.7-.8 2 .5 3.8.4 4.1-.1.4-.7 5.9-.6 5.9.1 0 .3 4.1 1 6.8 1.2 1.5 0 2.7.6 2.7 1.2 0 .7.3.7.8.1 1.2-1.7 3.4-1.6 4.7.2.7 1 1.7 1.5 2.1 1 .4-.4.2-.7-.4-.7-.7 0-1.2-.5-1.2-1.1 0-.5 1.5.1 3.3 1.5 3.7 2.8 5.2 3.3 4.1 1.3-.5-.9-.4-.9.6 0 .7.6 1.9.9 2.8.6 1.1-.5 1.3-.3.7.7-.6 1-.4 1.2.8.7 1-.4 1.7-.2 1.7.4 0 .6.7.9 1.5.5.8-.3 1.5 0 1.5.5 0 .7 1.1.9 2.5.7 1.6-.4 2.5 0 2.8 1.1.4 1.3.5 1.3.6-.2.1-2 1.4-2.2 3.3-.5.7.7 2 1.3 2.8 1.3.8 0 1.4.6 1.2 1.4-.2 1.1.3 1 2.3-.3 1.4-.9 3-1.4 3.5-1.1.5.3 1.2.1 1.5-.5.5-.8 1.1-.7 2.1.1.8.6 1.4.8 1.4.4 0-.5.9 0 2 1s2 2.2 2 2.6c0 1.4-6.4 2.7-7.7 1.6-.8-.5-1.3-.6-1.3 0 0 1.4 2.1 3.2 3.4 2.9.6-.2.8-.1.3.1-.4.3-.4.9-.1 1.5.4.6-.2.5-1.5-.1-1.4-.8-2.1-.8-2.1-.1 0 .5-.5 1-1.1 1-.5 0-.7-.5-.3-1.2.4-.7.3-.8-.4-.4s-1.2.2-1.2-.5-.3-.9-.6-.6c-.4.4-.2 1.3.5 2.1s.8 1.6.4 1.8c-.4.3-.2.3.5.2.6-.2 1.2.2 1.3.9 0 .7.3.4.7-.5.6-1.5.9-1.5 2.6-.2 1.7 1.2 1.8 1.4.3 1.4-1.1 0-1.7.8-1.7 2.1 0 2.1 0 2.1-2.1-.2-1.1-1.3-1.7-1.8-1.4-1 .6 1 .2 1.1-1.5.6-1.3-.4-2-.3-1.7.2.3.5-.4.8-1.6.7-1.2-.1-2.2-.3-2.2-.4 0-.1-1.2-.3-2.7-.4-1.6-.1-2.8.2-2.8.6 0 .4-.6.7-1.2.5-.7-.1-1.2.4-1 1.2.3 1.2 0 1.2-1.3.1-.8-.7-1.8-1-2.2-.7-.3.4-1.2.2-2-.4-1-.9-1.3-.8-1.3.1s-.4 1-1.3.2c-1.5-1.3-6-.4-5.1.9.3.5-.2.9-1.1.9-.8 0-1.8-.7-2.2-1.6-.5-1.3-.7-1.3-1.4-.2s-.9 1.1-.9-.1c0-.8-.8-.4-1.9 1l-2 2.4.5-2.5c.5-2 .3-2.2-.5-1-.6.8-1.1 1.1-1.1.6 0-.5-.7-.3-1.5.4-1.4 1.2-1.9.7-1.6-1.3.1-.5-.3-.6-.8-.3s-.7 1.5-.4 2.6c.3 1.1 0 2-.6 2s-1.1-.4-1.1-.9c0-.4-1.8-.7-4-.6-2.2.1-4-.2-4-.8 0-.5 1.5-.7 3.5-.4 2.2.4 3.7.1 4.1-.6.4-.7.4-.9 0-.5-.5.4-1.8.3-3.1-.2-1.6-.6-2.9-.4-4.4.6-1.8 1.3-2.1 1.3-2.1.1 0-.8-.9-1.7-2.1-2-1.6-.4-1.9-.2-1.5 1 .5 1.3.4 1.3-.8.4-.7-.6-3.1-1.4-5.2-1.6-2.2-.3-4.4-1.1-4.9-1.9-.9-1.1-1.2-1.1-2.3.1-.7.7-1.7 1.1-2.3.8-.5-.4-.9-.1-.9.6 0 .9-.3.9-1.4-.1-.8-.6-2.3-1-3.4-.8-1 .2-2.7-.4-3.6-1.2-1-.8-2.8-1.5-3.9-1.7-1.7-.2-1.9-.1-.7.6.8.5 1.8.7 2.2.5.4-.3.8 0 .8.5 0 1.6-1.5 1.3-4.3-.9-1.8-1.5-2.8-1.7-3.3-.9-.5.8-.3.9.6.4.9-.5 1.1-.4.6.4-.9 1.4-2.6.5-2.6-1.5 0-.8-.7-1.4-1.5-1.4s-1.5.5-1.5 1.1c0 .5.5.7 1.2.3.7-.5.8-.3.3.6-.7 1.1-1 1-1.9-.1-.6-.8-1.8-1.4-2.6-1.4s-1.8-.4-2.2-1c-.5-.6-.8-.6-.8.2 0 .9-.7 1-2.6.2-1.5-.5-2.9-.7-3.2-.4-.3.2-1.1-.3-1.8-1.3-.8-1-1.3-1.2-1.4-.5 0 .7-.5 1.3-1.1 1.3-.5 0-.8-.3-.5-.8.2-.4-1.3-.6-3.5-.4-3.1.3-3.9.1-3.9-1.3 0-.9-.5-1.3-1.1-.9-.6.3-1.5 0-2-.7-.7-1.1-.9-1-.9.5s-.3 1.6-1.4.7c-1.5-1.3-3.2.1-2.2 1.8.4.5-.4.7-1.6.3-1.2-.3-1.7-.7-1-1 .6-.2 1.2-.8 1.2-1.3 0-.6-1-.5-2.2.2l-2.3 1.2 2-2.3 2-2.3-2.1 1.1c-1.6.8-2.4.8-3.4-.1-1-1-1.1-.9-.5.2.6 1.1.4 1.3-.8.8-1.2-.4-1.4-.2-1 1.1.6 1.5.5 1.5-1 .3-.9-.7-1.7-1-1.7-.5s-.5.2-1-.6c-.6-1-1-1.1-1-.3 0 .7-.4 1.3-1 1.3-.5 0-1-.7-1-1.6 0-1.2-.6-1.5-2.2-1.1-1.2.4-2.7.2-3.4-.4-.8-.7-1.4-.7-1.9.1-.4.7-1.2.7-2.6-.1-1.5-.8-2.4-.7-3.5.2-1.2 1-1.3.9-.7-.7.6-1.7.5-1.8-1.2-.4s-1.8 1.3-1.3-.5c.4-1.5 0-2.1-1.4-2.2-1-.1-1.6.2-1.3.8 1.1 1.7-.4.9-2.5-1.3l-2.1-2.3-.6 2.5c-.6 2.2-.7 2.2-1.3.4-.4-1-.2-2.6.4-3.4 1-1.3.9-1.3-.6-.1-1 .7-1.5 1.8-1.1 2.5.4.7.1.7-.7-.1-1.1-1-1.1-1.5 0-2.8.7-.8.8-1.5.2-1.5-2 0-2.2 3.5-2.2 31.4v28.3l2.2-.1c1.3-.1 4.3.4 6.7 1.1 6.1 1.8 14.8 2.5 15.6 1.4.3-.6 1.2-.8 2-.4.9.3 1.5-.1 1.5-.8 0-.9 1.4-1.5 3.8-1.6 2-.1 10.2-.5 18.2-.8 8-.4 15.2-.9 16-1.2 2.4-.9 4.4-.9 5.8.1.7.5 1.2.4 1.2-.3s.5-.9 1.2-.5c1.2.8 8.8 1.3 21.8 1.6 4.8 0 8.5-.4 10-1.3 2.6-1.4 3.1-1.5 6.8-1.7 1.9-.2 2.1-.6 1.6-2.8-.5-1.9-.4-2.5.5-2 .6.4.9 1.2.6 1.7-.4.5-.1.9.4.9.6 0 1.1-.6 1.1-1.3 0-.8.3-.9.8-.1 1.4 2.1 3.7 2.1 4.8 0 .6-1.2 1.7-1.9 2.5-1.7 3.2.8 8.9.9 8.4.1-.3-.5 0-1.2.6-1.6.7-.4.9-.3.5.4-.9 1.5 1.5 2.1 4.2.9 1.6-.8 2.6-.7 3.4.1 1.6 1.6 3.3 1.5 2-.1-.8-1 0-1.2 4.1-.9 9.2.5 10.8.4 12.5-1 1.3-1.1 1.4-1.1.7.1-.6 1-.4 1.3.6.9.8-.3 2.3 0 3.4.8 2.2 1.6 3.9 1.8 3 .4-.3-.6.1-.7 1-.4.9.4 1.4 1.3 1.1 2.1-.3.8-.1 1.1.4.8.6-.4 2.4-.8 4-1 2.2-.3 3 0 3 1.1 0 1 1 1.4 3.3 1.4 3.6-.2 5.7.2 7.4 1.3.6.4 1.3.1 1.6-.5.3-.9 1.1-.7 2.8.7 1.3 1.1 1.8 1.3 1.2.5-.9-1.2-.7-1.5 1.2-1.5 1.3 0 2.1.3 1.8.7-.7 1.3 3.2.9 4.4-.3.7-.7 1.9-.8 3-.4 3 1.3 5.5 1.6 4.8.6-.3-.6.4-.8 1.6-.6 2.5.5 4 2.3 3.3 4-.3.5.3 0 1.2-1.3 2-2.6 3.4-2.9 3.4-.5 0 1.3.3 1.4 1.2.5 1.6-1.6 4.1-1.6 3.2 0-.6 1-.4 1 .8 0 1.1-.9 1.8-1 2.3-.2.3.6 1.2.7 1.8.3 1.7-1.1 2.9-1.1 5.1 0 1.5.7 1.8.6 1.3-.6-.4-1.1 0-1.3 1.4-1 1 .3 1.9 1 1.9 1.5s.4.7.8.4c1.7-1 6.2-1.5 5.7-.5-.6.9-.1 1 5.3 1.3 1.5.1 3.2.4 3.8.8.5.4 3 .7 5.5.7 7.7.2 8.7.4 8.2 2.1-.3 1.1-.1 1 1-.3 1.5-1.8 1.6-1.8 2.6 0 .6 1 1.1 1.4 1.1 1 0-.4.9-.3 2 .3 1.5.8 2 .8 2-.2 0-.9.3-1 .8-.2.8 1.2 7 1.3 9 0 .8-.5 1.1-.3 1 .6-.2.8.4 1.2 1.6 1 1.1-.2 2.8.6 3.9 2 1 1.2 1.5 1.6 1.1.8-.7-1.3-.5-1.3.9-.1 1.1.9 1.7 1 1.7.2 0-.6.7-1.1 1.5-1.1s1.5.3 1.5.8c0 .4 1.8.6 4 .4 3.4-.3 4-.1 4 1.4 0 1.1.3 1.5.8.9.8-1.2 2.7-1.3 3.8-.3 1 1.1 2.6 1 2 0-.2-.4.7-.8 2.2-.7 1.7 0 2.7.6 2.7 1.5.1.8.7 1.4 1.4 1.2.7-.1 1.9.2 2.6.8.9.7 2 .6 3.9-.3 1.4-.8 2.4-1.6 2.1-1.9-.3-.2.3-.5 1.2-.5 1 0 2.1.5 2.5 1.1.6.8.8.7.8-.1 0-.8 1.8-1.1 5.4-1 4.1.2 5.2.5 4.4 1.4-.9 1.1 1.7 1.2 5.7.2.6-.1 1.8.1 2.9.6 1.1.5 2.1.3 2.5-.4.4-.6 1.5-.9 2.4-.5.9.3 1.7.2 1.7-.2 0-.5 1.3-.9 2.9-.9 1.6 0 2.7.3 2.4.7-.6 1 .1 1 3.2-.2 1.7-.7 2.4-.7 2 0-.3.6-.2 1 .4 1 .5 0 1.2-.6 1.4-1.3.4-.9.6-.9.6.1.1.8.6 1 1.3.6 1.8-1.1 10.7-1.4 11.4-.3.3.5 1.4.4 2.6-.2 1.5-.8 1.9-.8 1.4 0-.4.6-.2 1.1.3 1.1.6 0 1.1-.5 1.1-1 0-.6.6-1 1.4-1 .8 0 1.7-.6 1.9-1.3.3-.7.6-.4.6.6.1 1.6.3 1.7 2.2.4 1.1-.8 3-1.2 4.1-.9 1.4.3 1.9.1 1.4-.6-.7-1.2.6-1.7 1.7-.6.8.8 8.6 1.2 8.5.5-.2-1.9.4-2.4 1.2-1.1.7 1.2 1.3 1.2 3.3.1 1.4-.7 3-1.1 3.5-.7.6.3 1.4.1 1.8-.5.5-.8.3-.9-.7-.4-1.2.7-1.2.6 0-.6 1-1.1 1.5-1.1 1.8-.2.3.7.9 1.3 1.4 1.3.6 0 .7-.5.4-1-.3-.6.1-1 .9-1 .9 0 1.6.4 1.6.9 0 1.5 3.2.6 4.2-1.2.5-.9 1.4-1.7 2-1.7.7 0 .7.4 0 1.3-.8 1-.5 1.3 1.6 1.5 2.1.1 2.4 0 1.2-.8-1.1-.8-.7-.9 1.5-.4 1.7.3 3.6.7 4.3 1 .7.2 1.5-.3 1.8-1.1.4-.8 1.4-1.5 2.3-1.5 1.2 0 1.3.2.3.8-.7.5.3.8 2.5.8 2.1-.1 4.4-.5 5-.9.8-.5 1.3-.3 1.3.5 0 1 .2 1 .8.1.5-.7 2.1-1.1 4-.9 1.8.3 3.2 0 3.2-.5s.5-.9 1.1-.9c.5 0 .8.3.6.7-.6 1 6.8.8 8.4-.2.8-.6 1-.4.4.4-.6 1-.3 1.1 1.4.2 1.3-.8 2.1-.8 2.1-.2 0 .7.9.7 2.5.1 1.4-.5 2.5-.7 2.5-.4 0 .4.6.1 1.3-.5.8-.6 1.6-.9 1.8-.7.2.3 2.8.7 5.8 1.1 2.9.3 5.6.6 6 .7.3 0 .8-.1 1.1-.2.3-.1 3.9-.3 8-.5s8.3-.6 9.3-1c.9-.4 2.6-.5 3.7-.2s1.8.1 1.4-.4c-.7-1.2.3-1.1 2.8.2 1.5.8 1.9.8 1.3-.1-.4-.7-.1-1.1.6-.9 2.8.3 3.9-.1 3.9-1.6 0-.8.4-1.5 1-1.5.5 0 .7.8.4 1.7-.5 1.4-.4 1.5.4.4.5-.7.8-2.3.5-3.5-.4-1.9-.3-1.9.7-.4.6 1 1.6 1.8 2.3 1.8.7 0 .6-.4-.3-1-2.3-1.4-.4-2.4 4.1-2.1 2.3.1 4.7-.3 5.5-1 .8-.6 1.4-.7 1.4-.2 0 .5.9.9 2 1 1.3.1 1.8-.2 1.4-.9-.4-.7-.2-.8.5-.4.6.4 1.9.2 2.7-.5 1.2-1 1.3-.9.8.7-.5 1.8-.5 1.8.6.1.6-.9 1.7-1.4 2.3-1 .7.3.3-.4-.8-1.7l-2-2.4 3.4 2.4c2.7 1.9 3.5 2 4.2.9.5-.9.9-1 .9-.2 0 1.4 2.3 1.1 4.2-.5.8-.6 1.7-1 2-.7.3.3 1.3-.4 2.3-1.5 1-1.1 2.4-2 3.1-2 .7 0 1.5-.8 1.7-1.8.3-1 .5-.6.6 1.1 0 1.5-.2 2.6-.6 2.6-2-.3-3.4.2-2.8 1.1.4.7 1.3.7 2.4 0 1.2-.6 2.2-.5 3 .3.9.9 1.1.6.9-1.3-.2-2 .1-2.5 2-2.5 1.3 0 3.2-1.1 4.3-2.5 1.2-1.4 1.8-1.9 1.4-1.3-.4.8-.1 1.1.8.7 1.8-.6 1.5-4.7-.4-5.2-1.1-.3-1.1-.1.1.7 1.3.9 1.3 1.1-.2 1.1-.9 0-1.9-.6-2.2-1.3-.5-1-.7-1-1.2 0-.6 1.4-2.5 1.8-2.3.5.3-1.9-.2-3.3-1.1-2.7-.6.4-.7-.1-.3-1.1.4-1.2.3-1.5-.5-1-.7.4-1.2 1.5-1.2 2.3 0 1.4-.4 1.3-2-.5-1.2-1.3-2.7-1.9-3.8-1.6-1.4.5-1.5.4-.2-.5s1.3-1.1-.2-1.1-2.4-2-1.5-3.4c.1-.2-.6-1.3-1.6-2.4-1.2-1.3-1.5-2.2-.8-2.7.6-.3 1.1.1 1.1.9 0 .9.5 1.6 1 1.6.6 0 1 .7.8 1.6-.2 1 .3 1.9 1 2.1.8.3 1-.2.6-1.4-.5-1.7-.5-1.7.9 0 .9 1.1 1.3 2.5 1.1 3.2-.8 1.9 3.4 2.6 4.5.8.4-.9 1.4-1.3 2-.9.6.4.9 1.1.7 1.5-.3.4 0 1.3.5 2.1.7 1.1.8.8.5-1-.2-1.4-.6-3-.8-3.7-.1-.6.6-1.8 1.6-2.6 1.6-1.1 1.6-1.5.5-2.2-.8-.5-1.1-.5-.7 0 .7.8-3.3 4.3-4.1 3.6-.2-.1-.7.3-1.1.9-.5.8-.9.7-1.3-.3-.4-1.1-.1-1.5 1.2-1.2 1.4.2 1.8-.3 1.9-2.6.1-3.5-.5-3.7-1.8-.7-.6 1.7-.9 1.9-.9.6-.1-1.1-.6-1.5-1.6-1.2-.8.4-1.2 1.1-.9 1.6.4.6-.2.5-1.4-.1s-2.5-1.8-2.9-2.5c-1-1.7-3.7-2.5-3.8-1.1 0 .5-.6 1.9-1.2 3-1.1 1.8-1.2 1.8-1.3.2 0-2-1.6-2.3-2.3-.5-.3 1-.7 1-1.9 0-1.3-1-1.7-1-2.2.3-.3.9 0 1.5.9 1.5 1.2 0 1.2.3-.2 1.8-1.8 1.8-3.5 1-2.7-1.2.2-.6 0-1.7-.5-2.5-.8-1.2-1.2-1.2-2.5-.2-.8.7-1.2 1.9-.9 2.7.3.8 0 1.4-.7 1.4s-1-.8-.7-1.9c.2-1 .1-2.5-.4-3.2-.6-1-.9-.5-.9 1.4 0 2.6-.1 2.7-1.6 1.3-.8-.9-2-1.4-2.5-1.1-.5.4-.9.1-.9-.4 0-.6-.5-1.1-1-1.1-.7 0-.7.6 0 2 .6 1.1 1.6 1.7 2.5 1.4.8-.4 1.5-.2 1.5.3s-1.1.9-2.4.9c-1.4 0-2.3-.2-2.1-.5.1-.4-.3-1.1-1-1.8-.9-.8-1.8-.6-3.8 1.1-1.5 1.3-2.6 2.5-2.4 2.7.1.2-.2-.1-.8-.7-.5-.6-1.4-1.1-2-1-.5.1-1.1-.8-1.2-1.9-.3-1.9-.3-1.9.5-.1.7 1.5 1 1.7 1.7.6 1.5-2.5 1.4-6-.2-6-1 0-1.3-.6-.9-1.8.6-1.6.5-1.6-.8.1-1.7 2.2-2.7.3-1.5-2.8.4-1.1.8-1.6.8-1.1.1.5.7.3 1.4-.3 1-.8 2.2-.7 4.6.2 2.7 1 3.3.9 4.1-.3.8-1.2 1.1-1.3 1.9-.1.6 1 1 1 1.6.1.5-.9.9-.9 1.4-.1.5.8 1.7.8 4.2 0 1.8-.6 5.4-1 7.8-1 2.4.1 5.1-.4 5.9-1.1 1.3-1.1 1.4-1.1.8.1-.6.9 0 .8 1.7-.4 1.9-1.2 2.7-1.3 3.3-.4.4.7.3.9-.4.5-.6-.3-1.3-.2-1.6.3-.4.5.1.8 1 .7.8-.1 1.9-.8 2.3-1.5.5-.7 2-1.4 3.4-1.4 1.4-.1 2.4-.4 2.2-.6-.6-.6 2.2-3.1 3.5-3.1.6 0 .8.5.4 1.1-.5.8-.1.8 1.4 0 2.7-1.4 3.5-1.4 2.7.1-.4.7 0 .5.9-.6.8-1 1.9-1.5 2.5-1.1.6.3 1.1.2 1.1-.3 0-1.4 5.9-2.1 6.4-.8.2.6.5.3.5-.7.1-1 .9-1.7 2-1.7s2.2-.6 2.4-1.3c.4-.9.8-.8 1.6.3.7.9 1.1 1 1.1.3 0-.6-.4-1.5-1-1.8-1.6-1-1.2-2.5.5-1.9.8.4 1.5 1.2 1.5 2 0 1.6 2.6 1.9 3.5.4.3-.6-.1-.7-.9-.4-1.1.4-1.6 0-1.6-1 0-1.4 1.1-2 3.2-1.7.4 0 1.2-.8 1.8-1.8 1.2-2.3 5-1.7 5 .8 0 1.3.2 1.4.9.1.6-.8.7-1.9.3-2.5-.3-.5.2-.4 1.1.4.9.7 1.4 1.8 1 2.5-.5.7-.2.7.8-.1 1.5-1.2 11.6-1.2 13.6 0 .7.4 1.5.3 1.8-.3.5-.8 1.1-.8 2 0 .8.6 1.6.7 1.9.2.3-.5 3.6-1 7.3-1 3.8 0 8.3-.3 10.1-.6 1.9-.4 3.2-.2 3.2.4 0 .5.5 1 1.1 1 .5 0 .7-.5.4-1-.3-.6-.2-1 .4-1 .5 0 1.3.5 1.6 1 .4.6 1 .8 1.4.6 1.6-1 6.1-1.4 6.6-.6.3.4 3 .2 6-.5 5.3-1.2 5.6-1.1 7 .8.8 1.2 1.5 1.6 1.5 1 0-.6 1.1-1.8 2.4-2.6 2.3-1.5 2.4-1.5 1.8.5-.3 1.2-.1 1.9.4 1.5.5-.3 1 .3 1 1.3s-.4 1.6-.8 1.4c-.4-.3-.8 0-.8.5 0 .6.5 1.1 1.1 1.1.6 0 .9.7.5 1.5-.3.8-.1 1.5.4 1.5.6 0 1-.9 1-2s.4-2 1-2c.5 0 .7.7.4 1.5-.5 1.3-.2 1.4 2.1.5 3.3-1.3 3.8-1.3 3 0-.3.5.1 1 .9 1 .9 0 1.6.5 1.6 1.1 0 .5.5.7 1.1.3.8-.4.9 0 .4 1.5s-.2 2.1 1 2.1c.9 0 1.3.5.9 1.1-.3.6 0 1.5.7 2 1.1.7 1 .9-.3.9-1 0-2.1 0-2.4-.1-.3 0-1.2.8-1.9 1.8-1.1 1.4-1.6 1.6-2.6.5-.7-.6-2-1.2-2.8-1.2-1.4.1-1.3.3.2 1.4 2.4 1.8 2.1 2.9-.4 1.5-1.2-.6-2.4-.7-2.8-.3-.3.5-2.2 1-4.1 1.1-2.9.2-3.2 0-1.5-.8 1.7-.8 1.6-.9-.7-.4-1.6.3-2.8 0-3.1-.8-.4-.9-.6-.9-.6.1-.1.7-.5 1.1-1 .7-.5-.3-1.2-.1-1.5.4-.3.5.1 1.1.9 1.5.8.3 1.5.1 1.5-.5s.5-.7 1.1-.3c1.5.9-.9 2.4-2.7 1.7-.7-.2-1.5.5-1.9 1.6-.3 1.2-1.1 1.8-1.7 1.5-.6-.4-.5-1 .3-1.5 1-.6.8-.9-.8-.9-1.7 0-2.1.4-1.6 1.7.6 1.5.5 1.6-.9.3-1.1-1.1-1.2-1.7-.4-2.2.8-.6.8-.8-.1-.8-2.6 0-2.8.2-2.5 1.8.3 1.3.1 1.4-1.2.3-.9-.8-1.6-.9-1.6-.3 0 .6-.8.9-1.7.7-1-.2-2.8-.4-4.1-.4-1.3-.1-2-.5-1.7-1.1.4-.6.1-.9-.7-.8-.7.2-1.2-.3-1-1 .1-.6-.2-1.2-.8-1.2-1.4 0-1.2 1.1.4 2.9 1 1.2 1.1 2.3.4 4.1-.7 1.8-1.1 2.1-1.7 1.1-.7-1-.9-.9-1.4.3-.4 1.1-.1 1.6 1.1 1.6 1.5 0 1.5.2.2 1s-1.3 1 .2 1c.9 0 1.9.4 2.2.9.4.5-.3.7-1.5.4-1.1-.3-2.3-1.2-2.6-1.9-.3-.8-.9-1.2-1.3-.9-.5.3-.6-.4-.3-1.5.3-1.2 0-2-.6-2-.7 0-1-.4-.6-.9.3-.6 1.4-.8 2.5-.6 2.1.4 2.7-.9 1-2-.6-.3-1-.2-1 .3s-1.5.4-3.4-.2c-2.3-.7-3.2-1.5-2.9-2.6.3-.8-.4-.4-1.5 1-1.2 1.4-1.8 2.7-1.6 3 .3.2.8-.1 1.2-.7.5-.7 1.3-.9 2.1-.4 1 .7.9 1-.8 1.6-1.2.3-1.9 1.1-1.6 1.6.4.5-.1.9-.9.9-.9 0-1.6.4-1.6.9 0 1.9-2.7 1.8-3.9-.1-1.1-1.8-1-1.9 1-1.3 1.4.5 1.9.3 1.5-.3-.3-.6 0-1.3.6-1.5 1-.4.9-.6-.1-.6-1.1-.1-1.1-.4 0-1.8 1-1.1 1-1.4.2-.9-.7.4-1.3.3-1.3-.3 0-.5.6-1.1 1.3-1.4.6-.2.9-.8.5-1.1-.3-.4-1.4.5-2.4 2.1-.9 1.5-2.9 3.8-4.3 5-2.1 1.8-2.3 2.5-1.3 3.5 1.1 1.1 1.2 1 .7-.5-1-2.4 1.7-2.2 3.3.3.7 1.2 1.7 1.8 2.2 1.5.6-.3 1-.1 1 .5s1 .2 2.2-1c1.5-1.4 2.4-1.7 2.9-.9.4.7 1.4.9 2.3.6 1.6-.7 1.8-.3 1.9 4.6.1 2.2.5 2.7 1.9 2.4 1-.3 1.6-.2 1.3.3-.8 1.3 2.1 2 3.3.8.8-.8 1.6-.6 2.7.6.9.9 2.7 1.6 4 1.6 1.3 0 3.5.4 4.9 1 1.9.7 2.6.6 2.6-.3 0-.9.2-.9.9.1.5.8 1.7 1.1 3.3.7 1.6-.4 2.9-.2 3.3.6.5.8.4 1-.3.5-.7-.4-1.2-.2-1.2.3 0 1.4 1.7 1.4 2.5.1.3-.6 1.5-1 2.6-1 1 0 1.9-.6 1.9-1.3 0-.8.4-.7 1 .3.7 1 1.3 1.1 1.8.5.4-.6 2.1-1.1 3.7-1.1 1.7 0 4.2-.3 5.8-.7 2.2-.6 2.7-.4 2.8 1 0 1.6.1 1.6.8-.1.8-2.1 2.6-2.7 8.9-2.7 2.3-.1 4.2-.5 4.2-1.1 0-.6.7-.4 1.7.3 1.5 1.2 1.6 1.2.8-.1-.6-1.2-.5-1.3.5-.3.9.9 1.9.9 3.3.2 1.5-.9 1.8-.8 1.2.1-.8 1.2 1.8 1.2 6.5-.1.9-.3 1.4.2 1.4 1.3-.1 1 .3 1.5.9 1.1.5-.3 1.6.2 2.3 1.1 1.4 1.9 3.8 1.3 2.9-.7-.3-.7.2-.2 1.1 1 .9 1.3 2.5 2.3 3.6 2.3 1.5 0 1.9.5 1.5 2-.3 1.1-.1 1.8.4 1.4.5-.3.9 0 .9.5 0 .6.5 1.1 1.1 1.1.8 0 .8-.5-.1-1.5-1.5-1.8.1-2 1.8-.3 1 1 1.5 1 2.3-.2.8-1.1.9-1 .4.8s-.3 2.3.9 2c.8-.2 2.1.5 2.8 1.4 1.5 2 7.9 3.3 16.1 3.3 3.1 0 5.7.3 5.7.7 0 .4.8.5 1.8.4.9-.2 4.4.2 7.6.9 3.3.7 6.7 1.1 7.5.9 5.7-1 9.1-1.2 8.5-.3-.3.6.9.7 3.3.4 2.1-.3 5.4-.5 7.3-.4 1.9 0 4 .1 4.5.1 21-1.1 25.7-1.6 27.6-2.8.8-.4.9-.3.5.4-.8 1.4 4-.2 6.1-2 .9-.7 1.7-.7 2.7.1.9.8 1.6.8 2 .2.4-.6-.3-1.5-1.4-2.1-1.1-.6-1.8-1.6-1.4-2.1.3-.6.9-.8 1.2-.5.3.3 1.2 0 2.1-.7 1.4-1.1 1.4-1 .2.5-1.2 1.6-1.1 1.8.3 1.8.9 0 1.6-.4 1.6-.8 0-.5 1.7-.9 3.8-.9 6-.1 6.4-.2 5.6-1.5-.5-.8 0-.9 1.4-.6 1.2.4 2.2.2 2.2-.3 0-.4.9-1.3 2-1.9 1.6-.9 2-.8 2 .5 0 .9-.4 1.4-.9 1.1-.5-.4-.6.4-.3 1.6.5 1.9.7 2 1 .5.2-.9.8-1.4 1.4-1.1.7.4.8.2.4-.4-.4-.7-.2-1.2.4-1.2.6 0 .8-.6.5-1.3-.3-.6 0-.4.7.6 3.8 5.5 3.6 5.3 5 3.8 1.1-1.2 1-1.3-.5-.8-1.1.4-1.6.3-1.2-.3.3-.6 1.3-1 2.1-1 .9 0 1.2-.5.8-1.2-.4-.7-.3-.8.5-.4.6.4.8 1.3.4 1.9-.5.9-.3.9.8 0 1-.8 1.9-.9 2.5-.3.6.6 2.9 1.1 5.2 1.2 2.4.1 4.5.5 4.8.9.2.5 1.6.4 3-.1 1.4-.6 3.8-.9 5.3-.8 1.4.1 3.2-.1 3.8-.5.6-.4 1.4-.3 1.8.2.3.7 1.5.7 3 .1 1.6-.6 2.7-.6 3 .1.4.5 1.5.7 2.6.4 1-.4 2.4-.3 3.1.2 1.8 1 4.6 1.3 17.6 1.4 8.1.1 12.3.6 14.5 1.7 2.2 1.1 3.2 1.2 3.5.4.2-.7.8-.9 1.3-.6.6.3 1.6.1 2.3-.5 1.1-.9 1.8-.8 3 .4 1.2 1.2 1.6 1.3 1.6.3s.3-.9 1 .2c.9 1.3 1 1.3 1 0s.1-1.3 1 0c.6 1 1 1.1 1 .2 0-.6.4-1.2 1-1.2.5 0 .6.7.3 1.7-.5 1.2-.3 1.4.8.7 2.2-1.4 8.8-1.1 9.4.4.4 1.1.8 1 2-.2.9-.8 2.3-1.2 3.2-.9 1.3.5 1.1 1-1.3 3-1.6 1.2-3.4 2.3-4.1 2.3-.6 0-1.3.5-1.5 1.2-.3.7-.7.5-1.1-.6-.4-.9-.3-1.5.2-1.1.5.3 1.3 0 1.7-.7.4-.7.4-1-.1-.6-.4.4-1.5.2-2.3-.5-.9-.6-1.3-.7-1-.2.4.6.3 1.7-.2 2.5-.7 1.1-1.1 1.2-2.4 0-1.4-1.1-1.6-1-1 .3.3.8 0 1.7-.8 2-.7.2-.3.2.9.1 1.2-.2 2.4.2 2.6.9.3.7.6.4.6-.6.1-1.2.5-1.6 1.4-1 2.1 1.3 4.7 1.3 4.7 0 0-.8.4-.7 1.1.3.8 1.2.9 1 .4-.8-.4-1.3-.2-2.2.5-2.2.6 0 .8.4.5 1-.3.5-.2 1 .4 1 .6 0 .8.6.5 1.4-.4 1.1 0 1.3 1.5.9 1.4-.3 2.1-.1 2.1.8 0 1.1.2 1.1 1-.1.7-1.2 1.2-1.2 2.9.5 1.2 1 2.4 1.5 2.8 1.2.3-.4.1-.7-.5-.7-.7 0-1.2-.5-1.2-1 0-.7.6-.7 1.9 0 1.4.7 2.1.6 2.5-.3.4-.6.4-.2.2 1-.2 1.5 0 2 1 1.6.7-.2 1-1.2.6-2.1-.5-1.4-.4-1.5 1-.2.9.8 1.3 1.9 1.1 2.4-.3.5 0 .6.8.4.8-.3 1.3-1.4 1.1-2.4-.2-1.6-.1-1.7.7-.4.9 1.2 1.1 1.3 1.1.1 0-.8.3-1.2.6-.9.3.4.1 1.5-.5 2.5-.8 1.5-.7 2 .4 2 .8 0 1.2-.4.9-.9-.3-.4.7-.8 2.3-.7 1.5 0 2.2.3 1.5.6-.6.2-.9.9-.6 1.4.3.6 1.2.5 2.2-.3 1.5-1.2 1.6-1.1.3.5-.8 1-2.1 1.5-2.9 1.2-1.2-.4-1.3-.3-.2 1 .7.8 1.7 1.2 2.4.8.6-.4.5.1-.3 1-1.2 1.6-1.2 1.7.5 1.1 1-.4 2.5-1.2 3.3-1.8 1.2-.8 1.3-.8.7.2-.5.9 0 2.1 1.2 3.3 1.9 1.7 2.2 1.7 3 .3.6-1.1 1.1-1.3 1.6-.5s1.3.8 2.7.1c1-.6 1.9-.8 1.9-.5 0 .3.9.1 1.9-.4 1.4-.8 2-.7 2.4.3.4 1 0 1.2-1.5.8-1.5-.3-1.9-.1-1.4.7.8 1.2 7.6 1.2 7.6 0 0-.4 2.1.3 4.7 1.6 2.5 1.3 5 2.2 5.5 1.9.4-.3.8 0 .8.5 0 .6-.5 1.1-1.1 1.1-.5 0-.8.4-.5.9.3.5 1.5.7 2.7.4 1.2-.4 2.5 0 2.9.7.7 1.1 1.4 1.1 3.5.2 1.4-.7 2.4-.9 2.1-.4-.2.4.4 1.3 1.5 2s1.9.8 1.9.2c0-.5-.5-1-1.2-1-.6 0-.9-.2-.6-.5.9-1 5.8 1.7 5.1 2.8-.3.6-.1.7.5.3.6-.4.9-1.4.6-2.4-.5-1.4-.4-1.5.5-.2 1.2 1.7 4.2 2 5.3.5.5-.6.8-.6.8.1s1.3 1 3 .9c1.7-.1 3 .1 3 .6s.7.6 1.5.2c2.2-.8 2.1-31-.1-31-.8 0-1.4.3-1.4.7 0 .6-4.1.5-4.7 0-.9-.8-5-.4-6.3.4-1.3 1-1.3.9 0-.8 1.8-2.3 2.4-5.4.7-3.7-1.6 1.6-3.7 1.4-3.7-.3 0-.8-.4-1.7-.9-2.1-1-.5-.5 3.7.5 5.9.3.6-.2.2-1-.9-.9-1.1-1.4-2.5-1.2-3.2.3-.7 0-1.3-.7-1.3-.8 0-.7-.3.2-.9 1.2-.8 1.2-1.2.2-2.5-1.1-1.4-1.1-1.6.3-1.6 1 0 1.5-.4 1.1-.9-.3-.6.3-.9 1.4-.8 1.8.1 1.9 2.7 0 2.7-.5 0-.9.6-.9 1.2 0 .7 1.2 0 2.5-1.5 1.4-1.5 2.5-2.5 2.5-2.2 0 .3.9.1 2.1-.5 1.2-.7 1.8-1.8 1.5-2.6-.3-.8-.2-1.2.3-.9.5.3 2.8.7 5 .9l4 .4.1-46.8c0-33.9-.3-47-1.1-47.5-.8-.6-.7-1 .2-1.6 1.1-.7.9-.9-.5-.9-2 0-2 0 0-1.5 1.8-1.4 1.8-1.4-.3-.8-1.5.3-2.3 1.3-2.3 2.7 0 1.5-.3 1.7-.9.7-.6-.9-1-1-1.6-.2-.5.9-1 .9-2 .1s-1.5-.8-2 0-1.1.8-2.1-.1c-1.1-.9-1.4-.9-1.4.1 0 .8-.9 1.1-2.5.8-2.6-.5-3.5.6-1.2 1.6.6.3.3.4-.8.3-1.1-.1-2.6-.9-3.3-1.7-1-1.3-1.1-1.2-.5.5.6 1.9.6 1.9-1.4.2-2.2-1.9-3.3-2.2-3.3-.6 0 .5.4.8.9.4.5-.3 1.2-.1 1.6.5.3.5-.3 1-1.4 1-1.2 0-2.1-.6-2.1-1.3 0-.6-1.1.1-2.5 1.8-1.3 1.6-2.4 2.5-2.5 1.8 0-.6.4-1.5 1-1.8 1.8-1.1 1.1-2.3-1-1.8-1.1.3-2 1.3-2.1 2.2 0 1-.2 1.1-.6.3-.2-.6-.9-1.2-1.4-1.2-.6 0-.7.6-.4 1.2.4.7 0 .6-.7-.4-.9-1-2.7-1.6-4.8-1.5-2.4.2-3.4-.2-3.2-1.1.1-.8-.2-1.1-.8-.7-.6.3-.8 1.1-.5 1.6.3.5-.1.6-1 .2-1-.3-2.1 0-2.6.8-.7 1.1-.9 1.1-.9-.3 0-1.5-.4-1.6-2.5-.8-1.9.7-2.5.6-2.5-.5 0-.7-.4-1.6-.9-2-.6-.3-.8.3-.6 1.5.5 2.3-1.3 2.2-3.6-.3-1.5-1.5-1.7-1.5-2.3-.2-.6 1.6-2.5 1.6-4.1 0-.5-.6-.9-.9-.8-.6.3.5-2.4 3.1-3.3 3.1-.3 0-.1-.7.6-1.5.9-1.1.9-1.5.1-1.5-.6 0-1.4.6-1.7 1.4-.3.8-1.5 1.4-2.6 1.3-2-.1-2-.2.1-1.8 1.2-1 2.1-2 2.1-2.4 0-.4-.6-.3-1.3.3-.8.7-1.8.7-2.7.2-1.2-.8-1-1 .8-1 1.2 0 2.5 0 2.8.1.3 0 1.3-.8 2.1-1.8 1.2-1.5 1.4-1.5.9-.1-.4 1.3.1 1.6 2.5 1.4 1.7-.1 3.4-.7 3.7-1.3.4-.5 1.5-.9 2.5-.7 1 .1 1.7-.4 1.7-1.4 0-1.4.2-1.4.9-.3.6.9 1.8 1.2 3.6.7 2.3-.6 2.6-.4 2.1.9-.3 1-.2 1.4.5.9.6-.3.8-1.5.6-2.6-.4-1.4-.2-1.7.7-.9.9.7 1.6.7 2.3 0 .7-.7 1.5-.6 2.6.5 1 1.1 1.7 1.2 1.9.5.3-.8 1-.6 2.1.5.9 1 1.7 1.3 1.7.8 0-1.5 3.7-2.1 5.1-.8.9.8 1.1.7.6-.6-.4-1.2-.2-1.5.8-1.1.8.3 1.3.9 1 1.3-.3.4.2 1.1 1 1.4.9.3 1.8-.1 2.1-.9.4-.8 1-1.2 1.5-.9.5.3.6 1 .3 1.6-.4.6-.2.8.4.4.6-.3 1.6.2 2.2 1.1 1.1 1.7 1.1 1.7.6 0-.3-1.1 0-2 .9-2.4 1.2-.4 1.3-.9.4-1.9-.8-.9-.8-1.4-.1-1.4.6 0 1.4.5 1.7 1 .5.8 1.2.7 2.3-.2 1.3-1.1 1.5-1.1 1 .4-.5 1.1 0 1.8 1.3 2.1 1.1.3 2.3 1.5 2.6 2.6.5 2 .6 2 1.9.4.8-1.1 1.3-1.3 1.4-.6 0 1.5 3 1.8 3 .3 0-.6-.7-1-1.6-1-1 0-1.4-.5-1-1.6.3-.8.2-1.2-.3-.9-.5.3-1.2.1-1.5-.4-.4-.5.2-.8 1.1-.6 1 .2 1.8.4 1.8.5 0 .7 4.1.7 4.5 0 .3-.5 1.8-.3 3.3.5 1.6.8 2.9 1 3.3.4.3-.5 0-.8-.7-.7-.6.2-1.4-.3-1.7-1.1-.3-1 0-1.2 1.2-.8 1.5.6 1.6-14.5 1.6-198.8V0H827.3C627.6 0 574.4.3 573.2 1.3c-1.3.9-1.4.9-.8-.1.4-.6.2-1.2-.4-1.2-.6 0-1.5 1-2 2.2l-.9 2.3V2.3c-.1-1.6-.7-2.1-2.2-2-1.8.1-1.8.3-.4 1.3s1.3 1.2-.7 1.9c-1.3.4-2.7.8-3.3.9-.5.1-1.5.5-2.2.9-.6.4-1.5.3-1.8-.3-.4-.6-.1-.9.7-.8.7.2 1.2-.4 1-1.2-.3-1.2-.1-1.3.9-.3 1.8 1.8 2.5 1.6 2.6-.7.2-1.8-.5-1.9-14.4-1.9h-14.5l.6 2.5c.5 1.7.3 2.3-.4 1.9-.5-.3-1-1.5-1-2.6C534 0 530.8 0 267 0H0v234zM25.7 3.2c-.3.8-.6.5-.6-.6-.1-1.1.2-1.7.5-1.3.3.3.4 1.2.1 1.9zM576.5 2c-.3.5-1.1 1-1.6 1-.6 0-.7-.5-.4-1 .3-.6 1.1-1 1.6-1 .6 0 .7.4.4 1zm-35.1 2.5c-.4.8-.8 1.5-1 1.5-.2 0-.4-.7-.4-1.5s.4-1.5 1-1.5c.5 0 .7.7.4 1.5zm3.6.5c0 .5-.5 1-1.1 1-.5 0-.7-.5-.4-1 .3-.6.8-1 1.1-1 .2 0 .4.4.4 1zm34.4 2.5c.3 1.7-.1 4.1-.9 5.5-1.4 2.5-1.9 1.7-1.6-2.2.1-.9-.3-1.9-1-2.3-.8-.5-.9-.1-.4 1.4.5 1.6.2 2.1-1.3 2.1-1.3 0-1.9.6-1.8 1.7.1 1.2-.5 1.7-1.8 1.5-1-.2-1.5.1-1.2.7.4.5.3 1.2-.2 1.5-.5.3-.9-.2-.9-1.1 0-.9.8-1.8 1.8-2 1-.3 1.5-1.1 1.2-1.9-.3-.8.2-1.7 1.1-2 .9-.3 1.6-1.2 1.6-2 0-1 .7-1.3 2.4-.8 2.2.5 2.4.3 1.9-1.8-.3-1.2-.3-2.1 0-1.8.3.3.8 1.9 1.1 3.5zm-32 .7c-.9 1.4-2.3-.2-1.7-1.8.4-1.2.8-1.3 1.4-.3.4.7.5 1.7.3 2.1zm9.1-1.2c-.3.5-.1 1 .6 1s1 .2.7.5c-.3.3-1.3.2-2.2-.1-1.4-.5-1.5-.9-.4-1.5 1.7-1.1 2-1.1 1.3.1zm9.8-.3c-.7.2-2.1.2-3 0-1-.3-.4-.5 1.2-.5 1.7 0 2.4.2 1.8.5zm5.2 1.3c0 .9-.9 1.5-2.2 1.4-1.3 0-2.3.3-2.3.8 0 .4.7.8 1.5.8s1.5.4 1.5 1c0 .5-.7.7-1.5.4-.8-.4-1.5-.1-1.5.5 0 .8-.5.9-1.9.1-1.4-.7-2.1-.6-2.4.3-.3.7-.6.5-.6-.5-.1-.9.4-2 .9-2.3.6-.4.7-1.1.4-1.7-.5-.7-.2-.8.5-.4.7.5 1 1.4.7 2.2-.3.8-.1 1.4.4 1.4.6 0 1-.9 1-2s.7-2 1.6-2c.8 0 1.2-.5.8-1.1-.4-.7.1-1 1.2-.7 1.1.2 1.9 1 1.9 1.8zM597 9.8c.8.2 2.2 1.2 3.2 2.2.9 1.1 2.1 2 2.8 2 1.6 0 .7 2.3-1.1 2.8-1.1.3-1.1.2.1-.7 1-.7 1.1-1.1.3-1.1-1.9 0-2.8.4-2.6 1.1.1.4-1 .6-2.5.5-1.5 0-2.9.3-3.1.9-1.1 2.3-2.6 3-5.8 2.7-2.4-.3-3.3-.9-3.3-2.2 0-1.3.5-1.7 2-1.3 1.1.3 1.7.9 1.4 1.4-.3.5.4.9 1.6.9 1.6 0 2-.6 1.8-2.8-.1-2.1-.7-2.7-2.5-2.8-1.9-.2-2.2.1-1.2 1.2.9 1.1.8 1.4-.5 1.4-.9 0-1.6-.5-1.6-1.2 0-.8-.4-.7-1.2.3-.7.8-1.2 1.2-1.1 1 .2-.2-.2-1-.8-1.8-.9-1-1.5-1.1-2.6-.2-1.1 1-1.2.8-.6-.9.5-1.1 1.2-2.1 1.7-2.1.5.1 1.2-.5 1.6-1.1.6-.9 1.3-.9 2.9-.1 1.6.9 2.1.9 2.1-.1 0-.9.3-.9.8-.2s1.4.7 2.9-.1c1.3-.7 2.2-1.4 2-1.6-.1-.2.3 0 .8.6.6.5 1.7 1.1 2.5 1.3zm5.7.4c-.9.6-.9.8.1.8.6 0 1.2.4 1.2 1 0 .5-.7.7-1.5.4-.8-.4-1.5-1.5-1.5-2.6 0-1.2-.4-1.7-1.2-1.2-.7.4-.8.3-.4-.4.5-.9 1.2-.8 2.6 0 1.4.9 1.6 1.4.7 2zm-53 1c-.3.8-.6.5-.6-.6-.1-1.1.2-1.7.5-1.3.3.3.4 1.2.1 1.9zm9 2c-.3.8-.6.5-.6-.6-.1-1.1.2-1.7.5-1.3.3.3.4 1.2.1 1.9zm17.2 2.5c0 2.5-.1 2.5-.8.8-.5-1.1-.7-2.3-.4-2.8.8-1.4 1.3-.7 1.2 2zm14.8 1.5c-.3.8-.6.5-.6-.6-.1-1.1.2-1.7.5-1.3.3.3.4 1.2.1 1.9zM574 17c0 .5-.5 1-1.1 1-.5 0-.7-.5-.4-1 .3-.6.8-1 1.1-1 .2 0 .4.4.4 1zm7.4.2c-.3.4-1.1.8-1.9.8-.8 0-1.6-.4-1.9-.8-.2-.4.6-.8 1.9-.8 1.3 0 2.1.4 1.9.8zm25.6 1.3c0 .8-.4 1.6-.9 1.9-.5.4-.7-.4-.3-1.6.4-1.6.2-1.9-.8-1.3-.9.5-1.1.4-.6-.4.9-1.4 2.6-.5 2.6 1.4zM573 20c0 .5-.5 1-1.1 1-.5 0-.7-.5-.4-1 .3-.6.8-1 1.1-1 .2 0 .4.4.4 1zm22.7.6c-.3.3-1.2.4-1.9.1-.8-.3-.5-.6.6-.6 1.1-.1 1.7.2 1.3.5zm5.8 1.4c.3.6-.4 1-1.7 1-1.8 0-2-.2-.8-1 1.9-1.2 1.8-1.2 2.5 0zm3 0c.3.5.1 1-.4 1-.6 0-1.1-.5-1.1-1 0-.6.2-1 .4-1 .3 0 .8.4 1.1 1zm-10.5.4c0 .2-.7.6-1.5 1-.8.3-1.5.1-1.5-.4 0-.6.7-1 1.5-1s1.5.2 1.5.4zm-572.3 12c-.3.7-.1 1.9.4 2.5.6.8.5.8-.3.1-1.5-1.3-1.9-4-.6-4 .6 0 .8.6.5 1.4zm2.7 1.2c.3.8.2 1.2-.4.9-.6-.3-1-1-1-1.6 0-1.4.7-1.1 1.4.7zm754 152.9c-.4.8-1.1 1.5-1.6 1.5-.6 0-.5-.6.2-1.5.7-.8 1.4-1.5 1.6-1.5.2 0 .1.7-.2 1.5zm-122.9 2.4c-.6.5-2.5-1-2.5-2 0-.5.6-.4 1.4.3.8.7 1.2 1.5 1.1 1.7zm98.2.7c-.2 1.3 0 2.1.4 1.8.5-.3.9-1.2.9-2 0-1.5 3.3-1.5 4.7.1.5.4.2.5-.4.1-.9-.5-1.2 0-1.1 1.8.1 1.3.6 2.2 1 2 .5-.3.6-1 .3-1.5-.4-.5-.2-.9.4-.9.5 0 1.3.5 1.6 1 .4.6 1.1.8 1.6.4.6-.3.5-1.2-.3-2.2-1.1-1.3-1-1.5.5-.9 1.2.4 1.6.3 1.1-.4-1-1.6 1.7-2.9 3.1-1.6.7.7 1.1 1.5.9 1.9-.3.4.5.6 1.6.5 1.1-.1 2-.5 2-.9s.5-.8 1.1-.8c.5 0 .7.5.4 1.1-.4.6-.1 1 .6.8 2.8-.3 3.9.1 3.9 1.7 0 1 .5 1.2 1.3.7.6-.4 2.1-.9 3.2-1 1.1-.2 2.6-1.1 3.3-2 1.1-1.6 1.2-1.5.8.7-.2 1.4-.5 2.8-.5 3.2-.1.5-.6.8-1.2.8-.5 0-.8-.4-.5-.8.3-.5-.2-.9-1-.9-.9 0-1.3.6-1 1.4.3.8-.6 2.5-2.1 3.9-1.4 1.3-2.3 2.7-2 3.1.4.3.7.1.7-.5 0-.7.5-1.2 1-1.2 1.6 0 1.2 2.7-.5 3.4-.9.3-1.8-.1-2.2-1-.5-1.3-.8-1.3-1.5-.2-.7.9-.9.7-.5-.8.4-1.9.2-2-1.9-1-2 1-2.1 1.2-.6 1.8 1.5.6 1.4.7-.3.7-1.3.1-2.5 1.2-3.2 3.1-.7 1.9-1.8 3-3 2.9-1.5-.1-1.5-.2-.1-.6 2.2-.6 3.2-3.4 1.7-4.7-.9-.8-1-.8-.5.1 1 1.8-.2 1.6-2-.2-.9-.8-2.1-1.5-2.7-1.5-.7 0-.4.7.6 1.4.9.7 1.7 1.9 1.7 2.7 0 .9-.3 1-.8.3-.8-1.2-4.6-3.4-5.8-3.4-.4 0 .1.7 1.2 1.6 1.5 1.2 1.6 1.6.5 2.1-.7.3-2.2 1.4-3.2 2.4-1.1 1.1-1.9 1.6-1.9 1.1 0-.4-.5 0-1 .8-.9 1.3-1 1.3-1 0s-.1-1.3-1.1 0c-.9 1.3-1 1.3-.6 0 .2-.8.9-1.6 1.5-1.6.7-.1 1.7-.2 2.3-.3.5 0 .8-.5.4-1.1-.7-1.2-3.6-.2-5.2 1.8-1.1 1.3-1.4 1.2-2.8-.2-.9-.9-2-1.6-2.5-1.6s-.7-.7-.4-1.5c.4-.8.2-1.5-.3-1.5-1.5 0-3.2 3.7-2.7 6.1l.5 2.4-1.1-2.4c-.6-1.4-.9-2.9-.7-3.5.3-.6-.6-1.1-1.8-1.1-1.3 0-2.1.3-1.9.6.2.4-.2.9-1 1.2-.8.3-1.7-.1-2-.9-.7-1.8-2.7-.9-2.2.9.1.7.1.9-.1.4-.3-.4-.9-.5-1.4-.1-.5.3-.8 0-.7-.8.2-.7-.3-1.2-1-1-1 .2-1.1-.4-.6-2 .6-2.1.5-2.2-1.1-.8-1.6 1.4-1.7 1.3-1.1-.6.6-1.8.3-2.1-2-1.8-2 .2-3-.4-4.2-2.6-.9-1.6-2.5-3.1-3.4-3.4-2-.5-2.5 1-.5 1.7.6.3.1.6-1.3.5-1.4 0-4.2.3-6.2.6-2.7.4-3.8.3-3.8-.6 0-1-.2-1-.9.1-.5.8-1.1.9-1.5.3-.3-.6-1.6-.8-2.8-.5-1.3.4-2.5 0-3.4-1.1-1.1-1.6-1.3-1.6-2.1-.1-.8 1.3-1 1-1-1.5 0-1.7.3-2.6.7-2 .7 1.1 4 .4 4-.9 0-.9 7.3-.7 8.9.3 1.1.7 1.2.6.6-.5-.8-1.2-.6-1.2.8 0 .9.7 1.4 1.8 1 2.4-.4.6-.1.7.8.2 2.3-1.5 6.1-1.4 7.6.1 1.7 1.7 3.4 1.9 3.1.3-.2-.6.3-1.4 1.1-1.7.8-.3 1.1 0 .7.7-.4.6-.5 1.1-.2 1.1.2 0 1.1.3 2 .6 1.1.4 1.6.1 1.6-1 0-1.2.8-1.6 2.8-1.4 1.5.1 3.4-.2 4.1-.7 1.1-.6 1.3-.4.7 1.1-.6 1.5-.5 1.7.5.6.7-.6 1.7-1.2 2.2-1.2.4 0 .5.6.1 1.2-.5.9-.2.9.9-.1.9-.7 1.7-1 1.7-.5 0 .4.7-.1 1.6-1.2.8-1 1.3-1.3.9-.7-.4.9-.1 1.1.9.7.9-.3 1.3-1.1.9-1.7-.3-.5-.2-.7.4-.4 1.3.8 8.3-1.1 8.3-2.3 0-.5.7-.7 1.6-.3 1 .4 1.4 1.4 1.1 2.9zm36.3.5c0 .5-.4.9-.8.9-.5 0-.9-.7-.9-1.5s.4-1.2.9-.9c.4.3.8.9.8 1.5zm-103.6 1.6c.3.8.1 2.2-.5 3.1-.9 1.5-1 1.4-.4-.3.4-1.3-.1-2.5-1.7-3.7-2.3-1.7-2.3-1.7-.1-1.2 1.2.3 2.4 1.3 2.7 2.1zm3.1 2.9c-.9.9-1.8 1.4-2.1 1.2-.2-.3.2-1.1 1.1-1.8.8-.7 1.6-2 1.6-2.9.1-1.3.2-1.3.6.1.2 1-.3 2.5-1.2 3.4zm-11.3.5c-.9 1-2 1.5-2.5 1.2-.6-.3-.3-1.1.6-1.8 1-.7 1.7-1.8 1.7-2.6 0-1.2.2-1.2.9 0 .6.8.3 2-.7 3.2zm-25.7-2.1c.3.6-.1.7-.9.4-1.8-.7-2.1-1.4-.7-1.4.6 0 1.3.4 1.6 1zm10.8.3c.4-.3.7-.4.7-.1 0 .3-.8 1.2-1.7 1.9-1 .7-1.5.9-1.1.5.4-.5.2-1.6-.5-2.5-1-1.4-1-1.4.4-.4.9.7 1.9 1 2.2.6zm20.7 3.5c0 .7.4 1.1.9.7.5-.3 1.2-.1 1.5.3.3.5-.4.9-1.6.8-1.2 0-2.2-.8-2.4-1.6-.1-.8-.5-2.4-.9-3.5l-.8-2 1.6 2c.9 1.1 1.7 2.6 1.7 3.3zm111.6-.5c.1 2.3-.1 3.5-.4 2.7-.3-.8-1-1.8-1.6-2.2-.7-.5-.6-.8.3-.8 1 0 1.1-.3.2-1.4-.9-1.1-.9-1.5.1-1.9.7-.3 1.3-.6 1.3-.6 0-.1.1 1.8.1 4.2zm-123.3-.7c-.4 1-.9 1.2-1.5.6-1.2-1.2-.1-3.5 1.2-2.7.5.3.6 1.3.3 2.1zm115.5 2.6c.1 4.3.1 4.3-1.4 1.8s-1.5-2.5-.8-.1c.4 1.6.3 2.1-.5 1.7-.6-.4-1.1-1.4-1.1-2.2 0-.8-.5-1.4-1.1-1.4-.5 0-.7.5-.3 1.2.4.7.3.8-.5.4-1.5-1 .3-3.4 3.4-4.6 1.1-.5 2-.9 2.1-.9 0-.1.1 1.8.2 4.1zm2.6-2.7c-.4.8-1.1 1.5-1.6 1.5-.6 0-.5-.6.2-1.5.7-.8 1.4-1.5 1.6-1.5.2 0 .1.7-.2 1.5zm-108.9.5c.3.5-.6 1.7-2 2.6-1.3.9-2.3 2-2 2.4.3.5.1 1.1-.4 1.4-.5.4-1.2.2-1.5-.3-.8-1.2 2.9-5.2 3.9-4.3.5.4.5-.1.2-1.1-.7-1.8.7-2.4 1.8-.7zm37.5 4.3c0 .4-.9.2-2-.5-1.3-.9-1.6-1.4-.7-2 1.1-.6 2.7.8 2.7 2.5zm-37 .1c0 .3-.4.8-1 1.1-.5.3-1 .1-1-.4 0-.6.5-1.1 1-1.1.6 0 1 .2 1 .4zm5 0c0 .3-.4.8-1 1.1-.5.3-1 .1-1-.4 0-.6.5-1.1 1-1.1.6 0 1 .2 1 .4zm125.3 1.6c-.3 1.2-.8 1.9-1.1 1.6-.5-.6.5-3.6 1.2-3.6.2 0 .2.9-.1 2zm18.2-.2c-.3.3-1.1 0-1.8-.7-.9-1-.8-1.1.6-.5 1 .3 1.5.9 1.2 1.2zm20.9-.6c-.5.8-.2.9 1 .5 1.1-.4 1.5-.3 1 .4-.4.8.1.9 1.5.4 1.4-.4 2.1-.3 1.9.5-.2.7.3 1.5 1.1 1.8.8.3 1.1 0 .7-.7-.5-.7-.1-.9 1-.4 1.5.6 1.5.7-.1 1.5-.9.5-2.3.7-3.1.4-.9-.3-1.2-.1-.9.4.3.6-.1 1-1 1-1.1 0-1.5-.5-1.1-1.5.6-1.6-1.9-2.2-2.8-.6-.3.5-3.1.8-6.1.8-4.4 0-5.5-.3-5.1-1.3.3-.8 0-1.4-.6-1.4s-.9-.2-.6-.5c.3-.3 1.7-.1 3.1.4 2.2.9 2.5.8 2.1-.7-.5-1.5-.4-1.5.6.1.6.9 1.5 1.5 2.1 1.2.5-.4.9-.1.9.4 0 .6.5 1.1 1.1 1.1.5 0 .7-.4.4-1-.3-.6.1-.7.9-.4.9.3 1.6.1 1.6-.5s-.5-1.1-1.1-1.1c-.5 0-.7-.5-.4-1 .3-.6 1.1-1 1.6-1 .6 0 .7.5.3 1.2zM625.5 205c.3.5.1 1-.4 1-.6 0-1.1-.5-1.1-1 0-.6.2-1 .4-1 .3 0 .8.4 1.1 1zm195.9 2.8c.3.5-.1.9-.9.9s-1.2-.4-.9-.9c.3-.4.7-.8.9-.8.2 0 .6.4.9.8zm37 2.7c-.4.8-1 1.5-1.6 1.5-.5 0-.6.6-.2 1.2.4.8.3 1-.2.5-1.8-1.7-.9-3.6 2.3-4.6.1-.1 0 .6-.3 1.4zM745 211c0 .5-.4 1-1 1-.5 0-1-.5-1-1 0-.6.5-1 1-1 .6 0 1 .4 1 1zm101.6.4c.3.8 1.3 1.2 2.2.9 1.4-.4 1.5-.3.2.5-1 .8-1.8.7-2.8 0-1-.9-1.6-.8-2.3.3-1 1.6-1.2.8-.3-1.5.8-2 2.3-2.1 3-.2zm31.8 1c-.3.9-1 1.6-1.5 1.6s-.4-.9.3-2c1.4-2.2 2.1-2 1.2.4zm-60.4 1.8c-1 1.7-1.6 3.6-1.3 4.1.3.6.1.7-.5.3-1.2-.7-.4-3.3 2.1-6.4 1.8-2.3 1.7-1.2-.3 2zm52 .4c0 .2-.7.4-1.5.4s-1.5-.4-1.5-1c0-.5.7-.7 1.5-.4.8.4 1.5.8 1.5 1zm-84.3.9c0 .8-.4 1.2-.9.9-.4-.3-.8-.9-.8-1.5 0-.5.4-.9.8-.9.5 0 .9.7.9 1.5zm6.8-.5c-.3.5-1.4 1-2.3.9-1.4 0-1.3-.2.3-.9 2.7-1.1 2.7-1.1 2 0zm-87.5 1.5c-.7.9-1.5 1.3-1.9 1-.3-.3.1-1 .9-1.5 2.1-1.4 2.4-1.2 1 .5zm99-1.1c0 .2-.8 1-1.7 1.7-1.6 1.3-1.7 1.2-.4-.4 1.3-1.6 2.1-2.1 2.1-1.3zm20 4.2c0 .4-.6.4-1.4.1-.8-.3-1.7-.1-2 .6-.2.7-.5.2-.5-1.1-.1-2 .2-2.1 1.9-1.2 1.1.6 2 1.3 2 1.6zm-20-.6c-1.2.8-1.2 1-.1 1 .8 0 1.2.3.8.6-.9.9-2.8-.6-2.2-1.7.4-.5 1.2-.9 1.8-.9.7 0 .6.4-.3 1zm-20 1c0 .5-.4 1-1 1-.5 0-1-.5-1-1 0-.6.5-1 1-1 .6 0 1 .4 1 1zm29.8 1c2.3 2.5 6.3 3.4 7.4 1.7.6-.9.8-.9.8.1 0 .7.5 1 1 .7.7-.4.9.5.5 2.5-.4 2.2-.2 2.9.5 2.5.7-.4.7.1-.1 1.3-1.2 1.9-1.3 1.9-3.3.1-2.2-2.1-3.6-2.4-3.6-.9 0 .5-.5 1-1 1-.6 0-.5-.8.2-1.9.7-1.1 1.6-1.7 2-1.5.4.3.8-.2.8-1.2 0-1.3-.3-1.4-1.4-.5-1 .9-1.5.8-1.9-.3-.3-.8-1.5-2-2.7-2.6-1.9-1-2-1-.8.9 1.1 1.8 1 2.3-.6 3.4-1.9 1.4-1.5 3.7.6 3.7.7 0 .7-.4 0-1.3-.8-.9-.6-1.6.8-2.5 2.8-1.7 3.5.3 1.1 2.9-1.6 1.7-2.3 1.9-3.4 1.1-.8-.7-1.8-.8-2.2-.4-.5.4-.5.2-.2-.4.4-.7 0-1.5-.9-1.8-1.2-.5-1.5-.2-1 1.1.6 1.4.4 1.5-.4.7-1.5-1.5.4-5.4 2.6-5.4.9 0 1.4-.8 1.3-1.8-.4-3.9 1-4.3 3.9-1.2zm13.2-1c0 .5-.4 1-1 1-.5 0-1-.5-1-1 0-.6.5-1 1-1 .6 0 1 .4 1 1zm8.5 2.3c.1 1.9.7 2.1 3.3 1.9 4.7-.5 4.3 1.6-1.3 5.8-1.8 1.4-1.9 1.3-.8-.1 1-1.3 1-1.9-.3-3.5-.8-1-1.3-1.4-1-.7.4.6.1 1.5-.5 1.9-.8.4-.9.3-.5-.5.6-.8.1-1-1.7-.5-3.4.8-7.5-.5-5.6-1.7 1.1-.7 1-.9-.3-.9-2.5 0-2.3-1.5.2-1.7 1.1-.1 2 .4 2 1 0 .7.4.6 1-.3.8-1.3 1-1.3 1 .2 0 .9.5 2 1 2.3.6.4 1 .3.9-.2-.4-2.1.2-3.4 1.2-2.7.8.4.9-.1.4-1.7-.4-1.3-.4-2.1 0-1.6.5.4.9 1.7 1 3zm-27.5-.2c0 .6-.4.7-1 .4-.5-.3-1-1.1-1-1.6 0-.6.5-.7 1-.4.6.3 1 1.1 1 1.6zm-15.6-.3c.3.5-.1.9-.9.9s-1.5-.4-1.5-.9c0-.4.4-.8.9-.8.6 0 1.2.4 1.5.8zm8.9 2.5c.9.8 1.7 2.3 1.7 3.3-.1 1.5-.4 1.3-1.6-.9-1.2-2.3-1.8-2.6-3-1.6-.8.6-1.4 1-1.5.8 0-.2-.2-1.4-.3-2.6-.3-2.3.7-2.1 4.7 1zm-20.6.9c-.3.7-.5.2-.5-1.2s.2-1.9.5-1.3c.2.7.2 1.9 0 2.5zm68.3 3.6c0 1.5-.2 1.5-1 .2-1.3-2-1.3-3.3 0-2.5.6.3 1 1.4 1 2.3zm-5.8 1.1c-1.6.3-3.2 1.9-3.2 3.3 0 .3 1.5 1.5 3.3 2.7 2 1.3 2.6 2.1 1.5 2.1-.9 0-1.8-.6-2.1-1.3-.3-.6-.4-.2-.4 1.1.1 1.4.6 2.1 1.4 1.8.7-.3 1.4-.2 1.7.2.3.4-.4.9-1.5.9-2 .2-4.4-3.1-3.4-4.7.3-.6.2-1-.4-1-1.5 0-1.9 2.3-.8 4.5.7 1.6.7 1.8-.3.8-.7-.6-1.8-1-2.4-.9-.6.2-.8.1-.3-.1 1.5-.9.6-2.2-1.3-2-1.1.1-2 .4-2 .7 0 .4-.7.7-1.5.7-1.3 0-1.3-.3.2-1.9 1-1.2 1.2-1.8.4-1.8-.7 0-.9-.5-.6-1.1.5-.6 1.1-.4 1.9.6 1.7 2.4 5.2 1.5 4.9-1.2-.3-2.8 4.6-7 5.8-5.1.6.8.2 1.4-.9 1.7zm-13.2-1.5c0 .2-.7.7-1.6 1-.8.3-1.2.2-.9-.4.6-1 2.5-1.4 2.5-.6zm23.4 1.4c.3.5-.1.9-.9.9s-1.2-.4-.9-.9c.3-.4.7-.8.9-.8.2 0 .6.4.9.8zm-10 2.7c-.4.8-1.1 1.2-1.6.9-.6-.4-.5-1 .3-1.5 1.9-1.2 1.9-1.1 1.3.6zm2.2 0c-.7 1.8.5 1.9 2.4.2.8-.6.6-.2-.5 1.1-2 2.4-4 1.7-2.9-1.1.3-.9.8-1.7 1.1-1.7.3 0 .3.7-.1 1.5zm-19.2 1.6c-.3.5-1.3.9-2.2.8-1.1 0-1.2-.2-.4-.6.6-.2 1-.9.7-1.4-.4-.5.1-.6.9-.3.9.3 1.3 1 1 1.5zm10.6.1c0 .6-.6.5-1.5-.2-.8-.7-1.5-1.4-1.5-1.6 0-.2.7-.1 1.5.2.8.4 1.5 1.1 1.5 1.6zm16.8-1c-.2.8.8 1.3 2.4 1.3 3 0 4.4 1 2.9 2-.6.3-1.1.2-1.1-.4 0-.6-.7-.8-1.5-.5-.8.4-2.1.1-2.9-.5-.7-.6-1.7-.7-2.2-.3-.4.4-.2-.1.5-1.1 1.6-2 2.2-2.2 1.9-.5zm9.5.9c-.8.8-.9 2-.2 3.8.8 2.3.8 2.4-.4.9-.8-1-1.8-1.4-2.2-1-.5.4-.5 0 0-.8 1.2-2.3 2.7-4 3.3-4 .3 0 .1.5-.5 1.1zm-12.1 2.3c.6-.4.8-.2.5.4-.8 1.2-3.2 1-4.4-.3-.4-.4-.2-.5.5-.1.7.5 1.2.1 1.3-1.1.1-1.7.2-1.7.6 0 .2.9.9 1.4 1.5 1.1zm-24.6 2.1c-1.3 1-1.5 1.5-.6 1.5.7 0 1 .3.7.6-.4.4-1.3.2-2-.4-.8-.7-1.8-.8-2.2-.4-.5.4-.5.1-.1-.6s1.1-1 1.5-.8c.4.3 1.3.1 2.1-.5 2.3-1.4 2.7-1 .6.6zm29.4-.5c0 .5-.5 1-1.1 1-.5 0-.7-.5-.4-1 .3-.6.8-1 1.1-1 .2 0 .4.4.4 1zm-3.6 2.2c-.3.4-.9.8-1.5.8-.5 0-.9-.4-.9-.8 0-.5.7-.9 1.5-.9s1.2.4.9.9zm-3.4 1.9c0 .6-.4.7-1 .4-.5-.3-1-1.1-1-1.6 0-.6.5-.7 1-.4.6.3 1 1.1 1 1.6zm-3.6.7c.3.5-.1.9-.9.9s-1.2-.4-.9-.9c.3-.4.7-.8.9-.8.2 0 .6.4.9.8zm-114 4.1c.3.5-.2.8-1.2.7-1.1-.1-1.6.5-1.4 1.6.3 1.8-.9 2.4-2.1 1.1-.8-.7 2.1-4.3 3.4-4.3.4 0 1 .4 1.3.9zm7.7.8c1.3 1.6 1.2 1.7-.3.4-1-.7-1.8-1.5-1.8-1.7 0-.8.8-.3 2.1 1.3zm4.3.2c-1 1-2.1 1.6-2.4 1.4-.3-.3.4-1.1 1.4-1.9 2.8-2 3.3-1.7 1 .5zm9.6-.2c0 .3-.7.2-1.6-.1-1.2-.5-1.4-.1-1 1.7.3 1.2.3 1.7 0 1s-1.1-1-1.8-.7c-.8.3-1.6-.2-2-1.1-.3-.9-.2-1.4.2-1.1.4.2 1.4.1 2.2-.4 1.3-.8 4-.3 4 .7zm-89.5.3c.3.5-.1 1-1 1s-1.3-.5-1-1c.3-.6.8-1 1-1 .2 0 .7.4 1 1zm30.7 2.2c-.3 1.8-.7 2.6-1 1.8-.8-2.6-4.4-4.2-3.8-1.8.1.7.1 1-.1.5-.3-.4-.8-.5-1.2-.3-.4.3-.8-.1-.8-.9 0-.9 1-1.2 2.9-1 1.5.2 2.8 0 2.8-.5 0-.6.4-1 .8-1 .5 0 .6 1.5.4 3.2zm30.1-1.9c.4-.3.7-.1.7.6s-1 1-2.5.7c-1.4-.3-2.5 0-2.5.5s-.7.9-1.6.9c-1.2 0-1-.5.7-1.9 1.5-1.2 2.8-1.6 3.5-1 .6.5 1.4.6 1.7.2zm-55.3.6c0 .5-.7 1.2-1.6 1.5-1.4.5-1.5.4-.4-.9 1.4-1.7 2-1.9 2-.6zm7.3 1.5c-.4 2-.8 2.2-1.8 1.3-1-.9-.9-1.4.4-2.4.9-.7 1.7-1.3 1.7-1.3.1 0-.1 1.1-.3 2.4zm8.1-.5c-.2.2.5 1 1.6 1.8s2 1.8 2 2.4c0 .5-.9 0-2-1.1-1.2-1.2-2.5-1.8-3-1.5-.6.4-1 0-1-.7 0-.9-.3-.9-1 .2-.6.9-1 1.1-1 .3 0-.7-.7-1-1.7-.7-1.2.4-1.4.3-.6-.3 1.2-.9 7.6-1.2 6.7-.4zm55.1 1.1c-.3.5-1.2 1-1.8 1-.7 0-.6-.4.3-1 1.9-1.2 2.3-1.2 1.5 0zm-67.5.4c0 .3-.4.8-1 1.1-.5.3-1 .1-1-.4 0-.6.5-1.1 1-1.1.6 0 1 .2 1 .4zm349.8 40.7c.9-.5 6.7-.7 6.7-.1 0 .1 1.2.3 2.7.4 1.4.1 2.4-.2 2.2-.6-.2-.4.4-.6 1.5-.5 1.5.1 1.7.4.9 1.4-1.5 1.9.2 1.6 2.5-.5 2-1.6 2-1.6 1.4.8-.5 2.2-.5 2.3.7.7 1.5-2 3-2.3 2.3-.4-.3.9.4 1.2 2.3 1.1 1.8-.1 3.6.6 4.6 1.7.9 1 1.3 1.9.8 1.9s-.3.4.5.9c1.9 1.2 2.3 4.1.5 3.4-.8-.3-1.4-1-1.4-1.6 0-.6-.3-.7-.6-.4-.4.4-.1 1.3.6 2.2 1.1 1.3 1 1.4-.4.9-.9-.3-1.7-1.6-1.7-2.8-.1-2-.2-2-.6-.1-.6 2.3-2.3 4.5-2.3 2.8 0-2.2-3.9-2.1-5.5.1-1.6 2.1-1.6 2.1-1-.4.4-1.7.3-2.1-.3-1.2-.7 1.1-1.8 1.1-4.6.3-3.4-.9-3.6-.8-2.4.7.7.8.8 1.3.2.9-2.3-1.3-6.9-3-7.8-2.8-1.7.4-5.5-2.2-4.9-3.3.4-.7.1-.6-.7.1-.7.6-1.9.9-2.8.6-1-.4-1.3-.2-.8.5 1 1.7-.8 2.1-2.9.6-1-.8-1.3-1.4-.7-1.4.7 0 1.2-.4 1.2-1 0-.5-.7-.7-1.5-.4-1.1.5-1.5-.1-1.5-1.9 0-2.5 1.2-2.9 3.6-1.4.7.4 1.7 0 2.4-.8.8-1 1.8-1.1 3.4-.5 1.3.4 2.8.5 3.4.1zm-19.8.8c0 .6-.4 1.2-.8 1.5-.5.3-.9-.1-.9-.9s.4-1.5.9-1.5c.4 0 .8.4.8.9zm49.5 2.1c-.3.5-.1 1 .4 1 .6 0 1.1-.6 1.2-1.3 0-.6.5-.1 1.1 1.3 1.6 3.8 1.7 4.9.5 5.7-.7.3-.9.3-.6-.1.4-.4-.4-1.9-1.7-3.3-2-2.2-2.4-4.3-.8-4.3.3 0 .2.4-.1 1zm-45.1.6c2 .8 2 2 0 2.8-.9.4-1.3.2-.8-.5.4-.6 0-1.5-.7-2-1.6-1-.8-1.2 1.5-.3zm52 1.9c-.4.8-.8 1.5-1 1.5-.2 0-.4-.7-.4-1.5s.4-1.5 1-1.5c.5 0 .7.7.4 1.5zm-54.7 1.7c-.3.8-.6.5-.6-.6-.1-1.1.2-1.7.5-1.3.3.3.4 1.2.1 1.9zm59.9 0c-1.2 2-3.8 2-4.2 0-.1-.7 0-.8.3-.2.7 1.5 2.6 1.2 2-.3-.3-.7.3-1.3 1.3-1.3 1.4 0 1.5.4.6 1.8zm-20.1 4.6c-.3.3-1.1 0-1.8-.7-.9-1-.8-1.1.6-.5 1 .3 1.5.9 1.2 1.2zM65.5 323c.3.5.1 1-.4 1-.6 0-1.1-.5-1.1-1 0-.6.2-1 .4-1 .3 0 .8.4 1.1 1zm257.2 11.7c.3.7-.3.9-1.6.6-1.2-.3-2.1-1-2.1-1.5 0-1.3 3.2-.6 3.7.9zm4.8-.7c-.3.5-1.4 1-2.3.9-1.4 0-1.3-.2.3-.9 2.7-1.1 2.7-1.1 2 0zm-12.6 1.4c.9 1.1.7 1.3-1.1 1.1-3-.3-3-.3-2.3-1.5.9-1.4 2-1.3 3.4.4zm60.5 16.2c.3.8.2 1.2-.4.9-.6-.3-1-1-1-1.6 0-1.4.7-1.1 1.4.7zm-19.9 2.4c.3.6-.1.7-.9.4-1.8-.7-2.1-1.4-.7-1.4.6 0 1.3.4 1.6 1zm9.8.1c-1.3 1.3-.6 4.2.8 3.3.5-.3.6-1.1.3-1.7-.4-.7-.3-.8.1-.4 1.2 1 1.5 3.8.4 3.1-.5-.3-.9.1-.9.8-.1.7-.7.2-1.5-1.2-1.2-2.3-.5-5 1.3-5 .3 0 .1.5-.5 1.1zm-45 1.6c-.4 1.1-.3 1.4.5.9 1.1-.6 1.6.5 1.3 2.6-.1.7 3.3.3 4.7-.6.5-.3.9 0 .9.7s.4 2.1.7 3.2c.6 1.8.6 1.8-.9-.2-1.4-1.8-2-2-4.1-1.1-1.3.6-2.1 1.5-1.7 2.1.3.6.1.7-.6.3-.6-.4-.8-1.2-.5-1.8.5-.7.2-.9-.8-.5-2.3.8-3.1-3.3-1.1-5.5s2.4-2.3 1.6-.1zm18.3 1c-.6.6-3.6-.9-3.6-1.8 0-.5.9-.4 2 .3 1 .7 1.8 1.4 1.6 1.5zm6.4-2.3c0 .2-.8 1-1.7 1.7-1.6 1.3-1.7 1.2-.4-.4 1.3-1.6 2.1-2.1 2.1-1.3zm8.6 2.5c1.6-.4 4.4 1.3 3.8 2.2-.7 1.2 1 1.1 2.2-.1 1.4-1.4 4.4-.2 4.4 1.8 0 1.2.3 1.3 1.2.4 1.3-1.3 4.2-1.7 3.5-.5-.3.5.5.8 1.8.8 1.7 0 2.2-.5 1.9-1.8-.1-1 .1-1.5.7-1.2.5.4.9 1.3.9 2.1 0 2 .8 1.8 3.5-1.2 1.7-1.8 2.5-2.2 2.5-1.2 0 1.7 2.5 1.7 5.8 0 1.2-.7 2.2-.9 2.2-.5 0 .5 1.5 1.4 3.3 2.1 2.9 1 3 1 1.3-.3-1.1-.8-1.5-1.5-1-1.5.6 0 2.1 1.1 3.3 2.4 2.2 2.4 5.8 2.9 5.4.8-.2-.6.4-.9 1.2-.6.8.4 1.2 1 .9 1.5-.3.5.1.9.8 1 5 .2 9.4 1.1 9.6 1.9.2.6.8 1 1.3 1 .6 0 .7-.5.3-1.2-.4-.7-.3-.8.4-.4s1.8.4 2.5-.1c2.1-1.3 4.9-1.4 4.1-.1-.5.8 0 .9 1.4.6 1.2-.4 2.5-.2 2.8.3.3.5.9.7 1.4.4 1-.6 2 3.2 1.3 5.1-.3.8-1.5 1.4-2.7 1.5-1.1 0-3.1.2-4.3.5-1.6.3-2.3-.1-2.3-1.1 0-.9-.9-1.5-2.5-1.5-1.4 0-2.5.4-2.5.9s.9.7 2 .4c1.1-.3 2 0 2 .6s-1.3.9-3 .7c-1.7-.2-3 .1-3 .8 0 .6-.4.5-.9-.2-.9-1.5-9.1-2.3-9.1-1 0 .5-.5.8-1.1.8-.6 0-.8-.7-.5-1.5.8-2.1-2-3.1-3.9-1.5-.8.7-1.5.9-1.6.4 0-.5-.4 0-.9 1.1-.6 1.3-.9 1.5-.9.5-.1-.9-1.1-1.5-2.8-1.6-3.5-.1-6.5-.7-8-1.7-.9-.6-1.1-.3-.7 1 .5 1.6.3 1.5-1.1-.2-1.3-1.7-1.7-1.8-2.5-.6-.7 1.2-1.1 1.2-2.4.2-.9-.8-1.6-.9-1.6-.4 0 1.4-6.4 1-8-.6-1.3-1.3-1.5-1.2-1.8.2-.4 1.8-2.1 2.3-2.3.7-.2-1.5-.5-2.3-1.8-5l-1.1-2.5.5 2.7c.3 1.7.1 2.8-.5 2.8s-.8.5-.4 1.2.3.8-.4.4-1.2-1.5-1.3-2.4c0-1-.5-.5-1.1 1.1-.8 2.4-1.2 2.6-2.6 1.5-1.3-1.1-1.5-1-.9.5.4 1.1.3 1.6-.3 1.2-.6-.3-1-1.2-1-2s-.4-1.7-1-2c-.5-.3-.7 0-.4.8.3.8-.1 1.9-.9 2.5-1.2 1-1.3.7-1-1.5.3-2.1.2-2.4-.5-1.4-.9 1.3-1.3 1.3-2.8 0-1.2-.9-1.5-1-1-.1.6.9.1 1.1-1.8.8-3.4-.6-4.6-1.4-4.6-3.2 0-.8-.7-1.4-1.5-1.4-2.6 0-1.5-4.6 1.2-4.8 1.2-.1 2.6-.2 3-.3.4-.1 1.5-.1 2.3 0 1.3.1 1.3.2 0 1.1-1.3.8-1.3 1 .2 1 .9 0 1.9-.6 2.1-1.3.4-.9.8-.9 1.5.2.9 1.2 1.3 1.3 2.6.1 1.4-1.1 1.6-1 .9.5-.5 1.4-.3 1.7 1 1.2 1-.4 1.7-.1 1.7.6 0 .8.4.7 1-.3 1.5-2.4-1.7-5.2-4.4-3.9-2 1-2 1-.2-.5 1.4-1.1 2.3-1.3 3.2-.5.6.5 1.6.9 2 .8zm-51 1.1c0 1.2-.4 1.6-.9 1.1s-.6-1.4-.3-2c1-1.5 1.2-1.4 1.2.9zm-17.6 0c0 .5-.4 1-1 1-.5 0-1-.5-1-1 0-.6.5-1 1-1 .6 0 1 .4 1 1zm47.4.2c-.5.7-.7 2.6-.7 4.3l.2 3-1.4-3c-1.2-2.6-1.2-3.2.3-4.3 2-1.5 2.5-1.5 1.6 0zm-20.7 1.7c0 1.1-.5 1.8-.9 1.5-.4-.3-.5-1.1-.1-1.9.7-2.1 1.2-1.9 1 .4zm-5.2 2.1c.3.6-.1.7-.9.4-1.8-.7-2.1-1.4-.7-1.4.6 0 1.3.4 1.6 1zm19.9 1.6c.3.8.2 1.2-.4.9-.6-.3-1-1-1-1.6 0-1.4.7-1.1 1.4.7zm9.6 1.4c0 .5-.7 1-1.6 1-.8 0-1.2-.5-.9-1 .3-.6 1-1 1.6-1 .5 0 .9.4.9 1zm678 0c.3.1.9.2 1.3.1.5-.1.6.3.2.9-.3.6-1.2.7-1.8.3-2.2-1.3-3.9-1.2-3.3.3.3.8.1 1.4-.4 1.4-1.1 0-1.4-2.3-.4-3.2.5-.5 2.8-.4 4.4.2zm-579.7 4.8c.4-1 .7-1 1.8.1.9.9.9 1.1.2.7-.7-.4-1.3-.2-1.3.3 0 .6.7 1.1 1.5 1.1s1.9.8 2.4 1.8c.7 1.4.6 1.8-.9 1.8-1.4 0-1.6-.3-.8-1.3s.7-1.2-.6-.7c-.9.3-1.6 1-1.6 1.5s-.8.9-1.7.8c-1.1 0-1.3-.3-.5-.6.6-.2 1.2-.9 1.2-1.4 0-.4-.6-.6-1.2-.4-.8.3-1.3-.4-1.3-1.9 0-1.7.3-2.2 1.2-1.5.7.7 1.3.5 1.6-.3zm68 3.2c.3 1.1.1 1.8-.3 1.5-.5-.3-1.1-.1-1.5.5-1 1.6-2.5 1.2-2.5-.8 0-1.3.2-1.4.9-.4.7 1.1.9 1.1 1.4-.1.8-2.1-2.3-1.5-3.5.6-.5 1-.6 2.2-.2 2.9.4.6.3.8-.4.4-.6-.3-.9-1.9-.7-3.4.2-1.5.4-3.1.4-3.5.1-.5.5-.6 1-.2.5.3 1.3.1 1.6-.5.9-1.4 3.1.4 3.8 3zm-42.6.7c-.3.3-1.1.2-1.7-.2-.9-.6-.9-1 .1-1.6 1.4-.8 2.7.7 1.6 1.8zm29.7-.4c-.1.9.2 1.4.7 1.1.5-.3.9.2.9 1s.6 1.6 1.3 1.9c.6.2.4.3-.5.2-.9-.2-2.5.3-3.4.9-1.5 1.1-1.4 1.4.9 2.9 1.9 1.2 2.8 1.4 3.3.5.5-.7.3-.8-.6-.3-.8.5-1.1.4-.7-.2.4-.6 1.7-1.3 2.9-1.5 1.8-.3 2.3 0 2.4 2 .2 1.6-.2 2.2-1.2 1.8-.8-.3-1.4-.1-1.4.3 0 .5-1.1.8-2.4.7-1.3 0-2.2-.3-2-.5 1-1-1.9-2.8-3.8-2.3-1.4.3-1.9.1-1.4-.6.4-.7.2-1.2-.3-1.2-.6 0-1.1.4-1.1 1 0 .5-.7.7-1.5.4-.8-.4-1.3-1-1-1.4.3-.5.1-1.1-.5-1.5-.5-.3-1 0-1 .7 0 .9-.3.9-1-.2-.8-1.3-1-1.3-1-.1 0 1.1-.3 1.2-1.1.4-.7-.7-.9-1.9-.5-2.9.6-1.6.7-1.6 1.9 0s1.5 1.6 2.6.3c.8-1 .9-1.7.1-2.2-.5-.3-1 0-1 .7 0 .8-.5.6-1.1-.5-.6-.9-1.5-1.4-2.1-1.1-.7.4-.8.2-.4-.5.6-.9 1.1-.9 2.2 0 .9.7 1.4.8 1.4.1 0-1.8 4.3-.9 4.8 1 .2 1 .9 1.8 1.4 1.8.6 0 .8.7.4 1.5-.4 1.2-.2 1.3 1.4.2 1.1-.6 1.8-1.8 1.5-2.5-.3-.8-.5-1.8-.5-2.3 0-.6-.4-.8-.9-.4-.5.3-1.2.1-1.5-.3-.3-.5.5-.9 1.7-.8 1.4.1 2.2.7 2.1 1.9zm5.3 1.1c-.2.5-.9 1.2-1.5 1.4-.8.2-1-.3-.5-1.4.4-1.2.3-1.5-.5-1-.7.4-1.2.1-1.2-.8 0-1.4.3-1.4 2-.4 1.1.7 1.9 1.7 1.7 2.2zm21.8-2.4c.3.5-.1 1-1 1s-1.3-.5-1-1c.3-.6.8-1 1-1 .2 0 .7.4 1 1zm-107.5.4c0 .2-.8 1-1.7 1.7-1.6 1.3-1.7 1.2-.4-.4 1.3-1.6 2.1-2.1 2.1-1.3zm118 1.2c1.1 1.2 1 1.8-.4 3.2-1.4 1.4-1.8 1.5-2.5.3-.9-1.5-.3-5.1.9-5.1.4 0 1.3.7 2 1.6zm-11 1.5c0 .5-.5.9-1.1.9-.6 0-.9.6-.6 1.2.2.7 1 1.2 1.6 1 1.3-.2 1.3 0 .5 2.2-.3.9-1 1.3-1.5 1-.5-.3-.9-.1-.9.4s.9 1.2 2 1.5c1.1.3 2 .1 2-.4s.7-.9 1.6-.9c.8 0 1.2-.4.9-1-.3-.5-.2-1.7.3-2.6.8-1.4 1-1.4 2.6.2 1.4 1.3 1.5 1.9.4 2.5-.8.5-.3.7 1.5.5 1.5-.1 3-.6 3.5-1.1.4-.4.1-.5-.5-.1-.7.4-1.3.2-1.3-.4 0-.6-.6-.8-1.2-.5-.7.4-.4 0 .6-.9 1-.8 2.4-1.3 2.9-.9.6.4.8 0 .5-.9-.4-.8 0-1.5.7-1.5 1 0 1.1.5.4 1.8-1 1.9.5 3.7 1.6 1.9.4-.6 1.1-.8 1.6-.5.5.3.6 0 .4-.7-.4-.9.2-1.4 1.5-1.5 1.3-.1 1.8.2 1.4.9-.5.7-.2.9.9.5.9-.3 1.8.1 2.2 1.1.5 1.3.8 1.4 1.4.3.5-.7 1.3-1.1 1.7-.8.5.3 3.2-.1 5.9-.8 4.3-1 5.3-1 7.3.3 1.5 1 5.7 1.6 12.5 1.9 5.6.2 10.7.4 11.2.4.6 0 2-.2 3.3-.5 1.2-.2 2.2-.1 2.2.3s1.2.7 2.8.7c1.5-.1 3.3.3 4 .8.6.4 1.2.5 1.2.2 0-.4.9-.2 2.1.4 1.5.9 2.4.8 3.5-.1 1.3-1 1.7-1 2.5.2.7 1.2.9 1.2.9-.1 0-.9.3-1.1.8-.5.4.5 1.8 1.2 3.2 1.3 2.2.4 2.3.2 1-1.5-1.4-1.7-1.4-1.7.5-.3 1.1.7 2.6 2.1 3.3 2.9 1.1 1.4 1.4 1.4 2.2.1.7-1.1 1-1.1 1-.2 0 .9.5 1 1.9.2 2.5-1.3 3.4-1.3 2.6 0-.3.5-.1 1 .4 1 .6 0 1.1-.6 1.1-1.3 0-.8.3-.9.8-.1.8 1.3 4 1.2 6.1-.1.9-.5 1.2-.4.8.2-.4.6.7 1 2.6 1.1 1.8.1 4.7.3 6.6.6 1.9.2 4.5 0 5.8-.5 1.5-.6 2.3-.5 2.3.2s1 .9 2.6.5c1.9-.5 3-.2 4.1 1.1 1.4 1.7 1.4 1.7.9 0-.3-.9-.1-1.7.4-1.7.6 0 1 .6 1 1.2 0 .7.7.4 1.6-.7 1.5-2 1.5-2 3.5.5 1.2 1.4 1.8 1.9 1.4 1.2-.4-.7 0-1.2 1.1-1.2s1.5.6 1.1 2c-.3 1.1-.1 2 .4 2s.9-.6.9-1.3c0-.6.9-.1 2 1.3 1.3 1.7 2 2 2 1 .1-1.1.4-1 1.5.4 1.1 1.5 1.5 1.6 1.5.5 0-2.4 2.1-4 3.7-2.8 1 .9 1.3.8 1.3-.2 0-.8.5-.5 1.4.6 1.2 1.6 1.6 1.7 3 .6.9-.7 1.6-1 1.6-.7 0 .4 1 .2 2.1-.5 1.2-.6 1.9-.7 1.6-.1-1 1.5 3.8 3.3 5.2 1.9.8-.8 1.4-.8 2.3.1.8.8.9 1.2.1 1.2-.6 0-.9.8-.6 1.9.5 2-2.2 3.7-3.2 2.1-1.1-1.8-3.3-1.1-2.8.9.7 2.7-1.5 3.6-3.8 1.5-1.6-1.4-2-1.5-1.7-.4.4 1.7-2.7 2.1-5.6.7-1.2-.6-1.6-.5-1.2.1.3.5-.3 1.2-1.5 1.5-1.6.4-1.8.3-.8-.9.9-1.1.8-1.5-.6-2-1-.4-2.1-.1-2.6.7-.5.8-.9 1-.9.5 0-.6-.7-.1-1.6 1-1.3 1.6-1.5 1.6-1 .1.3-.9.1-1.7-.4-1.7-.6 0-1 .4-1 .9 0 1.1-1.9.9-3.9-.3-1-.6-1.2-.5-.7.2.4.7.3 1.2-.3 1.2-.5 0-1.2-.4-1.6-.9-.3-.6-1.9-.2-3.8.8-3.5 2.1-10.2 2.7-9.1.9.4-.6.2-.8-.4-.4-.5.3-1.2.1-1.4-.6-.3-.7-.7-.5-1.1.6-.5 1.1-.3 1.5.5 1 .7-.5.8-.3.3.6-.6 1-1.1.9-2.1-.5-1.5-2-8.4-3.2-8.4-1.5 0 .5-.5 1-1.1 1-.5 0-.7-.4-.4-1 .3-.6-.1-.7-.9-.4-.9.3-1.6.9-1.6 1.3s-1.1.7-2.4.7c-1.5 0-2.2-.5-1.9-1.2.3-.7 1.2-1 2.1-.7.9.4 1.4.3 1.1-.1-.4-.4-2.5-.9-4.8-1.1-3.1-.3-4-.1-3.4.8.4.8.1.8-1-.1-.9-.8-3.4-1.2-5.7-1.1-2.8.2-4.4-.1-5-1.1-.8-1.2-1-.9-1.1 1-.2 2.3-.2 2.3-.6.3-.3-1.4-.9-2-1.8-1.7-.8.3-2.8-.1-4.5-.9-1.6-.9-3-1.1-3-.7 0 .5-1 .6-2.2.1-1.6-.6-3.1-.3-4.8.8-1.3.9-2.1 1.1-1.7.4.9-1.4-1.6-2.2-6.3-1.9-1.9.1-3.8-.3-4.2-.8-.5-.7-.8-.6-.8.2 0 .7-.4 1-1 .7-.5-.3-1-.1-1 .5 0 .7-.6.8-1.9 0-1.4-.7-2.2-.7-2.7.1-.4.8-.9.8-1.7 0-.7-.7-1.5-.7-2.6.2-1.1.9-1.3.9-.8 0 .4-.6.3-1.4-.3-1.8-.5-.3-1 .1-1 1s-.5 1.3-1 1c-.6-.4-.8-1-.5-1.5.5-.8-5.2-.6-13.9.4-3 .4-5.3.2-6.2-.5-1.1-.9-1.4-.9-1.4 0 0 .7-.5.9-1 .6-.6-.4-.8-1-.5-1.5.3-.5 0-1.2-.6-1.6-.7-.4-.9-.3-.5.4.4.6-.1 1-1.3.9-1.2-.1-1.7-.6-1.3-1.6.4-1 .1-1.3-1.2-.8-1.1.4-1.9.1-2.3-.9-.5-1.3-.7-1.3-1.4-.2s-1.1 1-1.9-.2c-.6-1-1-1.1-1-.3 0 .7-1 1.3-2.2 1.3-1.2 0-3.7-.6-5.6-1.3-2.9-1-3.6-1-4 .1-.3 1-.7 1-1.8.1s-1.1-1.5-.3-2.5c1.2-1.4 1.1-1.6-1.8-1.8-1-.1-2.4-.5-3-.9-.9-.6-1.3-.2-1.3 1.2 0 1.3-.6 2.1-1.7 2.1-1.5 0-1.6-.2-.3-1 1.2-.7 1-.9-.7-.7-2.5.1-2 1.4 1.1 2.8 1.8.8-.7.8-6.1-.1-.2 0-.3-.7-.3-1.6 0-.8-.4-1.2-1-.9-.5.3-.7 0-.5-.8.4-.9 1.6-1.2 3.8-.9 3 .5 3.1.4 1.7-1.4-1.4-1.8-1.4-1.8.3-.5 1.5 1.2 2.2 1.2 3.9.2 1.4-.9 2.3-.9 3.2-.1 1 .8 1.3.5 1.1-1.4-.2-1.4-.6-3-1-3.5-.3-.6-.2-1.1.4-1.1.6 0 .8-.6.5-1.4-.4-1.1 0-1.3 1.5-.9 1.2.3 2.1.9 2.1 1.4zm6-1.7c0 .2-.8 1-1.7 1.7-1.6 1.3-1.7 1.2-.4-.4 1.3-1.6 2.1-2.1 2.1-1.3zm-59.6 2.1c-.7 1.6-2.4 2.1-2.4.6 0-.8.7-1.3 2.7-2 .1-.1 0 .6-.3 1.4zm3.9-.8c-1.8.7-1.6 2.3.2 2.3.8 0 1.5-.8 1.5-1.8 0-1.4.2-1.5 1-.2 1.3 2 1.3 3.3 0 2.5-.5-.3-1-.2-1 .3 0 1.4-2.9 1-3.5-.6-.6-1.7.2-3.2 1.8-3.1.9 0 .9.2 0 .6zm6.4 1.8c0 .8-.4 1.2-.9.9-.4-.3-.8-.9-.8-1.5 0-.5.4-.9.8-.9.5 0 .9.7.9 1.5zm37 0c0 .8-.4 1.2-.9.9-.5-.3-.6-1-.3-1.5.9-1.3 1.2-1.1 1.2.6zm-21.7 6.9c0 .2-.7.7-1.6 1-.8.3-1.2.2-.9-.4.6-1 2.5-1.4 2.5-.6zm211 11.1c0 .8-.2 1.5-.4 1.5s-.6-.7-1-1.5c-.3-.8-.1-1.5.4-1.5.6 0 1 .7 1 1.5zm-119 2c0 .2-.7.5-1.5.9-.9.3-1.5 0-1.5-.9s.6-1.2 1.5-.9c.8.4 1.5.7 1.5.9zm473.1 3.8c-.1 1.2-1.5.9-1.9-.4-.3-.6.1-1 .8-.8.6.3 1.1.8 1.1 1.2zm12.9 1.9c0 1.5-1.5.8-2.8-1.2-1.2-1.9-1.1-2 .8-.8 1.1.7 2 1.6 2 2zm-176 3c0 2.1-2.5 3.5-4.8 2.7-1.3-.5-2.8-.7-3.3-.3-.5.3-.9.3-.9 0 0-.2-.3-1.2-.6-2.1-.6-1.4.1-1.6 4.5-1.4 2.8.2 5.1.6 5.1 1.1zm15-.2c0 .5-.2 1-.4 1-.3 0-.8-.5-1.1-1-.3-.6-.1-1 .4-1 .6 0 1.1.4 1.1 1zm-29.9.9c-.7.5-1 1.4-.7 2 .8 1.2.7 1.2-4.1 1.6-1.8.1-3-.1-2.8-.6.3-.4 1.6-.6 3-.5 1.4.2 2.2-.1 1.8-.7-.6-1 1.4-2.7 3.2-2.7.6 0 .4.4-.4.9zm33.1.8c-1.1.4-1.1.7 0 1.7.7.6 1.1 1 .9.9-.2-.1-1.3.3-2.5.9-1.8 1-1.9.9-.9-.4.7-.8 1-1.8.6-2.2-.4-.4-.1-1.1.7-1.6.8-.5 1.7-.6 2-.3.3.3-.1.8-.8 1zm-30.2 2.1c-.6.2-.8.8-.4 1.3.3.5 0 .9-.5.9-1.2 0-1.5-3.3-.4-4.3.4-.4 1-.2 1.4.5.5.7.4 1.5-.1 1.6zm122-2.4c0 1.1-1.9 1.5-2.5.6-.3-.5.1-1 .9-1 .9 0 1.6.2 1.6.4zm-96 3.5c-.6 1.2-.8 2.7-.4 3.4.5.8.2.8-.9-.1-1.4-1.2-1.5-1.6-.2-2.9.8-.8 1.5-1.9 1.5-2.5 0-.6.3-.9.6-.6.3.4.1 1.6-.6 2.7zm-20.8-.7c-1.2 1.2-4.2 2-4.2 1.2 0-.4 3.8-2.2 5-2.3.2-.1-.1.4-.8 1.1zm18.8-.8c0 .2-.8 1-1.7 1.7-1.6 1.3-1.7 1.2-.4-.4 1.3-1.6 2.1-2.1 2.1-1.3zm-37 1.5c0 .6-.5 1.3-1.2 1.7-.7.5-.8.3-.3-.6.6-1 .4-1.2-.9-.7-1 .4-1.5.3-1.1-.3.8-1.3 3.5-1.3 3.5-.1zm57.1 4.4c0 .7.4.3.9-.8.7-1.6.9-1.4.7 1.2l-.1 3.3-2.8-3.1c-1.5-1.6-2.8-3.2-2.8-3.5 0-1.1 4 1.8 4.1 2.9zm-46.6-1.3c.3.5.1 1-.4 1-.6 0-1.1-.5-1.1-1 0-.6.2-1 .4-1 .3 0 .8.4 1.1 1zm51.5 2c0 1.2.5 1.7 1.4 1.4.8-.3 1.7 0 2.2.7.5.8.3 1-.6.4-.8-.5-1.1-.3-.9.4.3.7.9 1.3 1.4 1.3.6 0 1.6.5 2.4 1.1 1.2 1 1.3.7 1-1.9-.5-2.8-.3-3 2.4-2.6 2.2.4 2.8.9 2.4 2.3-.3 1.2 0 1.9.9 1.9 1.9 0 1.8 1.4-.2 3-1.2 1.1-1.5 1.1-1.2 0 .2-.7-.4-1.5-1.2-1.7-1-.3-1.1-.2-.3.4 1.5 1.1 0 3.8-1.6 2.9-.6-.4-.9-1.1-.6-1.6.3-.5-.7-1.2-2.2-1.6-4.2-1-9.7-8.4-6.3-8.4.6 0 1 .9 1 2zm-46.6-.2c.3.5-.1.9-.9.9s-1.2-.4-.9-.9c.3-.4.7-.8.9-.8.2 0 .6.4.9.8zm39.6.2c0 .5-.4 1-1 1-.5 0-1-.5-1-1 0-.6.5-1 1-1 .6 0 1 .4 1 1zm-3.5 4c.3.6-.1.7-.9.4-1.8-.7-2.1-1.4-.7-1.4.6 0 1.3.4 1.6 1zm27.5 3.1c0 .6-.4.7-1 .4-.5-.3-1-1.1-1-1.6 0-.6.5-.7 1-.4.6.3 1 1.1 1 1.6zm14 .4c0 .2-.6.8-1.3 1.4-1 .8-1.4.7-1.4-.2 0-.8.6-1.4 1.4-1.4.7 0 1.3.1 1.3.2zm13 1c0 .8.8 1.5 1.8 1.6 1.1.1.8.4-.8.8-3.2.9-6.3-.8-4.8-2.6 1.4-1.8 3.8-1.6 3.8.2zm12.7 2c.1 1.1-.1 1.4-.4.7-.3-.6-.8-1-1.2-.7-.5.2-1.6-.1-2.5-.8-1.4-1.1-1.3-1.2 1.2-1.2 2.1-.1 2.8.4 2.9 2zM869.3 428c-.7.8-2.2-2.4-1.6-3.4.4-.5 1-.1 1.3 1 .4 1 .6 2.1.3 2.4zm79.7-3c0 .5-.5 1-1.1 1-.5 0-.7-.5-.4-1 .3-.6.8-1 1.1-1 .2 0 .4.4.4 1zm40-.5c0 .2-.9.9-2 1.5-1.2.6-2 .7-2 .1 0-.5.8-1.2 1.8-1.4.9-.3 1.8-.5 2-.6.1 0 .2.1.2.4zm45.4 1.1c.3.8.2 1.2-.4.9-.6-.3-1-1-1-1.6 0-1.4.7-1.1 1.4.7zm-39.4-.2c0 .2-.7.7-1.6 1-.8.3-1.2.2-.9-.4.6-1 2.5-1.4 2.5-.6zm18 2.8c0 .4-.6.5-1.4.2-.8-.3-1.2-1.2-.9-2.1.5-1.2.7-1.2 1.4-.1.5.7.9 1.6.9 2zm-34-1.8c0 1.1-1.9 1.5-2.5.6-.3-.5.1-1 .9-1 .9 0 1.6.2 1.6.4zm21 2.4c-.6.2-.8.7-.6 1.1.3.4-.3.7-1.3.7s-1.8-.6-1.8-1.3c0-.7.4-1 .8-.8.4.3 1-.3 1.3-1.2.6-1.5.8-1.5 1.6-.3.6.9.6 1.6 0 1.8zm7.4-2.2c1.8.7 1.2 2.4-.8 2.4-.7 0-1.3-.7-1.3-1.5 0-1.7 0-1.7 2.1-.9zm13.4 1.3c.4 1.1.6 1 1.3 0 .7-1.1.9-1.1.9.2 0 2.3-4.8 3.1-6 1-.5-.9-1-1.2-1-.8 0 .5-.5.5-1.1.1-.8-.5-.8-.8 0-1.4 1.8-1 5.4-.5 5.9.9zm-403 36.6c-.3.3-.9-.2-1.2-1.2-.6-1.4-.5-1.5.5-.6.7.7 1 1.5.7 1.8zM354.4 468c.5.5 2.2.6 3.7.3 2-.4 2.9-.1 2.9.7 0 .7.8 1 2 .7 1-.3 2.2 0 2.5.7.4.8.7.8 1.1-.1.4-.9 1.1-.7 2.7.7 1.6 1.5 2.3 1.7 2.9.8.4-.8.8-.9.8-.2 0 .6 1.3.9 3 .6 3-.4 3.1-.3 2.5 2.4-.5 2.2-.4 2.5.4 1.4.9-1.3 1.1-1.3 1.1.2 0 1 .5 1.8 1.1 1.8.5 0 .7-.5.3-1.1-.4-.8-.1-.8 1.2-.1 3.4 1.9 5.9 4 5.3 4.6-.3.3-1.5-.3-2.7-1.4-1.5-1.4-2.2-1.7-2.2-.7 0 .7 1.6 2.1 3.6 3 1.9 1 3.3 1.3 2.9.7-.3-.5-.1-1 .5-1s.8-.6.4-1.3c-.4-.7-.3-.9.2-.4s.9 1.4.9 1.9c0 .6.6 1.3 1.3 1.5.6.3 1.2-.1 1.2-.9 0-1 .3-.9 1 .2.8 1.3 1 1.2 1-.4 0-1.5.3-1.6 1.5-.6.8.7 2.4 1 3.5.7 1-.3 1.8 0 1.7.5-.1.5.6 1.5 1.6 2.1 1.4 1 2 .9 2.7-.3.7-1.1 1-1.1 1-.2 0 .9.7 1.1 2.2.6 2.1-.6 2.1-.6.5 1-.9 1-1.7 2.3-1.7 2.9 0 .8.3.9.8.1.4-.6 1.4-1.3 2.3-1.6 1.1-.4 1.5 0 1.4 1.5-.1 1.6-.8 2.2-2.6 2.2s-2.5-.7-3-3c-.6-2.6-.7-2.7-.8-.6-.1 2.4-.1 2.4-1.6.5-1.1-1.3-1.3-1.4-.9-.3.4 1.4-.4 1.7-5.7 1.8-3.4.1-6.7-.3-7.3-.8-1.4-1.2-6.6-.9-6.6.3 0 .6-.7.1-1.5-1-.8-1-1.5-1.4-1.5-.7 0 .9-.8.9-3.2.1-1.8-.5-5.3-1.1-7.8-1.3-2.5-.2-4.5-.5-4.5-.5 0-.1-2.1-.2-4.7-.3-2.6 0-4.5-.4-4.2-.9.3-.4 0-.8-.5-.8-.6 0-1.1.4-1.1.9 0 1.2-3.3.9-4.2-.4-.5-.6-.8-.5-.8.4 0 1.1-.3 1.1-1.6 0-1.3-1-1.7-1-2.5.2-.5.8-.9.9-.9.3 0-.7-.7-1.5-1.6-1.8-1.2-.5-1.5-.2-1 1.1.5 1.5.4 1.5-.9-.1-.8-1.1-1.5-1.5-1.5-.8 0 .6-.9 1.6-2 2.2-1.6.9-1.9.8-1.3-.6.4-1.2.3-1.5-.5-1-.7.4-1.2.1-1.2-.8s-.5-1.6-1.1-1.6c-.5 0-.7.5-.4 1 .4.7-.6 1-2.9.8-2-.1-3.6-.6-3.6-1.1 0-.5-.8-.3-1.7.4-1 .8-1.4.9-1 .2.4-.6.3-1.5-.3-1.8-.6-.4-.9-.1-.8.6.2.6-.7 1.2-1.9 1.4-1.6.1-2.3-.4-2.3-1.6 0-1.8-2.5-1.9-5.2-.3-.6.4-.8.3-.5-.3.4-.6 0-1.6-.8-2.3-1.2-1-1.5-1-1.5.1-.1.9-.8.6-1.9-.9-1.1-1.2-2.1-1.8-2.3-1.2-.2.6-.8.6-1.8 0-1.3-.8-1.2-1 .3-1 1 0 1.5-.5 1.2-1-.4-.6-1.1-.7-1.7-.4-.7.4-.8.2-.4-.4.7-1.2 3.6-.5 3.6.9 0 .5.7.9 1.5.9 1 0 1.2-.6.8-1.8-.6-1.5-.5-1.6 1.2-.2 1.1.9 1.6 1 1.1.2-.4-.6-.2-1.2.3-1.2.6 0 1.1.6 1.1 1.2 0 1 .2 1 .8.1.4-.7 2.9-1.5 5.6-1.8 3.2-.4 4.6-.3 4.1.5-.3.5-.2 1 .2 1 .5 0 1.4-.9 2.1-2.1 1.3-2 1.4-2 3.9-.4 2.4 1.6 2.5 1.6 2 .1-.4-.9-.2-1.6.3-1.6.6 0 1 .4 1 1 0 .5.5 1 1 1 .6 0 1-1.2 1-2.8 0-2.1.2-2.4 1-1.2.9 1.3 1 1.3 1 0s.1-1.3 1 0c.7 1.1 1 1.1 1 .2 0-.7.4-1.1.9-.7.5.3 1.2.2 1.4-.2.7-1 9.9-.4 11.1.7zM103 471c0 .5-.5 1-1.1 1-.5 0-.7-.5-.4-1 .3-.6.8-1 1.1-1 .2 0 .4.4.4 1zm599 0c0 .5-.4 1-1 1-.5 0-1-.5-1-1 0-.6.5-1 1-1 .6 0 1 .4 1 1zm-604.3 2c-.1 1.1-.5 2-.9 2-.3 0-.6-.9-.5-2 .1-1.1.5-2 .9-2 .3 0 .6.9.5 2zm608.2 4.7c.1.7-.3 1.3-.9 1.3-.5 0-1-1.2-1-2.8 0-2.1-.2-2.4-1-1.2-.8 1.3-1 1.3-1-.2 0-2.5 2.4-2.8 3.2-.4.3 1.2.6 2.7.7 3.3zm-619.4.1c-.3.3-1.1 0-1.8-.7-.9-1-.8-1.1.6-.5 1 .3 1.5.9 1.2 1.2zm136.3 1.5c1.1 1.4 1.7 1.5 2.8.6.7-.6 1.1-1.5.8-2-.7-1.2.3-1.1 2.7.1 1.4.8 1.9.7 2-.2 0-.7.4-.4.9.7 1.1 2.5 1.2 4.4.2 2.9-.4-.6-1.7-1.4-2.9-1.8-1.7-.6-2.3-.3-2.3.9s-.7 1.5-2.9 1.2c-1.7-.3-3.2 0-3.5.6-.3.7-.5.3-.3-.8.1-1.1-.2-2.6-.6-3.3-1.3-2 1.6-1 3.1 1.1zm166.9-1.7c-.3.3-1.2.4-1.9.1-.8-.3-.5-.6.6-.6 1.1-.1 1.7.2 1.3.5zM217.3 480c-.3 1.1-.9 1.7-1.4 1.5-1-.7-.1-3.5 1.1-3.5.5 0 .6.9.3 2zm30.2-1c.3.5.1 1-.4 1-.6 0-1.1-.5-1.1-1 0-.6.2-1 .4-1 .3 0 .8.4 1.1 1zm3.5-.6c0 .3-.4.8-1 1.1-.5.3-1 .1-1-.4 0-.6.5-1.1 1-1.1.6 0 1 .2 1 .4zm-60.6 3.3c1.3-.5 1.3-.2.4 1.8-.6 1.3-1.5 2.2-2.1 1.8-.5-.3-.3-.9.4-1.4 1.1-.7 1-.9-.3-.9-1.1 0-1.8-.7-1.8-1.8 0-1.4.2-1.4.9-.3.5.8 1.6 1.1 2.5.8zm13 2.1c.3.5-.1.9-.9.9s-1.2-.4-.9-.9c.3-.4.7-.8.9-.8.2 0 .6.4.9.8zm-15.5 3.6c-.3.3-1.1-.5-1.8-1.7-1.3-2.1-1.2-2.1.5-.5 1 1 1.6 2 1.3 2.2zm229.8 3.1c0 1.7-1.3 2-2.1.6-.4-.5 0-1.2.6-1.4.7-.3 1.3-.6 1.4-.6 0-.1.1.6.1 1.4zm482.4-.6c1.6.1 2.6.7 2.6 1.6 0 .8-.3 1.3-.5 1-.3-.3-1.1 0-1.9.6-1 .9-1.3.8-1.3-.1 0-.7-.9-.2-2.1 1.1-1.1 1.3-1.7 1.8-1.4 1 .6-1 .2-1.1-1.5-.6-1.7.5-2.1.4-1.5-.5.6-.9.4-1.1-.6-.5-1.8 1.2-4.9 1.4-4.9.3 0-.4-.5-.8-1.1-.8-.5 0-.7.5-.3 1.2.5.8.2.9-.9.5-1-.4-1.7-.1-1.7.6 0 .8-.3.9-.8.1-1.1-1.7-4-2.4-4.6-1.1-.2.7-.5.4-.5-.7-.1-1.2.4-1.6 1.3-1.3.8.3 1.7-.1 2-.9.6-1.5 3.6-2 3.6-.5 0 .9 6.6-.2 7.7-1.2.3-.3 1.7-.4 3.1-.2 1.5.1 3.9.3 5.3.4zm-478.9 1.9c-.7.2-.9.9-.6 1.4.4.7.2.8-.4.4-1.9-1.2-1.5-3.6.5-2.9 1.1.4 1.3.8.5 1.1zM660 491c0 .5-.4 1-1 1-.5 0-1-.5-1-1 0-.6.5-1 1-1 .6 0 1 .4 1 1zm-233 2c0 .5-.5 1-1.1 1-.5 0-.7-.5-.4-1 .3-.6.8-1 1.1-1 .2 0 .4.4.4 1zm6 1.1c0 1.1-.3 1.1-2.4.3-2.3-.9-2-2.3.4-1.7 1.1.3 2 .9 2 1.4zm-9.3.4c0 .8-.4 1.2-.9.9-.5-.3-.6-1-.3-1.5.9-1.3 1.2-1.1 1.2.6zm13.6-.1c.3-.3.3.4 0 1.7-.4 1.3-.8 1.8-1.1 1.1-.2-.7-.7-1-1.1-.8-.4.3-.7-.4-.7-1.4 0-1.3.4-1.6 1.2-1 .6.6 1.3.7 1.7.4zm5.7-.4c1 .6 1.1 1 .3 1-.7 0-1.3.5-1.3 1.1 0 .5.5.7 1 .4.6-.3 1-.1 1 .4 0 2.2-2.8 1-3.2-1.4-.6-2.7-.1-3 2.2-1.5zm469-.1c0 .5-.7 1.1-1.4 1.4-1 .4-1.3.1-.9-.9.6-1.5 2.3-1.9 2.3-.5zm3.7.7c-.3.3-1.2.4-1.9.1-.8-.3-.5-.6.6-.6 1.1-.1 1.7.2 1.3.5zM553 496c0 .5-.4 1-1 1-.5 0-1-.5-1-1 0-.6.5-1 1-1 .6 0 1 .4 1 1zm-113 1c0 .5-.4 1-1 1-.5 0-1-.5-1-1 0-.6.5-1 1-1 .6 0 1 .4 1 1zm6.4.5c.3.8.1 1.5-.4 1.5-.6 0-1-.7-1-1.5s.2-1.5.4-1.5.6.7 1 1.5zm62.4 1c-.3.3-1.3.2-2.2-.1-1.4-.5-1.5-.9-.4-1.5 1.3-.8 3.6.6 2.6 1.6zm-363.4-.6c1.1.4 1.5 1 1 1.3-.5.4-1.8 0-2.9-.8-2-1.5-1.2-1.7 1.9-.5zm305.1.1c.3.6-.1.7-.9.4-1.8-.7-2.1-1.4-.7-1.4.6 0 1.3.4 1.6 1zm61.5-.1c0 .6-.4 1.2-.8 1.5-.5.3-.9-.1-.9-.9s.4-1.5.9-1.5c.4 0 .8.4.8.9zm40.6 3.9c-1 1-2.9-1.5-2.1-2.8.6-.9 1-.8 1.7.4.6 1 .7 2 .4 2.4zm28.1 10.4c-1.5.9-1.9.4-1.1-1.6.5-1.4.9-1.5 1.5-.5.5.8.3 1.7-.4 2.1zm281.4-.9c-1 .9-1.1.8-.5-.6.3-1 .9-1.5 1.2-1.2.3.3 0 1.1-.7 1.8zM312.5 517c-.3.5-1.1 1-1.6 1-.6 0-.7-.5-.4-1 .3-.6 1.1-1 1.6-1 .6 0 .7.4.4 1zm3 0c.3.5.1 1-.4 1-.6 0-1.1-.5-1.1-1 0-.6.2-1 .4-1 .3 0 .8.4 1.1 1zm3.5 1c.5-.8.9-.9 1.4-.1.4.6.2 1.1-.4 1.1-.6 0-.8.5-.4 1.2.5.9.2.9-.9-.1-.9-.7-1.6-2.1-1.6-3 .1-1.2.2-1.1.6.3.4 1.4.7 1.5 1.3.6zm207.1 10.3c-1 .9-1.1.8-.5-.6.3-1 .9-1.5 1.2-1.2.3.3 0 1.1-.7 1.8zM1017 530c0 .5-.2 1-.4 1-.3 0-.8-.5-1.1-1-.3-.6-.1-1 .4-1 .6 0 1.1.4 1.1 1zm-588.2 4.5c-.3.3-.9-.2-1.2-1.2-.6-1.4-.5-1.5.5-.6.7.7 1 1.5.7 1.8zM323.5 541c-.9 1.4.8 1.2 2.6-.2.7-.7.6-.4-.3.7-1.7 1.8-1.9 1.8-3.5.2s-1.6-1.7 0-1.7c1 0 1.5.4 1.2 1z"/><path d="M594.1 13.6c0 1.1.3 1.4.6.6.3-.7.2-1.6-.1-1.9-.3-.4-.6.2-.5 1.3zm2.9.4c-1.3.8-1.2 1 .3 1 .9 0 1.7-.5 1.7-1 0-1.2-.1-1.2-2 0zm140.9 184.7c-1.3 1.6-1.2 1.7.4.4.9-.7 1.7-1.5 1.7-1.7 0-.8-.8-.3-2.1 1.3zm9.3 8.2c-1.1.7-1.1.9 0 1.4.9.3 1.5-.1 1.5-.9s-.1-1.4-.1-1.4c-.1 0-.7.4-1.4.9zm9.3.1c.3.5 1 1 1.6 1 .5 0 .9-.5.9-1 0-.6-.7-1-1.6-1-.8 0-1.2.4-.9 1zm63.9 19.5c.1.8.7 2 1.3 2.6.7.7.9.3.6-1.5-.6-2.7-2.3-3.7-1.9-1.1zM1018 294c0 .5.5 1 1.1 1 .5 0 .7-.5.4-1-.3-.6-.8-1-1.1-1-.2 0-.4.4-.4 1zm7.7 5.1c.7.7 1.5 1 1.8.7.3-.3-.2-.9-1.2-1.2-1.4-.6-1.5-.5-.6.5zm18.3-.2c0 .6.4 1.3 1 1.6.6.3.7-.1.4-.9-.7-1.8-1.4-2.1-1.4-.7zm-689.6 60.7c-.1 1.3.1 2.4.5 2.4.9 0 1.2-3.8.3-4.4-.4-.2-.8.7-.8 2zm-18.4.4c-.9.6-1 1-.3 1 .6 0 1.5-.5 1.8-1 .8-1.2.4-1.2-1.5 0zm41 1c0 .5.5 1 1.1 1 .5 0 .7-.5.4-1-.3-.6-.8-1-1.1-1-.2 0-.4.4-.4 1zm-2.4 3.3c.3 1 .9 1.5 1.2 1.2.3-.3 0-1.1-.7-1.8-1-.9-1.1-.8-.5.6zm-35.1.7c-.3.5-.1 1 .4 1 .6 0 1.1-.5 1.1-1 0-.6-.2-1-.4-1-.3 0-.8.4-1.1 1zm71.3 5.7c.7.3 1.6.2 1.9-.1.4-.3-.2-.6-1.3-.5-1.1 0-1.4.3-.6.6zm71.3 3.9c0 1.1.3 1.4.6.6.3-.7.2-1.6-.1-1.9-.3-.4-.6.2-.5 1.3zm42.9 0c0 .8.5 1.2 1 .9.6-.4.8-1.1.5-1.6-.9-1.4-1.5-1.1-1.5.7zm18.6 18.2c-.3.5.1.9.9.9s1.2-.4.9-.9c-.3-.4-.7-.8-.9-.8-.2 0-.6.4-.9.8zM691 394c0 .5.5 1 1.1 1 .5 0 .7-.5.4-1-.3-.6-.8-1-1.1-1-.2 0-.4.4-.4 1zm-6 4.1c0 .5.5.7 1 .4.6-.3 1-.8 1-1.1 0-.2-.4-.4-1-.4-.5 0-1 .5-1 1.1zM328.5 472c-.3.5.1 1 1 1s1.3-.5 1-1c-.3-.6-.8-1-1-1-.2 0-.7.4-1 1zm-13.5 7c0 .5.5 1 1.1 1 .5 0 .7-.5.4-1-.3-.6-.8-1-1.1-1-.2 0-.4.4-.4 1zm745.5-75c.3.5.8 1 1.1 1 .2 0 .4-.5.4-1 0-.6-.5-1-1.1-1-.5 0-.7.4-.4 1zm-459.9 68.8c-1.5.3-1.6.6-.5 1.2 1 .7.8 1.1-1.1 1.9-2.4.9-2.4 1-.3 1 1.2.1 2.8.8 3.7 1.6.9.9 1.7 1.1 2.1.5.3-.5 1.3-1 2.2-1 1.2 0 1.2.3-.4 1.7-1 1-1.4 1.5-.9 1 1.5-1.1 4.8-.9 4.1.3-.3.5-.1 1 .6 1 1 0 1 .3.1 1.2-1.8 1.8-1.4 3.2.5 1.7 1.5-1.3 1.5-1.2.4.9-1.2 2.2-1.1 2.3.8 1.3 1.6-.9 1.9-1.9 1.6-4.4-.4-2.9-.3-2.8.6.6.9 2.9 1.4 3.5 2.4 2.7 1-.8 1.5-.8 2.1.1.5.8.3 1-.7.5-.8-.4-.7-.1.3.6 1.2 1 1.4 1.9.6 3.3-.6 1.3-.2 1.1 1.1-.5 2-2.5 2-2.5 3.6-.5.9 1.1 1.4 1.4 1 .7-.8-1.5 0-1.5 2.5-.2 1.3.7 2.1.7 2.5 0 .3-.5 0-1-.7-1.1-.7 0-.3-.4.9-.9 2.4-1 2.3-3-.4-6.2-.8-.9-1.2-2.3-.8-3 .6-.9.5-1-.3-.3-.5.5-1.2 1.9-1.5 3-.4 1.9-.5 1.9-.6-.1-.1-1.3-.9-2.4-2.1-2.7-2.3-.6-2.4-.3-.9 2.5.7 1.2.7 1.8.1 1.4-.6-.3-1.3-.1-1.5.4-.3.6-.4.5-.3-.2.1-.7-.8-2.4-2.1-3.8-2.1-2.2-2.5-2.3-4.6-1.1-2.1 1.3-2.1 1.2.3-1.4 2.1-2.3 2.2-2.7.6-2.1-1.6.5-1.7.4-.7-.8 1-1.2.9-1.4-.8-.9-1.2.3-1.9.9-1.6 1.3 1.2 1.9-1.6 1.9-3.5 0-2.2-2.2-3.5-2.7-2.4-.8.5.7.3.8-.7.2-1.7-1-2.8-1.2-5.3-.6zm17.9 6.3c1.1 1.7-.1 2.1-1.5.4-.8-.9-.8-1.5-.2-1.5.6 0 1.4.5 1.7 1.1zm1.5 4.9c0 .5-.2 1-.4 1-.3 0-.8-.5-1.1-1-.3-.6-.1-1 .4-1 .6 0 1.1.4 1.1 1zm10 0c0 .5-.4 1-1 1-.5 0-1-.5-1-1 0-.6.5-1 1-1 .6 0 1 .4 1 1zm.7 2.6c-.3.3-1.2.4-1.9.1-.8-.3-.5-.6.6-.6 1.1-.1 1.7.2 1.3.5z"/><path d="M610 472.9c0 .6.4 1.3 1 1.6.6.3.7-.1.4-.9-.7-1.8-1.4-2.1-1.4-.7zm-14.9 1.7c0 1.1.3 1.4.6.6.3-.7.2-1.6-.1-1.9-.3-.4-.6.2-.5 1.3zm28.5 1.7c.3 1 .9 1.5 1.2 1.2.3-.3 0-1.1-.7-1.8-1-.9-1.1-.8-.5.6zm-526 2.3c-.3.9-1.1 1.2-1.8.8-1-.6-1-.5 0 .8.7.8 2.3 1.5 3.7 1.5 2.1 0 2.2-.1.9-1.5-1.3-1.2-1.3-1.6-.2-2.3 1-.7.9-.9-.3-.9-.9 0-2 .7-2.3 1.6zm81.6 2.1c-.2 2.1.1 2.3 1.2 1.4 1.1-.9 1.5-.9 1.9.1.4 1.1.6 1 .6 0 .1-.7.6-1 1.3-.6.7.5.8.3.4-.5-.5-.7-1.1-1-1.4-.7-.3.3-1.3-.1-2.2-.9-1.4-1.3-1.6-1.2-1.8 1.2zM174 483c-.9.6-1 1-.3 1 .6 0 1.5-.5 1.8-1 .8-1.2.4-1.2-1.5 0zm433 0c0 .5.5 1 1 1 .6 0 1-.5 1-1 0-.6-.4-1-1-1-.5 0-1 .4-1 1zm-2.4 1.7c-.6 1.4-.5 1.5.5.6.7-.7 1-1.5.7-1.8-.3-.3-.9.2-1.2 1.2zm32-.5c.4.6-.1 1.7-1.1 2.5-1.1.7-1.3 1.3-.6 1.3.7 0 .9.5.5 1.2-.5.9-.2.8.9-.1 1-.8 1.5-1.6 1.2-1.9-.3-.3 0-1.1.5-1.7.8-.9.6-1.4-.5-1.9-1.1-.4-1.4-.2-.9.6zm16.5-.3c-.8.5-.9 1.1-.3 1.5.5.3 1.2-.1 1.6-.9.6-1.7.6-1.8-1.3-.6zM532 485.5c.7.8 1.7 1.5 2.2 1.5.5 0 .3-.7-.6-1.5-.8-.8-1.8-1.5-2.2-1.5-.3 0-.1.7.6 1.5zm47.6-.3c.3.4.9.8 1.5.8.5 0 .9-.4.9-.8 0-.5-.7-.9-1.5-.9s-1.2.4-.9.9zm94.6.4c-.7.8-.8 1.4-.3 1.4 1 0 2.5-1.9 2-2.5-.2-.1-1 .3-1.7 1.1zm-68.3 1.1c-.8.9-.9 1.4-.3 1 .7-.4 1.7-.1 2.3.7.9 1.1.9 1.5 0 1.8-1.5.5-.5 3.8 1.2 3.8.8 0 .8-.4-.1-1.5-1-1.2-1-1.5.4-1.5.9 0 1.6.6 1.7 1.2 0 .7.4.4.9-.7s.9-1.4.9-.6c.1 1 .4 1.1 1.5.2 1-.8 1.6-.9 1.9-.1.3.6.4.5.3-.2-.1-.7-1.8-1.4-3.7-1.6-3.7-.4-6.2-1.9-5.3-3.3.9-1.6-.3-1-1.7.8zm-38.5 2.4c-.4.7-.3.9.4.5.5-.3 1.3 0 1.5.6.4.9.6 1 .6.1.1-1.7-1.6-2.5-2.5-1.2zm11.7 2.1c.9 1.6 2.9 1.7 2.9.2 0-.3-.5-.2-1.2.2-.7.5-.9.2-.6-.8.4-.8 0-1.5-.7-1.5-1 0-1.1.5-.4 1.9zm24.2-1.5c-.7.3-1.3.9-1.3 1.5s.7.8 1.5.4c.8-.3 1.5 0 1.5.6s.3.9.6.5c1-.9-1-3.4-2.3-3zm27.7.3c0 .5.7.7 1.5.4.8-.4 1.5-.8 1.5-1 0-.2-.7-.4-1.5-.4s-1.5.4-1.5 1zm-97.3 3.2c-.2 1.8-.4 3.3-.3 3.4 0 0 .8-.7 1.7-1.6 1.3-1.4 1.4-2 .4-3.4-1.1-1.5-1.3-1.3-1.8 1.6zM583 492c0 .6.4.9.9.6.5-.4 1.2-.1 1.4.4.3.6.4.5.3-.2-.3-1.5-2.6-2.3-2.6-.8zm9 3c0 .5.5 1 1.1 1 .5 0 .7-.5.4-1-.3-.6-.8-1-1.1-1-.2 0-.4.4-.4 1zm52.8 2.2c1.3 1.3 1.6 3.2.4 2.4-.4-.2-.8.3-.9 1.2-.1 1.3.6 1.7 2.5 1.6 2.8-.1 4.4-2.4 1.7-2.4-1.5 0-1.6-.2-.4-1.7 1.2-1.5 1.2-1.6-.3-1-1 .3-1.8.2-1.8-.3 0-.6-.5-1-1.2-1-.9 0-.9.3 0 1.2zm-28.9 3.5c-1.3 1.6-1.2 1.7.4.4.9-.7 1.7-1.5 1.7-1.7 0-.8-.8-.3-2.1 1.3zm-27.3 7.8c-.3.8-.3 1.5 0 1.5s1.2-.7 2-1.5c1.3-1.3 1.3-1.5.1-1.5-.8 0-1.7.7-2.1 1.5zm476.7 1c-1 1-.9 1.4.2 1.9 1.7.6 2.6-.5 1.7-2.1-.5-.8-1.1-.7-1.9.2zm-119 12.2c-1.7.6-1.7 2 0 2.6.8.3 1.3-.3 1.3-1.4 0-1.1 0-1.9-.1-1.8l-1.2.6zm9.7.8c-.7.9-1 1.8-.6 2.2.3.3.6.1.6-.6s.7-1.1 1.4-.8c1 .4 1.3.1.9-.9-.6-1.8-.8-1.8-2.3.1zm-20.5.5c-.3.6.1.7.9.4 1.8-.7 2.1-1.4.7-1.4-.6 0-1.3.4-1.6 1zM175 524c-1.3.8-1.2 1 .3 1 .9 0 1.7-.5 1.7-1 0-1.2-.1-1.2-2 0zm27.8 2.7c.7.3 1.6.2 1.9-.1.4-.3-.2-.6-1.3-.5-1.1 0-1.4.3-.6.6zm804.8 7.2c-.3.5.1 1.1.9 1.4.9.4 1.2.1.8-.9-.6-1.6-1-1.7-1.7-.5zm5.9 3.2c-.4.6-.5 1.2-.2 1.5.2.3.7-.2 1-1.1.7-1.7.1-2-.8-.4zM7 540.7c0 .5.5 1.5 1 2.3.8 1.2 1 1.1 1-.8 0-1.2-.4-2.2-1-2.2-.5 0-1 .3-1 .7zm13.6.8c-.3.8-.1 1.5.4 1.5.6 0 1-.7 1-1.5s-.2-1.5-.4-1.5-.6.7-1 1.5zm4.4-.5c-.9.6-1 1-.3 1 .6 0 1.5-.5 1.8-1 .8-1.2.4-1.2-1.5 0zm19.4.1c-.3.6-.1 1.6.5 2.2.9.9 1 .7.5-.7-.5-1.3-.4-1.7.4-1.2.7.4 1.2.2 1.2-.3 0-1.4-1.7-1.4-2.6 0zm4.2.5c-.4.9.1 1.4 1.4 1.4 2.3 0 2.7-1.5.6-2.3-.8-.3-1.7.1-2 .9zm-36.1.4c-.3.5-.1 1 .4 1 .6 0 1.1-.5 1.1-1 0-.6-.2-1-.4-1-.3 0-.8.4-1.1 1zm39.9.8c-1 1.5-.8 1.8 1 1.9 1.1.1 1.6-.1.9-.4-.7-.2-.9-1.1-.6-1.9.7-2 0-1.8-1.3.4zm15.7-.4c-.1 1.3-.4 1.6-1.3.8-1.4-1.1-7.8-.4-7.8.8 0 .4.7 1.1 1.6 1.4 1 .4 1.3.2.8-.6-.7-1.1 1.4-.8 7 .9 1.2.3 1.6.1 1.2-.6-.5-.7.1-1.1 1.4-1.1 1.2 0 1.9.4 1.6.8-.6 1.1 6.6.8 8.4-.3 1.3-.8 1.3-.6 0 1.1-1.4 1.7-1.4 1.8.1.6.9-.7 2.3-1.1 3-.9.8.2 1.1.2.6 0-.4-.3-.4-1 0-1.6.3-.7.3-.9-.2-.5-.4.4-1.4 0-2.2-1-.8-.9-1.1-1.1-.7-.3.5 1.1.2 1.3-1.4.9-1.2-.4-2-.2-1.7.2.3.5.1 1.1-.5 1.5-.6.3-1-.4-1-1.6 0-2.2 0-2.2-2-.4-1.5 1.4-2 1.5-1.7.4.2-.8.2-1-.1-.6-.2.4-1.1.2-2-.5-1.2-1-1.4-1-.8-.1.4.7.3 1.3-.3 1.3-.5 0-1.2-.6-1.4-1.3-.3-.7-.6-.4-.6.7zm18.6 1.5c.5 2.2 4 2.5 4 .4 0-.7-.2-1.1-.5-.8-.3.2-1.3 0-2.2-.5-1.5-.8-1.7-.6-1.3.9zm6.3 2c0 .6.4 1.3 1 1.6.6.3.7-.1.4-.9-.7-1.8-1.4-2.1-1.4-.7zm-91 3.9c0 .7-.4 1-1 .7-.6-.4-1 2-1 6.4 0 4.2.5 7.3 1.2 7.7.8.5.9.2.5-.9-.5-1.4-.1-1.6 2.3-1.2 2 .4 3 .1 3-.7 0-.8.3-.9.8-.3.9 1.2 3.2 1.8 3.2.7 0-.4 5-.6 11.1-.4 8.3.3 10.9 0 10.4-.8-.6-.9-.2-.9 1.4-.1 1.2.7 2.6.9 3.1.6.6-.3 1-.1 1 .6s.8.5 2-.6c1.7-1.6 2-1.6 2-.2 0 1.2.6 1.4 2.8.8 1.5-.4 3.3-.6 4.1-.3.9.3 1.1 0 .6-.8-.6-.9-.3-.9 1.4-.1 1.2.7 2.7.9 3.3.5.7-.4.8-.3.4.4s-.1 1.2.8 1.2 1.5-.6 1.4-1.3c-.2-.6.4-1.2 1.2-1.2.8 0 1.4.5 1.3 1.1-.1.6.3 1.1 1 1.1s2 .4 3 .8 1.7.3 1.7-.4c0-.6.7-1.1 1.5-1.1s1.5.6 1.5 1.2c0 .9.4.8 1-.2.6-.9 1.3-1.1 1.8-.5.4.5 3 1 5.7.9 2.8 0 5.4.2 5.9.5.6.2 3.1.5 5.6.6 2.5.1 5.2.5 6 1 .9.6 1.2.4.8-.6-.4-1 .2-1.4 1.8-1.4 1.3 0 2.4.4 2.4.8 0 .5 2.3.7 5 .5 2.8-.1 5 .1 5 .6s.7.3 1.5-.4 1.3-1.6 1-2c-.3-.5.2-.7 1.1-.6.8.1 2 .9 2.5 1.7.7 1.1.9 1.1.9-.4 0-.9.4-1.7.9-1.7s.7 1 .4 2.1c-.5 1.9-.4 2 1.6.9 1.4-.7 3.3-.9 4.9-.4 1.5.4 3.1.6 3.6.5.4-.1 1.4.4 2.2 1 1.1.9 1.4.8 1.4-.7 0-1.6.2-1.7 1-.4.5.8 1 1.1 1 .7 0-.4.9-.3 2 .3 1.5.8 2 .8 2-.2 0-.9.3-.9 1 .2.9 1.3 1 1.3 1 0 .1-1.1.4-1 1.7.5 1.5 2 1.5 2 1-.2-.3-1.3-.2-2.5.2-2.7.4-.3.8.5.8 1.6.2 2.8 1.2 3.5 2.4 1.8.8-1.3 1-1.3 1.9 0 .8 1.3 1 1.2 1-.4 0-1.3.5-1.7 1.9-1.3 1 .2 2.5 0 3.4-.5 1.3-.7 1.5-.5 1.1.7-.5 1.3-.2 1.4 2 .5 1.4-.5 2.6-.6 2.6-.1 0 1.1 3.3.9 4.2-.3.8-1.2 3.8-1.7 3.8-.7 0 .6 3 .7 8.8.2 1-.1 1-.6.2-2.1-.6-1.1-.8-2.5-.5-3 .4-.6-.1-1.3-.9-1.6-.9-.3-1.6-1-1.6-1.6 0-.5.4-.7.9-.3.5.3 1.2.2 1.5-.3.2-.4-.4-.9-1.5-.9-1.4-.1-1.9.5-1.9 2.1 0 2.3-2.1 2.9-4.9 1.2-.7-.5-1.8-.3-2.4.4-.9 1-.9 1.1.3.5 1.6-.9 1.6-1-1.8 3.5-.2.3-.2-.4 0-1.5.2-1.3-.2-1.9-1.1-1.7-.7.1-2-.5-2.8-1.5-1.3-1.7-1.4-1.5-.9 1.2.3 1.6.3 2.4 0 1.7-.3-.6-1-1-1.5-.6-.9.5-1.3-1.6-1-4.4.2-.9-.5-.7-1.7.5-1 1-1.7 2.1-1.5 2.5.2.5-.1.8-.7.8s-.8.5-.4 1.2.3.8-.4.4c-.6-.4-.8-1.4-.5-2.4.6-1.5.4-1.5-.9-.4-1.4 1.1-1.8 1-2.7-.5-1-1.7-1-1.7-1.1.1 0 2 0 2-1.5 0-1.1-1.4-1.4-1.5-1.5-.4 0 1.3-.1 1.3-1.1 0-.8-1.1-1.2-1.2-1.6-.3-.5 1.4-3.3 1.8-3.3.5 0-.4-.9-.8-2-.8-1 0-1.7.2-1.5.5.7.6-1.6 3.1-2.9 3.1-.6 0-.4-.5.4-1 1-.6 1.1-1 .3-1-1.9 0-2.6-.2-5.2-1.1-1.5-.6-2.8-.6-3.6.1-.9.7-1.5.8-1.9.1-.5-.7-1.5-.7-3.1.1-1.3.6-2.2 1.5-1.8 2.1.3.6.1.7-.5.3-.6-.4-.9-1.2-.6-1.9.2-.7-.4-1.3-1.6-1.4-2.2-.2-2.6.7-.9 2.4.9.9.7 1.1-.7.8-1.1-.1-1.8-.8-1.6-1.5.2-.7-.3-1-1.2-.7-.9.4-1.8.2-2.2-.4-.4-.6-1.2-.5-2.2.3-.9.7-1.3.8-.9.2.8-1.3-4.1-1.2-6.3.1-.9.5-1.1.4-.6-.3.4-.7.4-1.3-.1-1.3-.4-.1-1.7-.3-2.8-.5-1.1-.1-3-.5-4.2-.8-1.3-.3-2.3-.1-2.3.3s-.6.8-1.2.8c-.7 0-2.7.3-4.5.7-1.8.4-3.4.3-3.7-.3-.4-.6.2-.8 1.5-.6 1.2.2 1.9.1 1.5-.2-.4-.4-1.2-.8-1.9-.9-.7-.2-2.2-.5-3.5-.8-1.6-.3-2-.1-1.5.7.4.7-.1.5-1.1-.3-1.6-1.3-2-1.2-3.2.5-1.2 1.7-1.4 1.7-1.4.2 0-.9-.4-1.7-1-1.7-.5 0-1 .5-1 1.1 0 .6-.5.7-1.2.2-2.1-1.2-7.9-1.4-7.2-.1.4.6.3.8-.3.5-2-1.3-10.3-1.5-10.3-.4 0 .8-.4.7-.9-.2-.6-.9-1.1-1-1.5-.2-.4.6-1.4 1.1-2.2 1.1-.8 0-1.3-.3-1.1-.8.8-1.1-8.7-.8-9.5.3-.5.6-.8.5-.8-.3 0-.7-1.4-1.2-3.7-1.2-2.5 0-3.3-.3-2.5-.9.8-.5-.8-.6-3.7-.3-3.3.3-5.1.1-5.1-.6s-1.9-1.1-4.9-.9c-2.7.1-4.7-.1-4.4-.6.2-.4-.1-.7-.6-.7-.6 0-1.1.5-1.1 1.2 0 .6-.7.3-1.5-.8-.9-1.2-1.4-1.4-1.5-.6zm91 8.6c0 .2-.8 1-1.7 1.7-1.6 1.3-1.7 1.2-.4-.4 1.3-1.6 2.1-2.1 2.1-1.3zm26.5.6c-.3.5-1.2 1-1.8 1-.7 0-.6-.4.3-1 1.9-1.2 2.3-1.2 1.5 0zm5.5 0c0 .5-.4 1-1 1-.5 0-1-.5-1-1 0-.6.5-1 1-1 .6 0 1 .4 1 1zm12.8 1.3c1.4-.6 1.5-.5.2.9-1.5 1.6-3.1.7-2.9-1.7 0-.6.3-.5.5.2.3.7 1.3.9 2.2.6zm30.9 1.3c-.3.3-1.2.4-1.9.1-.8-.3-.5-.6.6-.6 1.1-.1 1.7.2 1.3.5zM134.5 550c.3.5.8 1 1.1 1 .2 0 .4-.5.4-1 0-.6-.5-1-1.1-1-.5 0-.7.4-.4 1zm96 2.1c-.4.6-.5 1.2-.2 1.5.2.3.7-.2 1-1.1.7-1.7.1-2-.8-.4zm-44 2c.6.9.3 1.1-.9.6-1-.4-1.5-.3-1.1.3.6 1.1-.2 1.3-4.9 1.4-2.4.1-2.9.6-3.2 2.8-.1 1.5.2 3.1.8 3.4.8.5.9.1.5-1-.4-1-.3-1.5.3-1.1.6.3.7 1.8.4 3.2-.6 2.2-.4 2.5 1 2 1.7-.7 2.1.2.9 1.9-.5.5.1 0 1.2-1.2 1.4-1.5 2.6-1.9 4-1.4 1.1.4 2.5.6 3 .5.6-.1.7 0 .3.2-.5.3-.8.9-.8 1.4 0 1.5 2.2 1 3.7-.9 1.4-1.6 1.4-1.6.9 0-.3 1-.1 2 .4 2.3.6.4 1 .1 1-.5s.4-.9.9-.6c.5.3 1.4 0 2-.8.9-1.1.9-1.5-.1-1.8-.7-.3.7-.4 3.2-.3 5.6.3 5.5.2 4 2-1.1 1.3-1 1.4.4.9.9-.3 1.6-1.6 1.6-2.8 0-1.6.2-1.8.9-.7.5.7 1.4 1 2 .6 1.5-.9 4.3 1.4 3.4 2.8-.3.6-.1.7.6.3.6-.4.9-1.1.6-1.6-.8-1.4 2.9-3 5.3-2.3 1.2.3 2 .9 1.7 1.3-.3.5-.1 1.1.5 1.5.5.3 1 .2 1-.4 0-.5 1-.8 2.2-.6 1.2.3 2.7-.3 3.4-1.3 1.2-1.5 1.5-1.5 2.4-.2.5.8 1 1.1 1 .6 0-.5.7-.3 1.5.4 1.1 1 1.8.9 3.1-.4.8-.9 2-1.4 2.5-1.1.5.4.6-.2.2-1.1-.5-1.3-.3-1.5.7-.9.9.5 1.1.4.6-.4-.6-.8-1.5-.5-3.3 1.4-3.3 3.2-4.4 2.3-1.3-1 1.3-1.4 2-2.8 1.7-3.2-.4-.3-.7-.1-.7.5s-.7.9-1.5.6c-.8-.4-1.3-.9-1.1-1.3.3-.4-.4-.7-1.5-.7-1.7 0-1.8.2-.6 1.1 1.6 1.2 1.8 4.5.2 4.5-.6 0-1.6-.5-2.1-1-1.2-1.2-4.7-.2-3.8 1.1.3.5-.3.9-1.2.9-1.3 0-1.5-.3-.7-1.1.6-.6.9-1.7.7-2.4-.3-.7.6-2.2 2-3.3 2.1-1.6 2.3-2.1 1-2.6-.8-.3-1.2-.2-.9.4.3.6.2 1-.4 1-.5 0-1.5-.8-2-1.8-1-1.6-1-1.6-1.1 0 0 1-.4 1.8-1 1.8-.5 0-1-.5-1-1.2 0-.6-.9-.3-2 .7-1.9 1.7-2.1 1.7-4 0s-2-1.7-2 .1c0 1.4-.3 1.5-.8.6-1.6-2.5-9.6 2.3-8.1 4.9.6 1.3.2 1.4-2.4 1-2-.3-2.5-.6-1.4-.9 1.4-.3 1.6-.7.6-1.8-.6-.7-1.5-1.2-1.9-.9-.5.3-1.1.1-1.5-.5-.3-.5-1.3-1-2.2-1-1.2 0-1.3.3-.3 1.4 1 1.3.7 1.4-1.7 1.2-1.5-.2-2.9-.4-3.1-.5-.7-.2 2.7-3.1 3.7-3.1.6 0 1.1-.6 1.1-1.3 0-.6.5-.4 1.1.6 1 1.8 2.9 1.5 2.9-.5 0-.6-.3-.8-.7-.5-.3.4-1.2.2-1.9-.4-.8-.6-1.4-.7-1.8 0-.4.6-1.3.8-2.2.4-.9-.3-1.4 0-1.2.7.2.7-.3 1.5-1.1 1.8-.8.3-1.1 0-.7-.6.4-.6-.3-1.6-1.5-2.2-1.7-1-2-.9-1.4.1zm1.9 2.4c-.4.8-1.4 1.5-2.3 1.5-1.4 0-1.4.2-.1 1 .9.6 1 1 .3 1-2.2 0-2.6-2.3-.8-3.7 2.5-1.7 3.6-1.7 2.9.2zm36 1c-.4.8-1 1.5-1.5 1.5-.4 0-.6.6-.3 1.4.6 1.5-2.2 3-3.1 1.6-.8-1.2-3.1-.6-5.3 1.3-1.8 1.6-2 1.6-2.6.2-.3-.9-.2-1.3.4-1 1.7 1 3.4-.6 1.9-1.7-1-.7-.9-.8.6-.4 1.8.5 1.8.5.3-.7-1.4-1.1-1-1.3 3-1.4 2.6-.1 4.8-.7 5-1.2.2-.6.8-1.1 1.3-1.1.4 0 .6.7.3 1.5zm-43.4.5c1.2.8 1.1 1-.7 1-1.2 0-2.5-.5-2.8-1-.8-1.3 1.5-1.3 3.5 0zm31 1.4c0 .3-.4.8-1 1.1-.5.3-1 .1-1-.4 0-.6.5-1.1 1-1.1.6 0 1 .2 1 .4z"/><path d="M219 559.9c0 .6.5 1.3 1 1.6.6.3 1-.1 1-.9 0-.9-.4-1.6-1-1.6-.5 0-1 .4-1 .9zm-17.7-5.2c-.7.3-1.3.9-1.3 1.5 0 .7.5.6 1.4-.1 1.2-1 1.3-.8.9 1-.5 1.9-.4 2 1.6 1 1.1-.7 2.1-1.5 2.1-1.8 0-.3-.3-.3-.7 0-.3.4-1.1.1-1.7-.7-.6-.8-1.7-1.2-2.3-.9zm-32.8 2.4c-.4.6-.5 1.2-.2 1.5.2.3.7-.2 1-1.1.7-1.7.1-2-.8-.4zm78.8.6c0 .7.4 1.3.8 1.3s.9-.6 1.2-1.3c.3-.8 0-1.4-.7-1.4s-1.3.6-1.3 1.4zm-19.3.8c0 .8.4 1.5 1 1.5.5 0 .7-.7.4-1.5-.4-.8-.8-1.5-1-1.5-.2 0-.4.7-.4 1.5zm692 3.1c-6.1 1.3-17.2 6.4-23 10.4-1.4 1-5.9 3.5-10 5.6-8.2 4.1-26.8 16.2-28.8 18.7-1.9 2.3-15 8.7-17.7 8.7-1.3 0-2.6-.4-3-.9-.3-.5-1.8-1.2-3.4-1.6-7.3-1.6-21.2-8-30.3-14.1-9.7-6.3-25-14.4-27.5-14.4-.7 0-3.7 1.6-6.7 3.5s-6 3.5-6.6 3.5c-1.3 0-7 5.4-7 6.6 0 .5-1.5 1.8-3.4 2.8-1.9 1-5.1 3.3-7 5.1-2.5 2.3-4.5 3.2-7.2 3.3-2.1.1-5.3 1.2-7.3 2.6-2 1.3-7.4 3.6-12.1 5.1-8.7 2.7-16.5 7.4-27.7 16.4-3.4 2.8-8.1 6-10.5 7.2-2.4 1.1-5.6 3.4-7.3 5-1.6 1.5-6.1 4-10 5.4-6.9 2.6-17.2 8.7-18.8 11.2-.4.7-1.4 1.3-2.1 1.3-.8 0-1.9.7-2.6 1.5-2.5 3-12 7.5-15.8 7.5-2.1 0-4.2.4-4.8.9-.5.6-3.2.7-6.6.2-4.1-.5-6.8-.4-9.5.6-2.1.8-7.8 2.5-12.8 3.8-14.3 3.8-18.1 5.4-23.4 10.2-5.3 4.7-8.6 6.8-16.1 10.4-2.7 1.2-6.3 4.2-9 7.5-2.5 3-6.2 6.6-8.3 8-2.1 1.4-5.6 4.1-7.8 6.1s-4.2 3.3-4.6 2.9c-.3-.3-1.2.3-2 1.4-1.1 1.6-2.6 2-6.8 2-2.9 0-6.4.4-7.7.9-1.9.7-2.9.4-4.8-1.6-1.3-1.3-3.6-2.7-5.2-3-1.6-.3-3.7-1.8-4.8-3.3-1.4-2-3.4-3-7.7-3.9-5.1-1.1-6.9-1-14.3.7-4.7 1.1-10 2.3-11.9 2.7-1.9.4-8 2.4-13.6 4.5-16.4 6.1-15.2 6.2-20.8-2.6-2.7-4.1-5.9-7.9-7.1-8.4-1.2-.4-2.8-1.6-3.6-2.6-.8-.9-4.6-4.2-8.5-7.3-3.8-3-9-7.5-11.5-9.9-6.8-6.6-17.1-11.2-27.5-12.5-8.6-1-8.7-1-14.8 2-17.3 8.5-29.8 14.3-31.2 14.3-.8 0-3.4 1.1-5.7 2.4-2.4 1.3-6.1 2.7-8.3 3.1-2.2.4-6.6 1.7-9.8 3-6.4 2.7-7.9 2.5-9.5-1-.8-1.8-2.2-2.4-6.2-3-2.8-.4-5.4-1.3-5.7-2.1-.9-2.5-7-3.6-16.1-2.9-13.7 1-24.5 4.3-32.2 9.6-1.4 1-5.2 2.4-8.5 3.2-8 2-16.8 6.8-21.8 11.8-2.3 2.2-8.6 7.1-14.2 10.7-5.5 3.6-11.8 8.3-14 10.4-3.7 3.6-4.3 3.8-10.1 3.8-3.4 0-9.7-.9-14-2-4.4-1.1-9.4-2-11.2-2-2.1 0-5-1.2-7.7-3-6.9-4.7-8.3-5-13.5-2.5-2.5 1.3-7.2 2.6-10.5 3-3.3.4-7.8 1.5-10 2.5s-5.6 2.1-7.5 2.5c-1.9.4-4.4 1.3-5.5 1.9-1.1.7-3.7 1.9-5.8 2.5-2.1.7-5.7 3.2-8 5.5-2.3 2.4-6.9 5.8-10.2 7.6-3.3 1.8-8.7 6.1-12 9.5-5.1 5.4-6.9 6.6-12 8-3.3.9-9.4 3.2-13.6 5.1-4.2 1.9-9.1 3.7-10.8 4l-3.1.6V1080h1080V650l-2.6-.6c-1.4-.4-6-.4-10.2-.1-8.3.6-7.3 1.1-18.1-8.1-2.1-1.7-4.3-3.2-4.9-3.2-.6 0-3.2-1.7-5.9-3.8-7.5-6-8.3-6.2-16.9-5.6l-7.9.6-7.7-7.6c-4.2-4.1-9.6-8.7-12-10.2-2.4-1.5-4.7-3.2-5.3-3.9-1.3-1.4-9.7-8.2-15.2-12.1-2.4-1.7-7.1-5.7-10.6-9-3.4-3.3-10.5-9.2-15.7-13.2-5.2-3.9-10.8-8.3-12.5-9.6-4.1-3.3-6.8-3.7-14.5-2zm-677.2 4.1c.7.3 1.6.2 1.9-.1.4-.3-.2-.6-1.3-.5-1.1 0-1.4.3-.6.6zM.1 573.5c0 4.1.4 7.7.9 8 .6.3 1 .1 1-.4 0-1.9 2-1.2 2.1.6 0 1.6.1 1.6.8-.1.7-1.8.8-1.8 1.4-.2.5 1.2 1.3 1.5 2.7 1.1 1.3-.4 2-.2 2 .7 0 .8.7 2.3 1.6 3.4.8 1 1.2 1.2.8.4-.4-.8.5-.4 1.9.9 1.5 1.3 3.3 2.1 4.1 1.8.9-.4 1.6-.2 1.6.4 0 .6.7.9 1.5.6.8-.4 1.6-.3 1.9.1.6 1 6.8.8 8.4-.2.7-.4 1.2-.3 1.2.2 0 .6 1.1.9 2.5.8 1.4 0 2.5-.4 2.5-.9 0-.4.5-.7 1.1-.7.5 0 .8.3.5.8-.5.9 9 .9 9.9.1.3-.4-.6-.9-2-1.1-1.4-.3-2.5-.1-2.5.6 0 .6-.4.5-.9-.3-.5-.7-1.4-1-2-.7-.6.4-1.1.2-1.1-.3 0-.6-.6-1.1-1.4-1.1-1.9 0-3-3.1-1.4-4.2.9-.6.8-.8-.6-.6-1 .2-2.1-.3-2.3-1-.3-.8.2-1 1.4-.6 1.5.5 1.5.4.3-.5-2-1.4-3.7.4-2.1 2.3 1.5 1.8.5 5.6-1.5 5.6-.8 0-1.4-.5-1.4-1 0-.6.7-1 1.5-1 1.8 0 2-2.6.3-3.7-.7-.4-3-.8-5-.8-3.5-.1-6.9-1.5-3.6-1.5.8 0 2.3-1 3.4-2.1 1.9-2.2 1.9-2.2-.5-1.4-1.5.5-2.1.4-1.7-.3.4-.6-.2-1-1.4-.9-1.4.1-1.8.6-1.5 1.8.4 1.2-.1 2-1.5 2.4-3 1-3.8-.3-.9-1.4 1.7-.7 1.9-1 .7-1-1-.1-1.8-.6-1.8-1.2 0-.5.5-.7 1-.4.5.3 1 .1 1-.4 0-1-1.4-1.5-3.2-1.2-1.2.2-.9-1.4.5-2.8.6-.7-.2-.4-2 .5-1.7 1-2.9 2.3-2.6 2.8.4.5.1.6-.6.2-.7-.5-1-1.4-.7-2.2.6-1.6-1-1.9-1.9-.4-.3.5-1.4.9-2.3.9-1.5-.1-1.5-.2-.1-.6 1.8-.4 3.3-4.3 1.7-4.3-.5 0-.6-.5-.2-1.2.4-.7.3-.8-.5-.4-.7.4-.9 1.7-.6 2.9.4 1.5.3 1.8-.3.9-.5-.7-1.6-1-2.5-.6-1.3.4-1.7.1-1.7-1.5 0-1.2-.5-2.1-1.1-2.1-.5 0-.7.4-.4 1 .3.6-.1.7-.9.4-.9-.3-1.6-1-1.6-1.5s-.4-.9-.9-.9-1 3.4-1 7.5zm18.9 2.9c0 .3-.4.8-1 1.1-.5.3-1 .1-1-.4 0-.6.5-1.1 1-1.1.6 0 1 .2 1 .4zm-6.5 4.6c-.3.5-1.3.6-2.1.3-1.2-.4-1.3-.8-.3-1.4 1.5-.9 3.2-.2 2.4 1.1zm9.6 3.2c-1 2.9-3 3.5-2.8.9 0-1.1.5-1.7.9-1.5.4.3.8 0 .8-.5 0-.6.4-1.1 1-1.1.5 0 .6.9.1 2.2zm7.9.8c.9.6 1.7.5 2.3-.3.5-.8.7-.5.4.8-.2 1.1-.9 1.9-1.7 1.7-.7-.2-1.7.3-2.2 1-.6.9-.7.5-.3-1 .4-1.3.2-2.2-.4-2.2-.6 0-1.1.5-1.1 1.1 0 .5-.5.7-1.1.3-.8-.4-.9.1-.4 1.7.9 2.8.3 2.4-1.5-1-.6-1.3-.8-2.1-.3-1.8.5.3 1.5.2 2.3-.4 1.9-1.1 2.1-1.1 4 .1zm-12.2 3.5c-.3.3-.9-.2-1.2-1.2-.6-1.4-.5-1.5.5-.6.7.7 1 1.5.7 1.8z"/><path d="M14.6 569.8c-.2.4.4.8 1.4.8 1 0 1.6-.4 1.4-.8-.3-.4-.9-.8-1.4-.8-.5 0-1.1.4-1.4.8zM51 582.5c0 .8.4 1.5 1 1.5.5 0 .7-.7.4-1.5-.4-.8-.8-1.5-1-1.5-.2 0-.4.7-.4 1.5zm-7.5.6c-.4.6-.4 1.3-.1 1.6.3.4.6.1.6-.5s.8-1.3 1.8-1.5c1.5-.4 1.5-.5 0-.6-.9 0-2 .4-2.3 1zM.4 584.2c-.3.4 0 .7.8.6.7-.2 1.2.2 1.1.9-.1.6.4 1.4 1.3 1.7.9.4 1.2.2.8-.5-.4-.6-.1-1.5.6-1.9.8-.5.3-.9-1.4-1.2-1.5-.3-2.9-.1-3.2.4zm7 1.4c-1 .8-1.3 1.3-.6.9.6-.3 1.2-.2 1.2.3s.6.9 1.4.9c.7 0 1.3-.6 1.2-1.3-.3-2.2-1.2-2.4-3.2-.8zm33.6.9c1.4 1.7 5 2 5 .4 0-.6-.9-.9-2-.6-1.1.3-2 .1-2-.4s-.5-.9-1.1-.9c-.8 0-.8.5.1 1.5zm39.7-.8c-.3.5-.1 1.7.3 2.7.5 1.6.8 1.7 1.5.6.5-.9.4-1.5-.3-1.8-.7-.2-1-.8-.6-1.3.3-.5.3-.9 0-.9s-.7.3-.9.7zm5.9.5c.5.8.1.9-1.2.4-1.4-.5-1.6-.4-.7.4.7.8 1.7.9 2.8.3 1.6-.9 1.6-1 .1-1.6-1.2-.5-1.5-.3-1 .5zm7.1.5c-1 .9-.9 2.3.2 2.3.5 0 1.1-.7 1.5-1.5.5-1.5-.5-2-1.7-.8zM55 591c0 .5.5 1 1.1 1 .5 0 .7-.5.4-1-.3-.6-.8-1-1.1-1-.2 0-.4.4-.4 1zm11 0c-.9.6-1 1-.3 1 .6 0 1.5-.5 1.8-1 .8-1.2.4-1.2-1.5 0zm3.5-.1c-.3.5-.2 1.2.3 1.5.5.3.9-.1.9-.9 0-1.7-.3-1.9-1.2-.6zm113.2 1.2c.7.7 1.5 1 1.8.7.3-.3-.2-.9-1.2-1.2-1.4-.6-1.5-.5-.6.5zm8.9.1c.3.5 1 .6 1.5.3 1.3-.9 1.1-1.2-.6-1.2-.8 0-1.2.4-.9.9zm4.4.9c0 .3.9.9 1.9 1.2 1.3.3 1.8 0 1.5-.7-.5-1.3-3.4-1.8-3.4-.5zm9.1.5c0 1.1.3 1.4.6.6.3-.7.2-1.6-.1-1.9-.3-.4-.6.2-.5 1.3zm3.5.5c.3.5 1.2.9 2.1.9 1.9 0 .9-1.3-1.2-1.6-.8-.1-1.3.2-.9.7z"/><path d="M214.1 595.2c-.1 1.6.4 2.8 1.1 2.8.6 0 .8.3.5.7-.4.3-1.6-.2-2.6-1.1-1.9-1.7-1.9-1.7-1.5.6.5 2 .4 2.1-.6.5-1.5-2.3-2.9-2.2-2.3.2.5 2-1.8 4.2-2.5 2.3-.2-.7-1.5-1.2-2.8-1.2-1.4 0-3.4-.5-4.5-1-1-.6-1.9-.7-1.9-.2 0 .5-1.3.8-2.9.6-2.4-.3-2.8 0-2.4 1.5.7 2.6-1.7 3.8-3.3 1.7-.9-1.3-1.3-1.4-1.7-.4-.3.8-.6.5-.6-.6-.1-1.9-.1-1.9-1.5-.1-1.3 1.8-1.4 1.8-1.1-.6.2-1.6-.2-2.6-1-2.6-.7 0-1.2.8-1 1.9.3 1.2-.2 1.8-1.4 1.8-.9 0-2.2.5-2.9 1.2-1.6 1.6-1.6-.4.1-2.2 1-1.2.9-1.2-.5-.1-1 .7-3.3 1.1-5.2.9-1.9-.2-3.2 0-3 .4.3.4.1.8-.5.8-.5 0-1.2-.3-1.5-.8-.2-.4-2.2-.7-4.3-.7-3.2 0-3.8.3-3.5 2 .2 1.8.1 1.8-1.8-.4-1.1-1.3-2-1.8-2-1.2 0 .7-.5.9-1 .6-.6-.4-.8-1.1-.4-1.6.3-.6-.3-.5-1.5.3-1.2.7-2.1 1.6-2.1 2.1 0 .4-1 .3-2.1-.4-1.7-.9-2.3-.8-3 .2-.7 1.1-1.4.7-3.2-1.5-2-2.4-2.4-2.6-2.4-1 0 1 .5 2.3 1.1 2.7.7.5.3.6-.8.3-1-.4-2.5-.1-3.2.5-1.2 1-1.3.9-.8-.5.4-1.1.1-1.6-1.3-1.6-1 0-2.5-.6-3.2-1.3-1.1-1-1.3-.8-.9.9.3 1.2.1 2.8-.4 3.5-.8 1.1-.9 1-.4-.4.3-.9.1-1.7-.4-1.7s-.7-.8-.4-1.8c.4-1.3.3-1.4-.4-.4-.5.8-1.2 1.2-1.5 1-.4-.1-1.6.5-2.8 1.5-1.1 1-2.3 1.7-2.5 1.4-.3-.2.2-1 1.1-1.7.8-.7 1.5-1.7 1.5-2.2 0-.6-.8-.4-1.7.3-1.5 1.2-1.6 1.2-1-.3.5-1.5.3-1.5-2.8.2-1.9 1.1-3.7 1.5-4 1-.3-.4.1-1 .7-1.3.7-.2 1-.7.7-1.1-.4-.4-1.7.4-3 1.8-2.3 2.4-3.9 2.6-3.9.3 0-.7.4-.6 1 .3.6.9 1 1 1 .3 0-1.6-1.7-2.6-2.5-1.3-.3.5-1.1 1-1.6 1-.6 0-.7-.6-.3-1.3.5-.8.2-.8-.9.2-1.6 1.3-1.6 1.5.3 3.1 1.8 1.6 1.8 1.8.2 3.6-1.3 1.4-1.1 1.4.8-.2 2.8-2.4 6.7-3 4.9-.8-.6.7-.7 1.9-.3 2.5.5.8.3.9-.6.4-.8-.5-1.1-.3-.8.6.3.9 1.6 1.3 3.8 1.1 1.9-.2 3 0 2.6.6-.3.6.7 1.5 2.3 2 2.3.8 3.2.7 4.2-.4 1-1.3 1.4-1.3 2.9.1 2.6 2.4 8.7 3.4 24.5 4 5.5.3 16.1.7 23.5 1.1 27.8 1.2 40 1.3 40 .1 0-.7.5-.5 1 .3s1 1 1 .5c0-.6 3.9-.9 10.2-.8 21.7.5 32.6 1.1 33.5 1.6.6.4 1.3.3 1.7 0 .4-.4 2.8-.6 5.4-.5 3.3.2 4.3 0 3.2-.7-.8-.5-1.9-.7-2.5-.4-.5.4-.2-.3.8-1.5 1.1-1.1 2.5-1.8 3.3-1.5.9.3 1.4-.2 1.4-1.3 0-1.6.2-1.7 1-.4.9 1.3 1 1.3 1 0 0-1.2.2-1.3.9-.1.6.9 1.6 1.1 3.2.5 1.3-.4 3.3-.8 4.4-.8 1.1-.1 2.6-.5 3.3-.9.7-.5 1.2-.3 1.2.5 0 1 .2 1 .8.1.4-.7 2.1-1 4-.8 1.9.2 3.2 0 3.2-.7 0-.6-.3-.9-.6-.5-.4.3-1.3 0-2-.8-.8-.7-1.9-1.5-2.6-1.8-2.2-.8.5-4 3.6-4.3 1.5-.1 4 .2 5.4.7 2.1.8 2.9.7 3.8-.5 1.4-2 2.5-2.1 1.7-.1-.4 1.3.1 1.5 2.7 1 2.2-.4 2.9-.2 2.5.6-.6.8-.2.8 1.3 0 2.4-1.3 3.5-1.4 2.8-.3-1 1.6 9.8 1 11.9-.7 1.8-1.5 1.9-1.5.7 0-1 1.4-1 1.8.3 2.3.9.3 1.4.2 1.1-.2-.2-.4-.1-1.4.5-2.2.6-1 .9-1.1.9-.3s1.4 1.3 3.8 1.3c2.7 0 3.3.3 2.2 1-1.2.7-1 .9.7.7 1.2 0 2-.4 1.7-.8-.2-.4.3-.9 1.1-1.3.8-.3 1.5 0 1.5.6s.6.5 1.7-.3c1.3-1.1 1.5-1.1.9-.1s-.2 1.3 1.5 1.1c1.3-.2 3.5.3 4.8 1 2.1 1.2 2.3 1.1 1.8-.3-.4-1.1-.1-1.6.9-1.6s1.4.6 1 1.5c-.3.8-.2 1.5.2 1.5 1.2 0 3.2-2.2 3.2-3.4 0-.6-.5-.4-1 .4-.8 1.2-1 1.1-1-.7 0-1.7.4-2 2.3-1.5 1.2.3 2.5 1 2.9 1.6.5.8.8.7.8-.2 0-.6.5-1.2 1.1-1.2.5 0 .7.6.3 1.2-.5 1-.4 1 .6.1.7-.6 1.9-.9 2.7-.6 1.1.4 1.1.8.3 1.3-.7.5-.2.9 1.4 1.2 1.4.3 2.6.1 2.6-.3 0-.5-.5-.9-1.2-.9-.6 0-.4-.6.6-1.3 1-.7 3.9-1.4 6.5-1.6 2.5-.1 4.8-.6 4.9-1.2.2-.5.8-.7 1.3-.3.5.3.9-.1 1-.8 0-.7.4-.4.9.7.6 1.3.9 1.5.9.5 0-.8-.5-2.2-1.2-3-1.4-1.8-6.9-2.1-6.3-.3.3.7-.1 1-.9.7-.8-.3-2-.2-2.7.2-1.8 1.2-3.8 1.4-3.8.5 0-.5-1.1-.6-2.5-.4-2.6.6-2.9 2.4-.5 3.5.9.4.4.6-1.3.5-1.5-.1-3.6-1.1-4.5-2.2-1.7-2-1.7-2 .6-.1 2.2 1.9 2.2 1.9 2.2 0 0-1.8-.8-2-10.4-1.9-5.7 0-10.2-.3-10-.7.3-.5 0-.8-.5-.8-.6 0-1.1.4-1.1 1 0 .5-.6 1-1.4 1-1.6 0-6.7-2.5-6.3-3.1.1-.2-.3.1-.9.8-.6.7-1.6.8-2.4.3-.8-.5-1.8-.6-2.2-.4-.5.3-.8.2-.7-.3.3-1.8-.2-2.8-.9-1.7-1 1.5-5.7 3-4.8 1.5.4-.6.3-1.1-.3-1.1-.5 0-1.6-.3-2.5-.6-1.1-.4-1.6-.1-1.6 1 0 1.3-.4 1.5-1.9.6-2.6-1.3-3.4-1.3-2.5.2.5.8 0 .7-1.1-.2-1-.8-3.7-1.5-5.9-1.6-2.3-.1-5.3-.5-6.8-.9-1.6-.4-2.8-.3-2.8.2s-1.5.9-3.4.9-3.2-.5-2.8-1c.3-.6-.3-.6-1.4-.2-1 .4-2.6.9-3.4 1.1-.8.2-1.7.4-2 .5-1.5.6-3.6.4-4.7-.4-.9-.6-1.3-.3-1.4 1 0 1.8-.1 1.8-.9-.1-.5-1.1-.9-1.4-.9-.6-.1 1.1-.4 1.1-1.6.1-1.2-1-1.5-.9-1.6.6 0 1.5-.2 1.6-.7.4-.8-1.6-2.9-1.9-5-.7-.7.5-2.2.5-3.3.2-1.4-.5-2.5-.2-3 .6-.7 1.1-.9 1.1-.9-.1 0-.9-1-1.6-2.6-1.8-1.6-.1-2.3.2-1.8.9.4.8 0 .8-1.5 0s-2.1-.9-2.1-.1c0 .6-.5.8-1.2.3-.7-.4-.5.5.5 2.1 2.1 3.1 2.1 3.1-1 4-1.5.5-2.3.3-2.3-.4s-.8-.9-2-.5c-1.5.5-2 .2-2-1.1 0-1.7-.1-1.7-1.3.1-.9 1.1-1.9 1.5-2.7 1-1-.6-1.2-.4-.7 1 .6 1.3.2 1.2-1.7-.6-1.9-1.8-2.2-2.7-1.4-4.2.5-1 .7-2.1.4-2.5-.3-.3-.6 0-.6.6 0 1.5-3.6 5.2-5.1 5.2-.5 0-.7-.4-.4-1 .4-.6-.2-.7-1.8-.1s-2.8.6-3.6-.2c-.8-.8-1.1-.7-1.1.3-.1 1-.7.8-2-.8-1-1.3-2.1-2.3-2.4-2.2-2.8.2-3.8-.3-4.6-2.3-.8-2.1-.9-2.1-.9.5zm48 2.7c.7-1.2.9-1.2.9 0 0 .8.3 1.1.7.8.3-.4 1.2.1 2 1.1.8.9 1.2 1.1.8.5-.4-.8-.1-1.1.9-.7 1.6.6 1.1 3.3-.8 3.5-.6.1-1.8.2-2.6.3-.8 0-1.8-.4-2.2-.9-.5-.6-.8-.5-.8.2s-.5 1.3-1.1 1.3c-.5 0-.7-.5-.3-1.1.4-.7 0-.9-1.4-.5-1.5.5-2.4.1-3.2-1.4-1-2-1-2.1.8-1.1 1.8.9 1.9.8 1.5-1-.5-1.9-.4-2 1.7-.9 1.8 1 2.4.9 3.1-.1zm16.9 3.5c0-.7 1.1-1.1 2.4-1 1.3 0 2.2.5 1.9.9-.3.5-1.1.6-1.9.3-.8-.3-1.4-.3-1.4 0 0 .2 1.2.9 2.7 1.5 2 .7 2.8.6 3.5-.3.6-1.1.8-1 .8 0 0 .9.8 1.1 2.3.8 1.2-.3 1.6-.3.9 0-.6.3-1 1-.7 1.5.4.5-1.3.7-3.7.5-2.4-.2-5.1-.4-6-.5-.9-.1-2-1-2.3-2.2-.5-1.6-1-1.8-2.1-.8-1.7 1.4-1.9-.2-.2-1.9.9-.9 1.4-.7 2.4.6.8.9 1.4 1.2 1.4.6zm-59.3-.8c-.3.3-1.2.4-1.9.1-.8-.3-.5-.6.6-.6 1.1-.1 1.7.2 1.3.5zm15.3.4c0 .5-.5 1-1.1 1-.5 0-.7-.5-.4-1 .3-.6.8-1 1.1-1 .2 0 .4.4.4 1zm37.3.4c.7-.3.3.2-.7 1-2.3 1.9-3.1 1.4-2.1-1.1.5-1.2.9-1.4 1.2-.5.3.6 1 1 1.6.6zm98.7 1c0 .3-.4.8-1 1.1-.5.3-1 .1-1-.4 0-.6.5-1.1 1-1.1.6 0 1 .2 1 .4z"/><path d="M218 595.1c0 .5.5.7 1 .4.6-.3 1-.8 1-1.1 0-.2-.4-.4-1-.4-.5 0-1 .5-1 1.1zm21.9 1.1c.8 2.3 3.9 2.7 5.1.8.3-.5 1.2-.5 2 0 1 .7 1.1 1 .3 1-.7 0-1.3.5-1.3 1.1 0 .8.4.9 1.3 0 .8-.6 1.8-.7 2.3-.3.4.4.3 0-.4-.9-.6-.9-.9-1.9-.6-2.2.3-.3-.8-.4-2.5-.2s-3.3 0-3.6-.6c-.4-.5-1.3-.9-2-.9-1.1 0-1.2.6-.6 2.2zm-17.4-.1c-.4.6-.5 1.2-.2 1.5.2.3.7-.2 1-1.1.7-1.7.1-2-.8-.4zm-32.5.9c-.9.6-1 1-.3 1 .6 0 1.5-.5 1.8-1 .8-1.2.4-1.2-1.5 0zm150.5.1c-.4.6-.5 1.2-.2 1.5.2.3.7-.2 1-1.1.7-1.7.1-2-.8-.4zm-140 .9c.3.5 1.2.7 2 .3 2.1-.7 1.9-1.3-.6-1.3-1.1 0-1.8.4-1.4 1zm184.3-.3c.7.3 1.6.2 1.9-.1.4-.3-.2-.6-1.3-.5-1.1 0-1.4.3-.6.6zM95 599c0 .5.5 1 1.1 1 .5 0 .7-.5.4-1-.3-.6-.8-1-1.1-1-.2 0-.4.4-.4 1zm294.5-.1c1.1.5 1.6 1 1.1 1-1.1.1 1.3 3.1 2.5 3.1.5 0 .9-.5.9-1.1 0-.5-.4-.8-.9-.5-.5.3-.8-.2-.7-1.2.1-1.1-.7-1.8-2.4-1.9-2.3-.2-2.3-.2-.5.6zm-290.6 2.3c-1.1 2-1 2.1.3 1.1 1.5-1.3 2.8-.8 2.8.9 0 .5-.5.6-1.2.2-.6-.4-.8-.3-.4.4.3.6 1.5 1 2.6.9 1.6-.1 1.7-.4.7-1.7-3.1-4-3.6-4.1-4.8-1.8zm90.1-.2c0 1.9.3 2.1 1.2 1.2.9-.9.9-1.5 0-2.4-.9-.9-1.2-.7-1.2 1.2zm205-1.1c0 .6.4 1.2.8 1.5.5.3.9-.1.9-.9s-.4-1.5-.9-1.5c-.4 0-.8.4-.8.9zm247.5 5.2c-.4.6-.5 1.2-.2 1.5.2.3.7-.2 1-1.1.7-1.7.1-2-.8-.4zm6 .9c.3.5.8 1 1.1 1 .2 0 .4-.5.4-1 0-.6-.5-1-1.1-1-.5 0-.7.4-.4 1zm6.8.4c-.9 1.1-.8 1.5.5 1.8 1.2.4 1.8-.1 1.8-1.3 0-2.2-.6-2.3-2.3-.5zm12.3-.7c-.3.3.4 1.4 1.6 2.5 2.8 2.4 3.6 1.6 1-1-1.1-1.1-2.3-1.8-2.6-1.5zM663 608c-.6 1.1-.8 2-.6 2 .3 0 1-.9 1.6-2 .6-1.1.8-2 .6-2-.3 0-1 .9-1.6 2zm-554.5.1c-.4.6-.5 1.2-.2 1.5.2.3.7-.2 1-1.1.7-1.7.1-2-.8-.4zm318.8 1.4c0 .8.4 1.2.9.9.5-.3.6-1 .3-1.5-.9-1.3-1.2-1.1-1.2.6zm-3.1.4c-1.1.7-1.1.9 0 1.4.9.3 1.5-.1 1.5-.9s-.1-1.4-.1-1.4c-.1 0-.7.4-1.4.9zM80.3 684.5c0 .8.4 1.2.9.9.5-.3.6-1 .3-1.5-.9-1.3-1.2-1.1-1.2.6zm8.7-.6c0 .7-.4.9-1 .6-.5-.3-1-.2-1 .2 0 .5 3.9 1 8.8 1.1 4.8.1 10 .4 11.6.8 2.1.5 2.7.3 2.4-.7-.3-.8-1.3-1.4-2.4-1.4-1 .1-2.2-.4-2.6-1-.5-.7-.8-.6-.8.1 0 1.4-3.3 1.4-4.3 0-.6-.8-1-.8-1.3.1-.4.9-1.3.9-3.2.2-1.9-.7-2.8-.7-3 .1-.3.8-.8.8-1.8-.1-1.1-.9-1.4-.9-1.4 0zm-5.5 1.1c-.3.5-.1 1 .4 1 .6 0 1.1-.5 1.1-1 0-.6-.2-1-.4-1-.3 0-.8.4-1.1 1zm28.2.3c-.3.9 1.7 1.3 7.1 1.5 4.2.1 7.3-.1 6.9-.5-.5-.4-3.1-.8-5.9-.9-2.8-.2-5.6-.5-6.3-.8-.8-.3-1.5.1-1.8.7zm17.3.7c0 .5.5 1 1.1 1 .5 0 .7-.5.4-1-.3-.6-.8-1-1.1-1-.2 0-.4.4-.4 1zm6.4-.3c.3.3 2.6.7 5.1.8 2.5.1 4.3-.1 4-.4-.4-.3-2.6-.6-5.1-.7-2.5-.1-4.3 0-4 .3z"/></svg>