<?xml version="1.0" standalone="no"?>
<!DOCTYPE svg PUBLIC "-//W3C//DTD SVG 20010904//EN"
 "http://www.w3.org/TR/2001/REC-SVG-20010904/DTD/svg10.dtd">
<svg version="1.0" xmlns="http://www.w3.org/2000/svg"
 width="1080.000000pt" height="1080.000000pt" viewBox="0 0 1080.000000 1080.000000"
 preserveAspectRatio="xMidYMid meet">
<metadata>
Created by potrace 1.11, written by Peter Selinger 2001-2013
</metadata>
<g transform="translate(0.000000,1080.000000) scale(0.100000,-0.100000)"
fill="#000000" stroke="none">
<path d="M0 8460 c0 -1645 3 -2340 11 -2340 5 0 7 -6 3 -12 -6 -10 -4 -10 8 0
14 11 18 10 28 -5 7 -11 10 -12 7 -3 -6 21 21 47 29 27 3 -9 14 -12 30 -9 13
2 24 0 24 -5 0 -12 58 -15 64 -4 9 14 234 1 296 -17 8 -2 31 -6 50 -9 19 -3
38 -10 42 -16 3 -5 20 -10 38 -9 18 0 44 -4 59 -10 14 -6 37 -13 51 -15 13 -2
30 -9 36 -14 7 -6 16 -4 24 6 17 20 31 19 23 -2 -4 -11 -3 -14 5 -9 6 4 22 1
34 -5 32 -17 68 -20 62 -5 -3 8 3 12 18 11 12 -1 30 8 39 19 15 18 19 19 35 6
17 -13 16 -12 -1 9 -17 21 -18 24 -2 18 9 -4 17 -2 17 3 0 5 6 8 13 6 6 -1 9
-1 4 1 -14 9 -7 23 13 23 11 0 20 -4 20 -10 0 -5 7 -7 16 -3 9 3 20 0 25 -8 7
-11 9 -10 9 4 0 11 4 15 12 11 7 -4 8 -3 4 5 -5 7 -16 9 -29 5 -19 -6 -20 -5
-9 8 9 12 21 14 47 8 20 -5 38 -4 41 1 4 7 59 6 59 -1 0 -3 41 -10 68 -12 15
0 27 -6 27 -12 0 -7 3 -7 8 -1 12 17 34 16 47 -2 7 -10 17 -15 21 -10 4 4 2 7
-4 7 -7 0 -12 5 -12 11 0 5 15 -1 33 -15 37 -28 52 -33 41 -13 -5 9 -4 9 6 0
7 -6 19 -9 28 -6 11 5 13 3 7 -7 -6 -10 -4 -12 8 -7 10 4 17 2 17 -4 0 -6 7
-9 15 -5 8 3 15 0 15 -5 0 -7 11 -9 25 -7 16 4 25 0 28 -11 4 -13 5 -13 6 2 1
20 14 22 33 5 7 -7 20 -13 28 -13 8 0 14 -6 12 -14 -2 -11 3 -10 23 3 14 9 30
14 35 11 5 -3 12 -1 15 5 5 8 11 7 21 -1 8 -6 14 -8 14 -4 0 5 9 0 20 -10 11
-10 20 -22 20 -26 0 -14 -64 -27 -77 -16 -8 5 -13 6 -13 0 0 -14 21 -32 34
-29 6 2 8 1 3 -1 -4 -3 -4 -9 -1 -15 4 -6 -2 -5 -15 1 -14 8 -21 8 -21 1 0 -5
-5 -10 -11 -10 -5 0 -7 5 -3 12 4 7 3 8 -4 4 -7 -4 -12 -2 -12 5 0 7 -3 9 -6
6 -4 -4 -2 -13 5 -21 7 -8 8 -16 4 -18 -4 -3 -2 -3 5 -2 6 2 12 -2 13 -9 0 -7
3 -4 7 5 6 15 9 15 26 2 17 -12 18 -14 3 -14 -11 0 -17 -8 -17 -21 0 -21 0
-21 -21 2 -11 13 -17 18 -14 10 6 -10 2 -11 -15 -6 -13 4 -20 3 -17 -2 3 -5
-4 -8 -16 -7 -12 1 -22 3 -22 4 0 1 -12 3 -27 4 -16 1 -28 -2 -28 -6 0 -4 -6
-7 -12 -5 -7 1 -12 -4 -10 -12 3 -12 0 -12 -13 -1 -8 7 -18 10 -22 7 -3 -4
-12 -2 -20 4 -10 9 -13 8 -13 -1 0 -9 -4 -10 -13 -2 -15 13 -60 4 -51 -9 3 -5
-2 -9 -11 -9 -8 0 -18 7 -22 16 -5 13 -7 13 -14 2 -7 -11 -9 -11 -9 1 0 8 -8
4 -19 -10 l-20 -24 5 25 c5 20 3 22 -5 10 -6 -8 -11 -11 -11 -6 0 5 -7 3 -15
-4 -14 -12 -19 -7 -16 13 1 5 -3 6 -8 3 -5 -3 -7 -15 -4 -26 3 -11 0 -20 -6
-20 -6 0 -11 4 -11 9 0 4 -18 7 -40 6 -22 -1 -40 2 -40 8 0 5 15 7 35 4 22 -4
37 -1 41 6 4 7 4 9 0 5 -5 -4 -18 -3 -31 2 -16 6 -29 4 -44 -6 -18 -13 -21
-13 -21 -1 0 8 -9 17 -21 20 -16 4 -19 2 -15 -10 5 -13 4 -13 -8 -4 -7 6 -31
14 -52 16 -22 3 -44 11 -49 19 -9 11 -12 11 -23 -1 -7 -7 -17 -11 -23 -8 -5 4
-9 1 -9 -6 0 -9 -3 -9 -14 1 -8 6 -23 10 -34 8 -10 -2 -27 4 -36 12 -10 8 -28
15 -39 17 -17 2 -19 1 -7 -6 8 -5 18 -7 22 -5 4 3 8 0 8 -5 0 -16 -15 -13 -43
9 -18 15 -28 17 -33 9 -5 -8 -3 -9 6 -4 9 5 11 4 6 -4 -9 -14 -26 -5 -26 15 0
8 -7 14 -15 14 -8 0 -15 -5 -15 -11 0 -5 5 -7 12 -3 7 5 8 3 3 -6 -7 -11 -10
-10 -19 1 -6 8 -18 14 -26 14 -8 0 -18 4 -22 10 -5 6 -8 6 -8 -2 0 -9 -7 -10
-26 -2 -15 5 -29 7 -32 4 -3 -2 -11 3 -18 13 -8 10 -13 12 -14 5 0 -7 -5 -13
-11 -13 -5 0 -8 3 -5 8 2 4 -13 6 -35 4 -31 -3 -39 -1 -39 13 0 9 -5 13 -11 9
-6 -3 -15 0 -20 7 -7 11 -9 10 -9 -5 0 -15 -3 -16 -14 -7 -15 13 -32 -1 -22
-18 4 -5 -4 -7 -16 -3 -12 3 -17 7 -10 10 6 2 12 8 12 13 0 6 -10 5 -22 -2
l-23 -12 20 23 20 23 -21 -11 c-16 -8 -24 -8 -34 1 -10 10 -11 9 -5 -2 6 -11
4 -13 -8 -8 -12 4 -14 2 -10 -11 6 -15 5 -15 -10 -3 -9 7 -17 10 -17 5 0 -5
-5 -2 -10 6 -6 10 -10 11 -10 3 0 -7 -4 -13 -10 -13 -5 0 -10 7 -10 16 0 12
-6 15 -22 11 -12 -4 -27 -2 -34 4 -8 7 -14 7 -19 -1 -4 -7 -12 -7 -26 1 -15 8
-24 7 -35 -2 -12 -10 -13 -9 -7 7 6 17 5 18 -12 4 -17 -14 -18 -13 -13 5 4 15
0 21 -14 22 -10 1 -16 -2 -13 -8 11 -17 -4 -9 -25 13 l-21 23 -6 -25 c-6 -22
-7 -22 -13 -4 -4 10 -2 26 4 34 10 13 9 13 -6 1 -10 -7 -15 -18 -11 -25 4 -7
1 -7 -7 1 -11 10 -11 15 0 28 7 8 8 15 2 15 -20 0 -22 -35 -22 -314 l0 -283
22 1 c13 1 43 -4 67 -11 61 -18 148 -25 156 -14 3 6 12 8 20 4 9 -3 15 1 15 8
0 9 14 15 38 16 20 1 102 5 182 8 80 4 152 9 160 12 24 9 44 9 58 -1 7 -5 12
-4 12 3 0 7 5 9 12 5 12 -8 88 -13 218 -16 48 0 85 4 100 13 26 14 31 15 68
17 19 2 21 6 16 28 -5 19 -4 25 5 20 6 -4 9 -12 6 -17 -4 -5 -1 -9 4 -9 6 0
11 6 11 13 0 8 3 9 8 1 14 -21 37 -21 48 0 6 12 17 19 25 17 32 -8 89 -9 84
-1 -3 5 0 12 6 16 7 4 9 3 5 -4 -9 -15 15 -21 42 -9 16 8 26 7 34 -1 16 -16
33 -15 20 1 -8 10 0 12 41 9 92 -5 108 -4 125 10 13 11 14 11 7 -1 -6 -10 -4
-13 6 -9 8 3 23 0 34 -8 22 -16 39 -18 30 -4 -3 6 1 7 10 4 9 -4 14 -13 11
-21 -3 -8 -1 -11 4 -8 6 4 24 8 40 10 22 3 30 0 30 -11 0 -10 10 -14 33 -14
36 2 57 -2 74 -13 6 -4 13 -1 16 5 3 9 11 7 28 -7 13 -11 18 -13 12 -5 -9 12
-7 15 12 15 13 0 21 -3 18 -7 -7 -13 32 -9 44 3 7 7 19 8 30 4 30 -13 55 -16
48 -6 -3 6 4 8 16 6 25 -5 40 -23 33 -40 -3 -5 3 0 12 13 20 26 34 29 34 5 0
-13 3 -14 12 -5 16 16 41 16 32 0 -6 -10 -4 -10 8 0 11 9 18 10 23 2 3 -6 12
-7 18 -3 17 11 29 11 51 0 15 -7 18 -6 13 6 -4 11 0 13 14 10 10 -3 19 -10 19
-15 0 -5 4 -7 8 -4 17 10 62 15 57 5 -6 -9 -1 -10 53 -13 15 -1 32 -4 38 -8 5
-4 30 -7 55 -7 77 -2 87 -4 82 -21 -3 -11 -1 -10 10 3 15 18 16 18 26 0 6 -10
11 -14 11 -10 0 4 9 3 20 -3 15 -8 20 -8 20 2 0 9 3 10 8 2 8 -12 70 -13 90 0
8 5 11 3 10 -6 -2 -8 4 -12 16 -10 11 2 28 -6 39 -20 10 -12 15 -16 11 -8 -7
13 -5 13 9 1 11 -9 17 -10 17 -2 0 6 7 11 15 11 8 0 15 -3 15 -8 0 -4 18 -6
40 -4 34 3 40 1 40 -14 0 -11 3 -15 8 -9 8 12 27 13 38 3 10 -11 26 -10 20 0
-2 4 7 8 22 7 17 0 27 -6 27 -15 1 -8 7 -14 14 -12 7 1 19 -2 26 -8 9 -7 20
-6 39 3 14 8 24 16 21 19 -3 2 3 5 12 5 10 0 21 -5 25 -11 6 -8 8 -7 8 1 0 8
18 11 54 10 41 -2 52 -5 44 -14 -9 -11 17 -12 57 -2 6 1 18 -1 29 -6 11 -5 21
-3 25 4 4 6 15 9 24 5 9 -3 17 -2 17 2 0 5 13 9 29 9 16 0 27 -3 24 -7 -6 -10
1 -10 32 2 17 7 24 7 20 0 -3 -6 -2 -10 4 -10 5 0 12 6 14 13 4 9 6 9 6 -1 1
-8 6 -10 13 -6 18 11 107 14 114 3 3 -5 14 -4 26 2 15 8 19 8 14 0 -4 -6 -2
-11 3 -11 6 0 11 5 11 10 0 6 6 10 14 10 8 0 17 6 19 13 3 7 6 4 6 -6 1 -16 3
-17 22 -4 11 8 30 12 41 9 14 -3 19 -1 14 6 -7 12 6 17 17 6 8 -8 86 -12 85
-5 -2 19 4 24 12 11 7 -12 13 -12 33 -1 14 7 30 11 35 7 6 -3 14 -1 18 5 5 8
3 9 -7 4 -12 -7 -12 -6 0 6 10 11 15 11 18 2 3 -7 9 -13 14 -13 6 0 7 5 4 10
-3 6 1 10 9 10 9 0 16 -4 16 -9 0 -15 32 -6 42 12 5 9 14 17 20 17 7 0 7 -4 0
-13 -8 -10 -5 -13 16 -15 21 -1 24 0 12 8 -11 8 -7 9 15 4 17 -3 36 -7 43 -10
7 -2 15 3 18 11 4 8 14 15 23 15 12 0 13 -2 3 -8 -7 -5 3 -8 25 -8 21 1 44 5
50 9 8 5 13 3 13 -5 0 -10 2 -10 8 -1 5 7 21 11 40 9 18 -3 32 0 32 5 0 5 5 9
11 9 5 0 8 -3 6 -7 -6 -10 68 -8 84 2 8 6 10 4 4 -4 -6 -10 -3 -11 14 -2 13 8
21 8 21 2 0 -7 9 -7 25 -1 14 5 25 7 25 4 0 -4 6 -1 13 5 8 6 16 9 18 7 2 -3
28 -7 58 -11 29 -3 56 -6 60 -7 3 0 8 1 11 2 3 1 39 3 80 5 41 2 83 6 93 10 9
4 26 5 37 2 11 -3 18 -1 14 4 -7 12 3 11 28 -2 15 -8 19 -8 13 1 -4 7 -1 11 6
9 28 -3 39 1 39 16 0 8 4 15 10 15 5 0 7 -8 4 -17 -5 -14 -4 -15 4 -4 5 7 8
23 5 35 -4 19 -3 19 7 4 6 -10 16 -18 23 -18 7 0 6 4 -3 10 -23 14 -4 24 41
21 23 -1 47 3 55 10 8 6 14 7 14 2 0 -5 9 -9 20 -10 13 -1 18 2 14 9 -4 7 -2
8 5 4 6 -4 19 -2 27 5 12 10 13 9 8 -7 -5 -18 -5 -18 6 -1 6 9 17 14 23 10 7
-3 3 4 -8 17 l-20 24 34 -24 c27 -19 35 -20 42 -9 5 9 9 10 9 2 0 -14 23 -11
42 5 8 6 17 10 20 7 3 -3 13 4 23 15 10 11 24 20 31 20 7 0 15 8 17 18 3 10 5
6 6 -11 0 -15 -2 -26 -6 -26 -20 3 -34 -2 -28 -11 4 -7 13 -7 24 0 12 6 22 5
30 -3 9 -9 11 -6 9 13 -2 20 1 25 20 25 13 0 32 11 43 25 12 14 18 19 14 13
-4 -8 -1 -11 8 -7 18 6 15 47 -4 52 -11 3 -11 1 1 -7 13 -9 13 -11 -2 -11 -9
0 -19 6 -22 13 -5 10 -7 10 -12 0 -6 -14 -25 -18 -23 -5 3 19 -2 33 -11 27 -6
-4 -7 1 -3 11 4 12 3 15 -5 10 -7 -4 -12 -15 -12 -23 0 -14 -4 -13 -20 5 -12
13 -27 19 -38 16 -14 -5 -15 -4 -2 5 13 9 13 11 -2 11 -15 0 -24 20 -15 34 1
2 -6 13 -16 24 -12 13 -15 22 -8 27 6 3 11 -1 11 -9 0 -9 5 -16 10 -16 6 0 10
-7 8 -16 -2 -10 3 -19 10 -21 8 -3 10 2 6 14 -5 17 -5 17 9 0 9 -11 13 -25 11
-32 -8 -19 34 -26 45 -8 4 9 14 13 20 9 6 -4 9 -11 7 -15 -3 -4 0 -13 5 -21 7
-11 8 -8 5 10 -2 14 -6 30 -8 37 -1 6 6 18 16 26 16 11 16 15 5 22 -8 5 -11 5
-7 0 7 -8 -33 -43 -41 -36 -2 1 -7 -3 -11 -9 -5 -8 -9 -7 -13 3 -4 11 -1 15
12 12 14 -2 18 3 19 26 1 35 -5 37 -18 7 -6 -17 -9 -19 -9 -6 -1 11 -6 15 -16
12 -8 -4 -12 -11 -9 -16 4 -6 -2 -5 -14 1 -12 6 -25 18 -29 25 -10 17 -37 25
-38 11 0 -5 -6 -19 -12 -30 -11 -18 -12 -18 -13 -2 0 20 -16 23 -23 5 -3 -10
-7 -10 -19 0 -13 10 -17 10 -22 -3 -3 -9 0 -15 9 -15 12 0 12 -3 -2 -18 -18
-18 -35 -10 -27 12 2 6 0 17 -5 25 -8 12 -12 12 -25 2 -8 -7 -12 -19 -9 -27 3
-8 0 -14 -7 -14 -7 0 -10 8 -7 19 2 10 1 25 -4 32 -6 10 -9 5 -9 -14 0 -26 -1
-27 -16 -13 -8 9 -20 14 -25 11 -5 -4 -9 -1 -9 4 0 6 -5 11 -10 11 -7 0 -7 -6
0 -20 6 -11 16 -17 25 -14 8 4 15 2 15 -3 0 -5 -11 -9 -24 -9 -14 0 -23 2 -21
5 1 4 -3 11 -10 18 -9 8 -18 6 -38 -11 -15 -13 -26 -25 -24 -27 1 -2 -2 1 -8
7 -5 6 -14 11 -20 10 -5 -1 -11 8 -12 19 -3 19 -3 19 5 1 7 -15 10 -17 17 -6
15 25 14 60 -2 60 -10 0 -13 6 -9 18 6 16 5 16 -8 -1 -17 -22 -27 -3 -15 28 4
11 8 16 8 11 1 -5 7 -3 14 3 10 8 22 7 46 -2 27 -10 33 -9 41 3 8 12 11 13 19
1 6 -10 10 -10 16 -1 5 9 9 9 14 1 5 -8 17 -8 42 0 18 6 54 10 78 10 24 -1 51
4 59 11 13 11 14 11 8 -1 -6 -9 0 -8 17 4 19 12 27 13 33 4 4 -7 3 -9 -4 -5
-6 3 -13 2 -16 -3 -4 -5 1 -8 10 -7 8 1 19 8 23 15 5 7 20 14 34 14 14 1 24 4
22 6 -6 6 22 31 35 31 6 0 8 -5 4 -11 -5 -8 -1 -8 14 0 27 14 35 14 27 -1 -4
-7 0 -5 9 6 8 10 19 15 25 11 6 -3 11 -2 11 3 0 14 59 21 64 8 2 -6 5 -3 5 7
1 10 9 17 20 17 11 0 22 6 24 13 4 9 8 8 16 -3 7 -9 11 -10 11 -3 0 6 -4 15
-10 18 -16 10 -12 25 5 19 8 -4 15 -12 15 -20 0 -16 26 -19 35 -4 3 6 -1 7 -9
4 -11 -4 -16 0 -16 10 0 14 11 20 32 17 4 0 12 8 18 18 12 23 50 17 50 -8 0
-13 2 -14 9 -1 6 8 7 19 3 25 -3 5 2 4 11 -4 9 -7 14 -18 10 -25 -5 -7 -2 -7
8 1 15 12 116 12 136 0 7 -4 15 -3 18 3 5 8 11 8 20 0 8 -6 16 -7 19 -2 3 5
36 10 73 10 38 0 83 3 101 6 19 4 32 2 32 -4 0 -5 5 -10 11 -10 5 0 7 5 4 10
-3 6 -2 10 4 10 5 0 13 -5 16 -10 4 -6 10 -8 14 -6 16 10 61 14 66 6 3 -4 30
-2 60 5 53 12 56 11 70 -8 8 -12 15 -16 15 -10 0 6 11 18 24 26 23 15 24 15
18 -5 -3 -12 -1 -19 4 -15 5 3 10 -3 10 -13 0 -10 -4 -16 -8 -14 -4 3 -8 0 -8
-5 0 -6 5 -11 11 -11 6 0 9 -7 5 -15 -3 -8 -1 -15 4 -15 6 0 10 9 10 20 0 11
4 20 10 20 5 0 7 -7 4 -15 -5 -13 -2 -14 21 -5 33 13 38 13 30 0 -3 -5 1 -10
9 -10 9 0 16 -5 16 -11 0 -5 5 -7 11 -3 8 4 9 0 4 -15 -5 -15 -2 -21 10 -21 9
0 13 -5 9 -11 -3 -6 0 -15 7 -20 11 -7 10 -9 -3 -9 -10 0 -21 0 -24 1 -3 0
-12 -8 -19 -18 -11 -14 -16 -16 -26 -5 -7 6 -20 12 -28 12 -14 -1 -13 -3 2
-14 24 -18 21 -29 -4 -15 -12 6 -24 7 -28 3 -3 -5 -22 -10 -41 -11 -29 -2 -32
0 -15 8 17 8 16 9 -7 4 -16 -3 -28 0 -31 8 -4 9 -6 9 -6 -1 -1 -7 -5 -11 -10
-7 -5 3 -12 1 -15 -4 -3 -5 1 -11 9 -15 8 -3 15 -1 15 5 0 6 5 7 11 3 15 -9
-9 -24 -27 -17 -7 2 -15 -5 -19 -16 -3 -12 -11 -18 -17 -15 -6 4 -5 10 3 15
10 6 8 9 -8 9 -17 0 -21 -4 -16 -17 6 -15 5 -16 -9 -3 -11 11 -12 17 -4 22 8
6 8 8 -1 8 -26 0 -28 -2 -25 -18 3 -13 1 -14 -12 -3 -9 8 -16 9 -16 3 0 -6 -8
-9 -17 -7 -10 2 -28 4 -41 4 -13 1 -20 5 -17 11 4 6 1 9 -7 8 -7 -2 -12 3 -10
10 1 6 -2 12 -8 12 -14 0 -12 -11 4 -29 10 -12 11 -23 4 -41 -7 -18 -11 -21
-17 -11 -7 10 -9 9 -14 -3 -4 -11 -1 -16 11 -16 15 0 15 -2 2 -10 -13 -8 -13
-10 2 -10 9 0 19 -4 22 -9 4 -5 -3 -7 -15 -4 -11 3 -23 12 -26 19 -3 8 -9 12
-13 9 -5 -3 -6 4 -3 15 3 12 0 20 -6 20 -7 0 -10 4 -6 9 3 6 14 8 25 6 21 -4
27 9 10 20 -6 3 -10 2 -10 -3 0 -5 -15 -4 -34 2 -23 7 -32 15 -29 26 3 8 -4 4
-15 -10 -12 -14 -18 -27 -16 -30 3 -2 8 1 12 7 5 7 13 9 21 4 10 -7 9 -10 -8
-16 -12 -3 -19 -11 -16 -16 4 -5 -1 -9 -9 -9 -9 0 -16 -4 -16 -9 0 -19 -27
-18 -39 1 -11 18 -10 19 10 13 14 -5 19 -3 15 3 -3 6 0 13 6 15 10 4 9 6 -1 6
-11 1 -11 4 0 18 10 11 10 14 2 9 -7 -4 -13 -3 -13 3 0 5 6 11 13 14 6 2 9 8
5 11 -3 4 -14 -5 -24 -21 -9 -15 -29 -38 -43 -50 -21 -18 -23 -25 -13 -35 11
-11 12 -10 7 5 -10 24 17 22 33 -3 7 -12 17 -18 22 -15 6 3 10 1 10 -5 0 -6
10 -2 22 10 15 14 24 17 29 9 4 -7 14 -9 23 -6 16 7 18 3 19 -46 1 -22 5 -27
19 -24 10 3 16 2 13 -3 -8 -13 21 -20 33 -8 8 8 16 6 27 -6 9 -9 27 -16 40
-16 13 0 35 -4 49 -10 19 -7 26 -6 26 3 0 9 2 9 9 -1 5 -8 17 -11 33 -7 16 4
29 2 33 -6 5 -8 4 -10 -3 -5 -7 4 -12 2 -12 -3 0 -14 17 -14 25 -1 3 6 15 10
26 10 10 0 19 6 19 13 0 8 4 7 10 -3 7 -10 13 -11 18 -5 4 6 21 11 37 11 17 0
42 3 58 7 22 6 27 4 28 -10 0 -16 1 -16 8 1 8 21 26 27 89 27 23 1 42 5 42 11
0 6 7 4 17 -3 15 -12 16 -12 8 1 -6 12 -5 13 5 3 9 -9 19 -9 33 -2 15 9 18 8
12 -1 -8 -12 18 -12 65 1 9 3 14 -2 14 -13 -1 -10 3 -15 9 -11 5 3 16 -2 23
-11 14 -19 38 -13 29 7 -3 7 2 2 11 -10 9 -13 25 -23 36 -23 15 0 19 -5 15
-20 -3 -11 -1 -18 4 -14 5 3 9 0 9 -5 0 -6 5 -11 11 -11 8 0 8 5 -1 15 -15 18
1 20 18 3 10 -10 15 -10 23 2 8 11 9 10 4 -8 -5 -18 -3 -23 9 -20 8 2 21 -5
28 -14 15 -20 79 -33 161 -33 31 0 57 -3 57 -7 0 -4 8 -5 18 -4 9 2 44 -2 76
-9 33 -7 67 -11 75 -9 57 10 91 12 85 3 -3 -6 9 -7 33 -4 21 3 54 5 73 4 19 0
40 -1 45 -1 210 11 257 16 276 28 8 4 9 3 5 -4 -8 -14 40 2 61 20 9 7 17 7 27
-1 9 -8 16 -8 20 -2 4 6 -3 15 -14 21 -11 6 -18 16 -14 21 3 6 9 8 12 5 3 -3
12 0 21 7 14 11 14 10 2 -5 -12 -16 -11 -18 3 -18 9 0 16 4 16 8 0 5 17 9 38
9 60 1 64 2 56 15 -5 8 0 9 14 6 12 -4 22 -2 22 3 0 4 9 13 20 19 16 9 20 8
20 -5 0 -9 -4 -14 -9 -11 -5 4 -6 -4 -3 -16 5 -19 7 -20 10 -5 2 9 8 14 14 11
7 -4 8 -2 4 4 -4 7 -2 12 4 12 6 0 8 6 5 13 -3 6 0 4 7 -6 38 -55 36 -53 50
-38 11 12 10 13 -5 8 -11 -4 -16 -3 -12 3 3 6 13 10 21 10 9 0 12 5 8 12 -4 7
-3 8 5 4 6 -4 8 -13 4 -19 -5 -9 -3 -9 8 0 10 8 19 9 25 3 6 -6 29 -11 52 -12
24 -1 45 -5 48 -9 2 -5 16 -4 30 1 14 6 38 9 53 8 14 -1 32 1 38 5 6 4 14 3
18 -2 3 -7 15 -7 30 -1 16 6 27 6 30 -1 4 -5 15 -7 26 -4 10 4 24 3 31 -2 18
-10 46 -13 176 -14 81 -1 123 -6 145 -17 22 -11 32 -12 35 -4 2 7 8 9 13 6 6
-3 16 -1 23 5 11 9 18 8 30 -4 12 -12 16 -13 16 -3 0 10 3 9 10 -2 9 -13 10
-13 10 0 0 13 1 13 10 0 6 -10 10 -11 10 -2 0 6 4 12 10 12 5 0 6 -7 3 -17 -5
-12 -3 -14 8 -7 22 14 88 11 94 -4 4 -11 8 -10 20 2 9 8 23 12 32 9 13 -5 11
-10 -13 -30 -16 -12 -34 -23 -41 -23 -6 0 -13 -5 -15 -12 -3 -7 -7 -5 -11 6
-4 9 -3 15 2 11 5 -3 13 0 17 7 4 7 4 10 -1 6 -4 -4 -15 -2 -23 5 -9 6 -13 7
-10 2 4 -6 3 -17 -2 -25 -7 -11 -11 -12 -24 0 -14 11 -16 10 -10 -3 3 -8 0
-17 -8 -20 -7 -2 -3 -2 9 -1 12 2 24 -2 26 -9 3 -7 6 -4 6 6 1 12 5 16 14 10
21 -13 47 -13 47 0 0 8 4 7 11 -3 8 -12 9 -10 4 8 -4 13 -2 22 5 22 6 0 8 -4
5 -10 -3 -5 -2 -10 4 -10 6 0 8 -6 5 -14 -4 -11 0 -13 15 -9 14 3 21 1 21 -8
0 -11 2 -11 10 1 7 12 12 12 29 -5 12 -10 24 -15 28 -12 3 4 1 7 -5 7 -7 0
-12 5 -12 10 0 7 6 7 19 0 14 -7 21 -6 25 3 4 6 4 2 2 -10 -2 -15 0 -20 10
-16 7 2 10 12 6 21 -5 14 -4 15 10 2 9 -8 13 -19 11 -24 -3 -5 0 -6 8 -4 8 3
13 14 11 24 -2 16 -1 17 7 4 9 -12 11 -13 11 -1 0 8 3 12 6 9 3 -4 1 -15 -5
-25 -8 -15 -7 -20 4 -20 8 0 12 4 9 9 -3 4 7 8 23 7 15 0 22 -3 15 -6 -6 -2
-9 -9 -6 -14 3 -6 12 -5 22 3 15 12 16 11 3 -5 -8 -10 -21 -15 -29 -12 -12 4
-13 3 -2 -10 7 -8 17 -12 24 -8 6 4 5 -1 -3 -10 -12 -16 -12 -17 5 -11 10 4
25 12 33 18 12 8 13 8 7 -2 -5 -9 0 -21 12 -33 19 -17 22 -17 30 -3 6 11 11
13 16 5 5 -8 13 -8 27 -1 10 6 19 8 19 5 0 -3 9 -1 19 4 14 8 20 7 24 -3 4
-10 0 -12 -15 -8 -15 3 -19 1 -14 -7 8 -12 76 -12 76 0 0 4 21 -3 47 -16 25
-13 50 -22 55 -19 4 3 8 0 8 -5 0 -6 -5 -11 -11 -11 -5 0 -8 -4 -5 -9 3 -5 15
-7 27 -4 12 4 25 0 29 -7 7 -11 14 -11 35 -2 14 7 24 9 21 4 -2 -4 4 -13 15
-20 11 -7 19 -8 19 -2 0 5 -5 10 -12 10 -6 0 -9 2 -6 5 9 10 58 -17 51 -28 -3
-6 -1 -7 5 -3 6 4 9 14 6 24 -5 14 -4 15 5 2 12 -17 42 -20 53 -5 5 6 8 6 8
-1 0 -7 13 -10 30 -9 17 1 30 -1 30 -6 0 -5 7 -6 15 -2 22 8 21 310 -1 310 -8
0 -14 -3 -14 -7 0 -6 -41 -5 -47 0 -9 8 -50 4 -63 -4 -13 -10 -13 -9 0 8 18
23 24 54 7 37 -16 -16 -37 -14 -37 3 0 8 -4 17 -9 21 -10 5 -5 -37 5 -59 3 -6
-2 -2 -10 9 -9 11 -14 25 -12 32 3 7 0 13 -7 13 -8 0 -7 3 2 9 12 8 12 12 2
25 -11 14 -11 16 3 16 10 0 15 4 11 9 -3 6 3 9 14 8 18 -1 19 -27 0 -27 -5 0
-9 -6 -9 -12 0 -7 12 0 25 15 14 15 25 25 25 22 0 -3 9 -1 21 5 12 7 18 18 15
26 -3 8 -2 12 3 9 5 -3 28 -7 50 -9 l40 -4 1 468 c0 339 -3 470 -11 475 -8 6
-7 10 2 16 11 7 9 9 -5 9 -20 0 -20 0 0 15 18 14 18 14 -3 8 -15 -3 -23 -13
-23 -27 0 -15 -3 -17 -9 -7 -6 9 -10 10 -16 2 -5 -9 -10 -9 -20 -1 -10 8 -15
8 -20 0 -5 -8 -11 -8 -21 1 -11 9 -14 9 -14 -1 0 -8 -9 -11 -25 -8 -26 5 -35
-6 -12 -16 6 -3 3 -4 -8 -3 -11 1 -26 9 -33 17 -10 13 -11 12 -5 -5 6 -19 6
-19 -14 -2 -22 19 -33 22 -33 6 0 -5 4 -8 9 -4 5 3 12 1 16 -5 3 -5 -3 -10
-14 -10 -12 0 -21 6 -21 13 0 6 -11 -1 -25 -18 -13 -16 -24 -25 -25 -18 0 6 4
15 10 18 18 11 11 23 -10 18 -11 -3 -20 -13 -21 -22 0 -10 -2 -11 -6 -3 -2 6
-9 12 -14 12 -6 0 -7 -6 -4 -12 4 -7 0 -6 -7 4 -9 10 -27 16 -48 15 -24 -2
-34 2 -32 11 1 8 -2 11 -8 7 -6 -3 -8 -11 -5 -16 3 -5 -1 -6 -10 -2 -10 3 -21
0 -26 -8 -7 -11 -9 -11 -9 3 0 15 -4 16 -25 8 -19 -7 -25 -6 -25 5 0 7 -4 16
-9 20 -6 3 -8 -3 -6 -15 5 -23 -13 -22 -36 3 -15 15 -17 15 -23 2 -6 -16 -25
-16 -41 0 -5 6 -9 9 -8 6 3 -5 -24 -31 -33 -31 -3 0 -1 7 6 15 9 11 9 15 1 15
-6 0 -14 -6 -17 -14 -3 -8 -15 -14 -26 -13 -20 1 -20 2 1 18 12 10 21 20 21
24 0 4 -6 3 -13 -3 -8 -7 -18 -7 -27 -2 -12 8 -10 10 8 10 12 0 25 0 28 -1 3
0 13 8 21 18 12 15 14 15 9 1 -4 -13 1 -16 25 -14 17 1 34 7 37 13 4 5 15 9
25 7 10 -1 17 4 17 14 0 14 2 14 9 3 6 -9 18 -12 36 -7 23 6 26 4 21 -9 -3
-10 -2 -14 5 -9 6 3 8 15 6 26 -4 14 -2 17 7 9 9 -7 16 -7 23 0 7 7 15 6 26
-5 10 -11 17 -12 19 -5 3 8 10 6 21 -5 9 -10 17 -13 17 -8 0 15 37 21 51 8 9
-8 11 -7 6 6 -4 12 -2 15 8 11 8 -3 13 -9 10 -13 -3 -4 2 -11 10 -14 9 -3 18
1 21 9 4 8 10 12 15 9 5 -3 6 -10 3 -16 -4 -6 -2 -8 4 -4 6 3 16 -2 22 -11 11
-17 11 -17 6 0 -3 11 0 20 9 24 12 4 13 9 4 19 -8 9 -8 14 -1 14 6 0 14 -5 17
-10 5 -8 12 -7 23 2 13 11 15 11 10 -4 -5 -11 0 -18 13 -21 11 -3 23 -15 26
-26 5 -20 6 -20 19 -4 8 11 13 13 14 6 0 -15 30 -18 30 -3 0 6 -7 10 -16 10
-10 0 -14 5 -10 16 3 8 2 12 -3 9 -5 -3 -12 -1 -15 4 -4 5 2 8 11 6 10 -2 18
-4 18 -5 0 -7 41 -7 45 0 3 5 18 3 33 -5 16 -8 29 -10 33 -4 3 5 0 8 -7 7 -6
-2 -14 3 -17 11 -3 10 0 12 12 8 15 -6 16 145 16 1988 l0 1995 -2527 0 c-1997
0 -2529 -3 -2541 -13 -13 -9 -14 -9 -8 1 4 6 2 12 -4 12 -6 0 -15 -10 -20 -22
l-9 -23 0 22 c-1 16 -7 21 -22 20 -18 -1 -18 -3 -4 -13 14 -10 13 -12 -7 -19
-13 -4 -27 -8 -33 -9 -5 -1 -15 -5 -22 -9 -6 -4 -15 -3 -18 3 -4 6 -1 9 7 8 7
-2 12 4 10 12 -3 12 -1 13 9 3 18 -18 25 -16 26 7 2 18 -5 19 -144 19 l-145 0
6 -25 c5 -17 3 -23 -4 -19 -5 3 -10 15 -10 26 0 19 -32 19 -2670 19 l-2670 0
0 -2340z m257 2308 c-3 -8 -6 -5 -6 6 -1 11 2 17 5 13 3 -3 4 -12 1 -19z
m5508 12 c-3 -5 -11 -10 -16 -10 -6 0 -7 5 -4 10 3 6 11 10 16 10 6 0 7 -4 4
-10z m-351 -25 c-4 -8 -8 -15 -10 -15 -2 0 -4 7 -4 15 0 8 4 15 10 15 5 0 7
-7 4 -15z m36 -5 c0 -5 -5 -10 -11 -10 -5 0 -7 5 -4 10 3 6 8 10 11 10 2 0 4
-4 4 -10z m344 -25 c3 -17 -1 -41 -9 -55 -14 -25 -19 -17 -16 22 1 9 -3 19
-10 23 -8 5 -9 1 -4 -14 5 -16 2 -21 -13 -21 -13 0 -19 -6 -18 -17 1 -12 -5
-17 -18 -15 -10 2 -15 -1 -12 -7 4 -5 3 -12 -2 -15 -5 -3 -9 2 -9 11 0 9 8 18
18 20 10 3 15 11 12 19 -3 8 2 17 11 20 9 3 16 12 16 20 0 10 7 13 24 8 22 -5
24 -3 19 18 -3 12 -3 21 0 18 3 -3 8 -19 11 -35z m-320 -7 c-9 -14 -23 2 -17
18 4 12 8 13 14 3 4 -7 5 -17 3 -21z m91 12 c-3 -5 -1 -10 6 -10 7 0 10 -2 7
-5 -3 -3 -13 -2 -22 1 -14 5 -15 9 -4 15 17 11 20 11 13 -1z m98 3 c-7 -2 -21
-2 -30 0 -10 3 -4 5 12 5 17 0 24 -2 18 -5z m52 -13 c0 -9 -9 -15 -22 -14 -13
0 -23 -3 -23 -8 0 -4 7 -8 15 -8 8 0 15 -4 15 -10 0 -5 -7 -7 -15 -4 -8 4 -15
1 -15 -5 0 -8 -5 -9 -19 -1 -14 7 -21 6 -24 -3 -3 -7 -6 -5 -6 5 -1 9 4 20 9
23 6 4 7 11 4 17 -5 7 -2 8 5 4 7 -5 10 -14 7 -22 -3 -8 -1 -14 4 -14 6 0 10
9 10 20 0 11 7 20 16 20 8 0 12 5 8 11 -4 7 1 10 12 7 11 -2 19 -10 19 -18z
m255 -18 c8 -2 22 -12 32 -22 9 -11 21 -20 28 -20 16 0 7 -23 -11 -28 -11 -3
-11 -2 1 7 10 7 11 11 3 11 -19 0 -28 -4 -26 -11 1 -4 -10 -6 -25 -5 -15 0
-29 -3 -31 -9 -11 -23 -26 -30 -58 -27 -24 3 -33 9 -33 22 0 13 5 17 20 13 11
-3 17 -9 14 -14 -3 -5 4 -9 16 -9 16 0 20 6 18 28 -1 21 -7 27 -25 28 -19 2
-22 -1 -12 -12 9 -11 8 -14 -5 -14 -9 0 -16 5 -16 12 0 8 -4 7 -12 -3 -7 -8
-12 -12 -11 -10 2 2 -2 10 -8 18 -9 10 -15 11 -26 2 -11 -10 -12 -8 -6 9 5 11
12 21 17 21 5 -1 12 5 16 11 6 9 13 9 29 1 16 -9 21 -9 21 1 0 9 3 9 8 2 5 -7
14 -7 29 1 13 7 22 14 20 16 -1 2 3 0 8 -6 6 -5 17 -11 25 -13z m57 -4 c-9 -6
-9 -8 1 -8 6 0 12 -4 12 -10 0 -5 -7 -7 -15 -4 -8 4 -15 15 -15 26 0 12 -4 17
-12 12 -7 -4 -8 -3 -4 4 5 9 12 8 26 0 14 -9 16 -14 7 -20z m-530 -10 c-3 -8
-6 -5 -6 6 -1 11 2 17 5 13 3 -3 4 -12 1 -19z m90 -20 c-3 -8 -6 -5 -6 6 -1
11 2 17 5 13 3 -3 4 -12 1 -19z m172 -25 c0 -25 -1 -25 -8 -8 -5 11 -7 23 -4
28 8 14 13 7 12 -20z m148 -15 c-3 -8 -6 -5 -6 6 -1 11 2 17 5 13 3 -3 4 -12
1 -19z m-167 2 c0 -5 -5 -10 -11 -10 -5 0 -7 5 -4 10 3 6 8 10 11 10 2 0 4 -4
4 -10z m74 -2 c-3 -4 -11 -8 -19 -8 -8 0 -16 4 -19 8 -2 4 6 8 19 8 13 0 21
-4 19 -8z m256 -13 c0 -8 -4 -16 -9 -19 -5 -4 -7 4 -3 16 4 16 2 19 -8 13 -9
-5 -11 -4 -6 4 9 14 26 5 26 -14z m-340 -15 c0 -5 -5 -10 -11 -10 -5 0 -7 5
-4 10 3 6 8 10 11 10 2 0 4 -4 4 -10z m227 -6 c-3 -3 -12 -4 -19 -1 -8 3 -5 6
6 6 11 1 17 -2 13 -5z m58 -14 c3 -6 -4 -10 -17 -10 -18 0 -20 2 -8 10 19 12
18 12 25 0z m30 0 c3 -5 1 -10 -4 -10 -6 0 -11 5 -11 10 0 6 2 10 4 10 3 0 8
-4 11 -10z m-105 -4 c0 -2 -7 -6 -15 -10 -8 -3 -15 -1 -15 4 0 6 7 10 15 10 8
0 15 -2 15 -4z m-5723 -120 c-3 -7 -1 -19 4 -25 6 -8 5 -8 -3 -1 -15 13 -19
40 -6 40 6 0 8 -6 5 -14z m27 -12 c3 -8 2 -12 -4 -9 -6 3 -10 10 -10 16 0 14
7 11 14 -7z m7540 -1529 c-4 -8 -11 -15 -16 -15 -6 0 -5 6 2 15 7 8 14 15 16
15 2 0 1 -7 -2 -15z m-1229 -24 c-6 -5 -25 10 -25 20 0 5 6 4 14 -3 8 -7 12
-15 11 -17z m982 -7 c-2 -13 0 -21 4 -18 5 3 9 12 9 20 0 15 33 15 47 -1 5 -4
2 -5 -4 -1 -9 5 -12 0 -11 -18 1 -13 6 -22 10 -20 5 3 6 10 3 15 -4 5 -2 9 4
9 5 0 13 -5 16 -10 4 -6 11 -8 16 -4 6 3 5 12 -3 22 -11 13 -10 15 5 9 12 -4
16 -3 11 4 -10 16 17 29 31 16 7 -7 11 -15 9 -19 -3 -4 5 -6 16 -5 11 1 20 5
20 9 0 4 5 8 11 8 5 0 7 -5 4 -11 -4 -6 -1 -10 6 -8 28 3 39 -1 39 -17 0 -10
5 -12 13 -7 6 4 21 9 32 10 11 2 26 11 33 20 11 16 12 15 8 -7 -2 -14 -5 -28
-5 -32 -1 -5 -6 -8 -12 -8 -5 0 -8 4 -5 8 3 5 -2 9 -10 9 -9 0 -13 -6 -10 -14
3 -8 -6 -25 -21 -39 -14 -13 -23 -27 -20 -31 4 -3 7 -1 7 5 0 7 5 12 10 12 16
0 12 -27 -5 -34 -9 -3 -18 1 -22 10 -5 13 -8 13 -15 2 -7 -9 -9 -7 -5 8 4 19
2 20 -19 10 -20 -10 -21 -12 -6 -18 15 -6 14 -7 -3 -7 -13 -1 -25 -12 -32 -31
-7 -19 -18 -30 -30 -29 -15 1 -15 2 -1 6 22 6 32 34 17 47 -9 8 -10 8 -5 -1
10 -18 -2 -16 -20 2 -9 8 -21 15 -27 15 -7 0 -4 -7 6 -14 9 -7 17 -19 17 -27
0 -9 -3 -10 -8 -3 -8 12 -46 34 -58 34 -4 0 1 -7 12 -16 15 -12 16 -16 5 -21
-7 -3 -22 -14 -32 -24 -11 -11 -19 -16 -19 -11 0 4 -5 0 -10 -8 -9 -13 -10
-13 -10 0 0 13 -1 13 -11 0 -9 -13 -10 -13 -6 0 2 8 9 16 15 16 7 1 17 2 23 3
5 0 8 5 4 11 -7 12 -36 2 -52 -18 -11 -13 -14 -12 -28 2 -9 9 -20 16 -25 16
-5 0 -7 7 -4 15 4 8 2 15 -3 15 -15 0 -32 -37 -27 -61 l5 -24 -11 24 c-6 14
-9 29 -7 35 3 6 -6 11 -18 11 -13 0 -21 -3 -19 -6 2 -4 -2 -9 -10 -12 -8 -3
-17 1 -20 9 -7 18 -27 9 -22 -9 1 -7 1 -9 -1 -4 -3 4 -9 5 -14 1 -5 -3 -8 0
-7 8 2 7 -3 12 -10 10 -10 -2 -11 4 -6 20 6 21 5 22 -11 8 -16 -14 -17 -13
-11 6 6 18 3 21 -20 18 -20 -2 -30 4 -42 26 -9 16 -25 31 -34 34 -20 5 -25
-10 -5 -17 6 -3 1 -6 -13 -5 -14 0 -42 -3 -62 -6 -27 -4 -38 -3 -38 6 0 10 -2
10 -9 -1 -5 -8 -11 -9 -15 -3 -3 6 -16 8 -28 5 -13 -4 -25 0 -34 11 -11 16
-13 16 -21 1 -8 -13 -10 -10 -10 15 0 17 3 26 7 20 7 -11 40 -4 40 9 0 9 73 7
89 -3 11 -7 12 -6 6 5 -8 12 -6 12 8 0 9 -7 14 -18 10 -24 -4 -6 -1 -7 8 -2
23 15 61 14 76 -1 17 -17 34 -19 31 -3 -2 6 3 14 11 17 8 3 11 0 7 -7 -4 -6
-5 -11 -2 -11 2 0 11 -3 20 -6 11 -4 16 -1 16 10 0 12 8 16 28 14 15 -1 34 2
41 7 11 6 13 4 7 -11 -6 -15 -5 -17 5 -6 7 6 17 12 22 12 4 0 5 -6 1 -12 -5
-9 -2 -9 9 1 9 7 17 10 17 5 0 -4 7 1 16 12 8 10 13 13 9 7 -4 -9 -1 -11 9 -7
9 3 13 11 9 17 -3 5 -2 7 4 4 13 -8 83 11 83 23 0 5 7 7 16 3 10 -4 14 -14 11
-29z m363 -5 c0 -5 -4 -9 -8 -9 -5 0 -9 7 -9 15 0 8 4 12 9 9 4 -3 8 -9 8 -15z
m-1036 -16 c3 -8 1 -22 -5 -31 -9 -15 -10 -14 -4 3 4 13 -1 25 -17 37 -23 17
-23 17 -1 12 12 -3 24 -13 27 -21z m31 -29 c-9 -9 -18 -14 -21 -12 -2 3 2 11
11 18 8 7 16 20 16 29 1 13 2 13 6 -1 2 -10 -3 -25 -12 -34z m-113 -5 c-9 -10
-20 -15 -25 -12 -6 3 -3 11 6 18 10 7 17 18 17 26 0 12 2 12 9 0 6 -8 3 -20
-7 -32z m-257 21 c3 -6 -1 -7 -9 -4 -18 7 -21 14 -7 14 6 0 13 -4 16 -10z
m108 -3 c4 3 7 4 7 1 0 -3 -8 -12 -17 -19 -10 -7 -15 -9 -11 -5 4 5 2 16 -5
25 -10 14 -10 14 4 4 9 -7 19 -10 22 -6z m207 -35 c0 -7 4 -11 9 -7 5 3 12 1
15 -3 3 -5 -4 -9 -16 -8 -12 0 -22 8 -24 16 -1 8 -5 24 -9 35 l-8 20 16 -20
c9 -11 17 -26 17 -33z m1116 5 c1 -23 -1 -35 -4 -27 -3 8 -10 18 -16 22 -7 5
-6 8 3 8 10 0 11 3 2 14 -9 11 -9 15 1 19 7 3 13 6 13 6 0 1 1 -18 1 -42z
m-1233 7 c-4 -10 -9 -12 -15 -6 -12 12 -1 35 12 27 5 -3 6 -13 3 -21z m1155
-26 c1 -43 1 -43 -14 -18 -15 25 -15 25 -8 1 4 -16 3 -21 -5 -17 -6 4 -11 14
-11 22 0 8 -5 14 -11 14 -5 0 -7 -5 -3 -12 4 -7 3 -8 -5 -4 -15 10 3 34 34 46
11 5 20 9 21 9 0 1 1 -18 2 -41z m26 27 c-4 -8 -11 -15 -16 -15 -6 0 -5 6 2
15 7 8 14 15 16 15 2 0 1 -7 -2 -15z m-1089 -5 c3 -5 -6 -17 -20 -26 -13 -9
-23 -20 -20 -24 3 -5 1 -11 -4 -14 -5 -4 -12 -2 -15 3 -8 12 29 52 39 43 5 -4
5 1 2 11 -7 18 7 24 18 7z m375 -43 c0 -4 -9 -2 -20 5 -13 9 -16 14 -7 20 11
6 27 -8 27 -25z m-370 -1 c0 -3 -4 -8 -10 -11 -5 -3 -10 -1 -10 4 0 6 5 11 10
11 6 0 10 -2 10 -4z m50 0 c0 -3 -4 -8 -10 -11 -5 -3 -10 -1 -10 4 0 6 5 11
10 11 6 0 10 -2 10 -4z m1253 -16 c-3 -12 -8 -19 -11 -16 -5 6 5 36 12 36 2 0
2 -9 -1 -20z m182 2 c-3 -3 -11 0 -18 7 -9 10 -8 11 6 5 10 -3 15 -9 12 -12z
m209 6 c-5 -8 -2 -9 10 -5 11 4 15 3 10 -4 -4 -8 1 -9 15 -4 14 4 21 3 19 -5
-2 -7 3 -15 11 -18 8 -3 11 0 7 7 -5 7 -1 9 10 4 15 -6 15 -7 -1 -15 -9 -5
-23 -7 -31 -4 -9 3 -12 1 -9 -4 3 -6 -1 -10 -10 -10 -11 0 -15 5 -11 15 6 16
-19 22 -28 6 -3 -5 -31 -8 -61 -8 -44 0 -55 3 -51 13 3 8 0 14 -6 14 -6 0 -9
2 -6 5 3 3 17 1 31 -4 22 -9 25 -8 21 7 -5 15 -4 15 6 -1 6 -9 15 -15 21 -12
5 4 9 1 9 -4 0 -6 5 -11 11 -11 5 0 7 4 4 10 -3 6 1 7 9 4 9 -3 16 -1 16 5 0
6 -5 11 -11 11 -5 0 -7 5 -4 10 3 6 11 10 16 10 6 0 7 -5 3 -12z m-2259 -18
c3 -5 1 -10 -4 -10 -6 0 -11 5 -11 10 0 6 2 10 4 10 3 0 8 -4 11 -10z m1959
-28 c3 -5 -1 -9 -9 -9 -8 0 -12 4 -9 9 3 4 7 8 9 8 2 0 6 -4 9 -8z m370 -27
c-4 -8 -10 -15 -16 -15 -5 0 -6 -6 -2 -12 4 -8 3 -10 -2 -5 -18 17 -9 36 23
46 1 1 0 -6 -3 -14z m-1134 -5 c0 -5 -4 -10 -10 -10 -5 0 -10 5 -10 10 0 6 5
10 10 10 6 0 10 -4 10 -10z m1016 -4 c3 -8 13 -12 22 -9 14 4 15 3 2 -5 -10
-8 -18 -7 -28 0 -10 9 -16 8 -23 -3 -10 -16 -12 -8 -3 15 8 20 23 21 30 2z
m318 -10 c-3 -9 -10 -16 -15 -16 -5 0 -4 9 3 20 14 22 21 20 12 -4z m-604 -18
c-10 -17 -16 -36 -13 -41 3 -6 1 -7 -5 -3 -12 7 -4 33 21 64 18 23 17 12 -3
-20z m520 -4 c0 -2 -7 -4 -15 -4 -8 0 -15 4 -15 10 0 5 7 7 15 4 8 -4 15 -8
15 -10z m-843 -9 c0 -8 -4 -12 -9 -9 -4 3 -8 9 -8 15 0 5 4 9 8 9 5 0 9 -7 9
-15z m68 5 c-3 -5 -14 -10 -23 -9 -14 0 -13 2 3 9 27 11 27 11 20 0z m-875
-15 c-7 -9 -15 -13 -19 -10 -3 3 1 10 9 15 21 14 24 12 10 -5z m990 11 c0 -2
-8 -10 -17 -17 -16 -13 -17 -12 -4 4 13 16 21 21 21 13z m200 -42 c0 -4 -6 -4
-14 -1 -8 3 -17 1 -20 -6 -2 -7 -5 -2 -5 11 -1 20 2 21 19 12 11 -6 20 -13 20
-16z m-200 6 c-12 -8 -12 -10 -1 -10 8 0 12 -3 8 -6 -9 -9 -28 6 -22 17 4 5
12 9 18 9 7 0 6 -4 -3 -10z m-200 -10 c0 -5 -4 -10 -10 -10 -5 0 -10 5 -10 10
0 6 5 10 10 10 6 0 10 -4 10 -10z m298 -10 c23 -25 63 -34 74 -17 6 9 8 9 8
-1 0 -7 5 -10 10 -7 7 4 9 -5 5 -25 -4 -22 -2 -29 5 -25 7 4 7 -1 -1 -13 -12
-19 -13 -19 -33 -1 -22 21 -36 24 -36 9 0 -5 -5 -10 -10 -10 -6 0 -5 8 2 19 7
11 16 17 20 15 4 -3 8 2 8 12 0 13 -3 14 -14 5 -10 -9 -15 -8 -19 3 -3 8 -15
20 -27 26 -19 10 -20 10 -8 -9 11 -18 10 -23 -6 -34 -19 -14 -15 -37 6 -37 7
0 7 4 0 13 -8 9 -6 16 8 25 28 17 35 -3 11 -29 -16 -17 -23 -19 -34 -11 -8 7
-18 8 -22 4 -5 -4 -5 -2 -2 4 4 7 0 15 -9 18 -12 5 -15 2 -10 -11 6 -14 4 -15
-4 -7 -15 15 4 54 26 54 9 0 14 8 13 18 -4 39 10 43 39 12z m132 10 c0 -5 -4
-10 -10 -10 -5 0 -10 5 -10 10 0 6 5 10 10 10 6 0 10 -4 10 -10z m85 -23 c1
-19 7 -21 33 -19 47 5 43 -16 -13 -58 -18 -14 -19 -13 -8 1 10 13 10 19 -3 35
-8 10 -13 14 -10 7 4 -6 1 -15 -5 -19 -8 -4 -9 -3 -5 5 6 8 1 10 -17 5 -34 -8
-75 5 -56 17 11 7 10 9 -3 9 -25 0 -23 15 2 17 11 1 20 -4 20 -10 0 -7 4 -6
10 3 8 13 10 13 10 -2 0 -9 5 -20 10 -23 6 -4 10 -3 9 2 -4 21 2 34 12 27 8
-4 9 1 4 17 -4 13 -4 21 0 16 5 -4 9 -17 10 -30z m-275 2 c0 -6 -4 -7 -10 -4
-5 3 -10 11 -10 16 0 6 5 7 10 4 6 -3 10 -11 10 -16z m-156 3 c3 -5 -1 -9 -9
-9 -8 0 -15 4 -15 9 0 4 4 8 9 8 6 0 12 -4 15 -8z m89 -25 c9 -8 17 -23 17
-33 -1 -15 -4 -13 -16 9 -12 23 -18 26 -30 16 -8 -6 -14 -10 -15 -8 0 2 -2 14
-3 26 -3 23 7 21 47 -10z m-206 -9 c-3 -7 -5 -2 -5 12 0 14 2 19 5 13 2 -7 2
-19 0 -25z m683 -36 c0 -15 -2 -15 -10 -2 -13 20 -13 33 0 25 6 -3 10 -14 10
-23z m-58 -11 c-16 -3 -32 -19 -32 -33 0 -3 15 -15 33 -27 20 -13 26 -21 15
-21 -9 0 -18 6 -21 13 -3 6 -4 2 -4 -11 1 -14 6 -21 14 -18 7 3 14 2 17 -2 3
-4 -4 -9 -15 -9 -20 -2 -44 31 -34 47 3 6 2 10 -4 10 -15 0 -19 -23 -8 -45 7
-16 7 -18 -3 -8 -7 6 -18 10 -24 9 -6 -2 -8 -1 -3 1 15 9 6 22 -13 20 -11 -1
-20 -4 -20 -7 0 -4 -7 -7 -15 -7 -13 0 -13 3 2 19 10 12 12 18 4 18 -7 0 -9 5
-6 11 5 6 11 4 19 -6 17 -24 52 -15 49 12 -3 28 46 70 58 51 6 -8 2 -14 -9
-17z m-132 15 c0 -2 -7 -7 -16 -10 -8 -3 -12 -2 -9 4 6 10 25 14 25 6z m234
-14 c3 -5 -1 -9 -9 -9 -8 0 -12 4 -9 9 3 4 7 8 9 8 2 0 6 -4 9 -8z m-100 -27
c-4 -8 -11 -12 -16 -9 -6 4 -5 10 3 15 19 12 19 11 13 -6z m22 0 c-7 -18 5
-19 24 -2 8 6 6 2 -5 -11 -20 -24 -40 -17 -29 11 3 9 8 17 11 17 3 0 3 -7 -1
-15z m-192 -16 c-3 -5 -13 -9 -22 -8 -11 0 -12 2 -4 6 6 2 10 9 7 14 -4 5 1 6
9 3 9 -3 13 -10 10 -15z m106 -1 c0 -6 -6 -5 -15 2 -8 7 -15 14 -15 16 0 2 7
1 15 -2 8 -4 15 -11 15 -16z m168 10 c-2 -8 8 -13 24 -13 30 0 44 -10 29 -20
-6 -3 -11 -2 -11 4 0 6 -7 8 -15 5 -8 -4 -21 -1 -29 5 -7 6 -17 7 -22 3 -4 -4
-2 1 5 11 16 20 22 22 19 5z m95 -9 c-8 -8 -9 -20 -2 -38 8 -23 8 -24 -4 -9
-8 10 -18 14 -22 10 -5 -4 -5 0 0 8 12 23 27 40 33 40 3 0 1 -5 -5 -11z m-121
-23 c6 4 8 2 5 -4 -8 -12 -32 -10 -44 3 -4 4 -2 5 5 1 7 -5 12 -1 13 11 1 17
2 17 6 0 2 -9 9 -14 15 -11z m-246 -21 c-13 -10 -15 -15 -6 -15 7 0 10 -3 7
-6 -4 -4 -13 -2 -20 4 -8 7 -18 8 -22 4 -5 -4 -5 -1 -1 6 4 7 11 10 15 8 4 -3
13 -1 21 5 23 14 27 10 6 -6z m294 5 c0 -5 -5 -10 -11 -10 -5 0 -7 5 -4 10 3
6 8 10 11 10 2 0 4 -4 4 -10z m-36 -22 c-3 -4 -9 -8 -15 -8 -5 0 -9 4 -9 8 0
5 7 9 15 9 8 0 12 -4 9 -9z m-34 -19 c0 -6 -4 -7 -10 -4 -5 3 -10 11 -10 16 0
6 5 7 10 4 6 -3 10 -11 10 -16z m-36 -7 c3 -5 -1 -9 -9 -9 -8 0 -12 4 -9 9 3
4 7 8 9 8 2 0 6 -4 9 -8z m-1140 -41 c3 -5 -2 -8 -12 -7 -11 1 -16 -5 -14 -16
3 -18 -9 -24 -21 -11 -8 7 21 43 34 43 4 0 10 -4 13 -9z m77 -8 c13 -16 12
-17 -3 -4 -10 7 -18 15 -18 17 0 8 8 3 21 -13z m43 -2 c-10 -10 -21 -16 -24
-14 -3 3 4 11 14 19 28 20 33 17 10 -5z m96 2 c0 -3 -7 -2 -16 1 -12 5 -14 1
-10 -17 3 -12 3 -17 0 -10 -3 7 -11 10 -18 7 -8 -3 -16 2 -20 11 -3 9 -2 14 2
11 4 -2 14 -1 22 4 13 8 40 3 40 -7z m-895 -3 c3 -5 -1 -10 -10 -10 -9 0 -13
5 -10 10 3 6 8 10 10 10 2 0 7 -4 10 -10z m307 -22 c-3 -18 -7 -26 -10 -18 -8
26 -44 42 -38 18 1 -7 1 -10 -1 -5 -3 4 -8 5 -12 3 -4 -3 -8 1 -8 9 0 9 10 12
29 10 15 -2 28 0 28 5 0 6 4 10 8 10 5 0 6 -15 4 -32z m301 19 c4 3 7 1 7 -6
0 -7 -10 -10 -25 -7 -14 3 -25 0 -25 -5 0 -5 -7 -9 -16 -9 -12 0 -10 5 7 19
15 12 28 16 35 10 6 -5 14 -6 17 -2z m-553 -6 c0 -5 -7 -12 -16 -15 -14 -5
-15 -4 -4 9 14 17 20 19 20 6z m73 -15 c-4 -20 -8 -22 -18 -13 -10 9 -9 14 4
24 9 7 17 13 17 13 1 0 -1 -11 -3 -24z m81 5 c-2 -2 5 -10 16 -18 11 -8 20
-18 20 -24 0 -5 -9 0 -20 11 -12 12 -25 18 -30 15 -6 -4 -10 0 -10 7 0 9 -3 9
-10 -2 -6 -9 -10 -11 -10 -3 0 7 -7 10 -17 7 -12 -4 -14 -3 -6 3 12 9 76 12
67 4z m551 -11 c-3 -5 -12 -10 -18 -10 -7 0 -6 4 3 10 19 12 23 12 15 0z
m-675 -4 c0 -3 -4 -8 -10 -11 -5 -3 -10 -1 -10 4 0 6 5 11 10 11 6 0 10 -2 10
-4z m3498 -407 c9 5 67 7 67 1 0 -1 12 -3 27 -4 14 -1 24 2 22 6 -2 4 4 6 15
5 15 -1 17 -4 9 -14 -15 -19 2 -16 25 5 20 16 20 16 14 -8 -5 -22 -5 -23 7 -7
15 20 30 23 23 4 -3 -9 4 -12 23 -11 18 1 36 -6 46 -17 9 -10 13 -19 8 -19 -5
0 -3 -4 5 -9 19 -12 23 -41 5 -34 -8 3 -14 10 -14 16 0 6 -3 7 -6 4 -4 -4 -1
-13 6 -22 11 -13 10 -14 -4 -9 -9 3 -17 16 -17 28 -1 20 -2 20 -6 1 -6 -23
-23 -45 -23 -28 0 22 -39 21 -55 -1 -16 -21 -16 -21 -10 4 4 17 3 21 -3 12 -7
-11 -18 -11 -46 -3 -34 9 -36 8 -24 -7 7 -8 8 -13 2 -9 -23 13 -69 30 -78 28
-17 -4 -55 22 -49 33 4 7 1 6 -7 -1 -7 -6 -19 -9 -28 -6 -10 4 -13 2 -8 -5 10
-17 -8 -21 -29 -6 -10 8 -13 14 -7 14 7 0 12 4 12 10 0 5 -7 7 -15 4 -11 -5
-15 1 -15 19 0 25 12 29 36 14 7 -4 17 0 24 8 8 10 18 11 34 5 13 -4 28 -5 34
-1z m-198 -8 c0 -6 -4 -12 -8 -15 -5 -3 -9 1 -9 9 0 8 4 15 9 15 4 0 8 -4 8
-9z m495 -21 c-3 -5 -1 -10 4 -10 6 0 11 6 12 13 0 6 5 1 11 -13 16 -38 17
-49 5 -57 -7 -3 -9 -3 -6 1 4 4 -4 19 -17 33 -20 22 -24 43 -8 43 3 0 2 -4 -1
-10z m-451 -6 c20 -8 20 -20 0 -28 -9 -4 -13 -2 -8 5 4 6 0 15 -7 20 -16 10
-8 12 15 3z m520 -19 c-4 -8 -8 -15 -10 -15 -2 0 -4 7 -4 15 0 8 4 15 10 15 5
0 7 -7 4 -15z m-547 -17 c-3 -8 -6 -5 -6 6 -1 11 2 17 5 13 3 -3 4 -12 1 -19z
m599 0 c-12 -20 -38 -20 -42 0 -1 7 0 8 3 2 7 -15 26 -12 20 3 -3 7 3 13 13
13 14 0 15 -4 6 -18z m-201 -46 c-3 -3 -11 0 -18 7 -9 10 -8 11 6 5 10 -3 15
-9 12 -12z m-9780 -192 c3 -5 1 -10 -4 -10 -6 0 -11 5 -11 10 0 6 2 10 4 10 3
0 8 -4 11 -10z m2572 -117 c3 -7 -3 -9 -16 -6 -12 3 -21 10 -21 15 0 13 32 6
37 -9z m48 7 c-3 -5 -14 -10 -23 -9 -14 0 -13 2 3 9 27 11 27 11 20 0z m-126
-14 c9 -11 7 -13 -11 -11 -30 3 -30 3 -23 15 9 14 20 13 34 -4z m605 -162 c3
-8 2 -12 -4 -9 -6 3 -10 10 -10 16 0 14 7 11 14 -7z m-199 -24 c3 -6 -1 -7 -9
-4 -18 7 -21 14 -7 14 6 0 13 -4 16 -10z m98 -1 c-13 -13 -6 -42 8 -33 5 3 6
11 3 17 -4 7 -3 8 1 4 12 -10 15 -38 4 -31 -5 3 -9 -1 -9 -8 -1 -7 -7 -2 -15
12 -12 23 -5 50 13 50 3 0 1 -5 -5 -11z m-450 -16 c-4 -11 -3 -14 5 -9 11 6
16 -5 13 -26 -1 -7 33 -3 47 6 5 3 9 0 9 -7 0 -7 4 -21 7 -32 6 -18 6 -18 -9
2 -14 18 -20 20 -41 11 -13 -6 -21 -15 -17 -21 3 -6 1 -7 -6 -3 -6 4 -8 12 -5
18 5 7 2 9 -8 5 -23 -8 -31 33 -11 55 20 22 24 23 16 1z m183 -10 c-6 -6 -36
9 -36 18 0 5 9 4 20 -3 10 -7 18 -14 16 -15z m64 23 c0 -2 -8 -10 -17 -17 -16
-13 -17 -12 -4 4 13 16 21 21 21 13z m86 -25 c16 4 44 -13 38 -22 -7 -12 10
-11 22 1 14 14 44 2 44 -18 0 -12 3 -13 12 -4 13 13 42 17 35 5 -3 -5 5 -8 18
-8 17 0 22 5 19 18 -1 10 1 15 7 12 5 -4 9 -13 9 -21 0 -20 8 -18 35 12 17 18
25 22 25 12 0 -17 25 -17 58 0 12 7 22 9 22 5 0 -5 15 -14 33 -21 29 -10 30
-10 13 3 -11 8 -15 15 -10 15 6 0 21 -11 33 -24 22 -24 58 -29 54 -8 -2 6 4 9
12 6 8 -4 12 -10 9 -15 -3 -5 1 -9 8 -10 50 -2 94 -11 96 -19 2 -6 8 -10 13
-10 6 0 7 5 3 12 -4 7 -3 8 4 4 7 -4 18 -4 25 1 21 13 49 14 41 1 -5 -8 0 -9
14 -6 12 4 25 2 28 -3 3 -5 9 -7 14 -4 10 6 20 -32 13 -51 -3 -8 -15 -14 -27
-15 -11 0 -31 -2 -43 -5 -16 -3 -23 1 -23 11 0 9 -9 15 -25 15 -14 0 -25 -4
-25 -9 0 -5 9 -7 20 -4 11 3 20 0 20 -6 0 -6 -13 -9 -30 -7 -17 2 -30 -1 -30
-8 0 -6 -4 -5 -9 2 -9 15 -91 23 -91 10 0 -5 -5 -8 -11 -8 -6 0 -8 7 -5 15 8
21 -20 31 -39 15 -8 -7 -15 -9 -16 -4 0 5 -4 0 -9 -11 -6 -13 -9 -15 -9 -5 -1
9 -11 15 -28 16 -35 1 -65 7 -80 17 -9 6 -11 3 -7 -10 5 -16 3 -15 -11 2 -13
17 -17 18 -25 6 -7 -12 -11 -12 -24 -2 -9 8 -16 9 -16 4 0 -14 -64 -10 -80 6
-13 13 -15 12 -18 -2 -4 -18 -21 -23 -23 -7 -2 15 -5 23 -18 50 l-11 25 5 -27
c3 -17 1 -28 -5 -28 -6 0 -8 -5 -4 -12 4 -7 3 -8 -4 -4 -7 4 -12 15 -13 24 0
10 -5 5 -11 -11 -8 -24 -12 -26 -26 -15 -13 11 -15 10 -9 -5 4 -11 3 -16 -3
-12 -6 3 -10 12 -10 20 0 8 -4 17 -10 20 -5 3 -7 0 -4 -8 3 -8 -1 -19 -9 -25
-12 -10 -13 -7 -10 15 3 21 2 24 -5 14 -9 -13 -13 -13 -28 0 -12 9 -15 10 -10
1 6 -9 1 -11 -18 -8 -34 6 -46 14 -46 32 0 8 -7 14 -15 14 -26 0 -15 46 12 48
12 1 26 2 30 3 4 1 15 1 23 0 13 -1 13 -2 0 -11 -13 -8 -13 -10 2 -10 9 0 19
6 21 13 4 9 8 9 15 -2 9 -12 13 -13 26 -1 14 11 16 10 9 -5 -5 -14 -3 -17 10
-12 10 4 17 1 17 -6 0 -8 4 -7 10 3 15 24 -17 52 -44 39 -20 -10 -20 -10 -2 5
14 11 23 13 32 5 6 -5 16 -9 20 -8z m-510 -11 c0 -12 -4 -16 -9 -11 -5 5 -6
14 -3 20 10 15 12 14 12 -9z m-176 0 c0 -5 -4 -10 -10 -10 -5 0 -10 5 -10 10
0 6 5 10 10 10 6 0 10 -4 10 -10z m474 -2 c-5 -7 -7 -26 -7 -43 l2 -30 -14 30
c-12 26 -12 32 3 43 20 15 25 15 16 0z m-207 -17 c0 -11 -5 -18 -9 -15 -4 3
-5 11 -1 19 7 21 12 19 10 -4z m-52 -21 c3 -6 -1 -7 -9 -4 -18 7 -21 14 -7 14
6 0 13 -4 16 -10z m199 -16 c3 -8 2 -12 -4 -9 -6 3 -10 10 -10 16 0 14 7 11
14 -7z m96 -14 c0 -5 -7 -10 -16 -10 -8 0 -12 5 -9 10 3 6 10 10 16 10 5 0 9
-4 9 -10z m6780 0 c3 -1 9 -2 13 -1 5 1 6 -3 2 -9 -3 -6 -12 -7 -18 -3 -22 13
-39 12 -33 -3 3 -8 1 -14 -4 -14 -11 0 -14 23 -4 32 5 5 28 4 44 -2z m-5797
-48 c4 10 7 10 18 -1 9 -9 9 -11 2 -7 -7 4 -13 2 -13 -3 0 -6 7 -11 15 -11 8
0 19 -8 24 -18 7 -14 6 -18 -9 -18 -14 0 -16 3 -8 13 8 10 7 12 -6 7 -9 -3
-16 -10 -16 -15 0 -5 -8 -9 -17 -8 -11 0 -13 3 -5 6 6 2 12 9 12 14 0 4 -6 6
-12 4 -8 -3 -13 4 -13 19 0 17 3 22 12 15 7 -7 13 -5 16 3z m680 -32 c3 -11 1
-18 -3 -15 -5 3 -11 1 -15 -5 -10 -16 -25 -12 -25 8 0 13 2 14 9 4 7 -11 9
-11 14 1 8 21 -23 15 -35 -6 -5 -10 -6 -22 -2 -29 4 -6 3 -8 -4 -4 -6 3 -9 19
-7 34 2 15 4 31 4 35 1 5 5 6 10 2 5 -3 13 -1 16 5 9 14 31 -4 38 -30z m-426
-7 c-3 -3 -11 -2 -17 2 -9 6 -9 10 1 16 14 8 27 -7 16 -18z m297 4 c-1 -9 2
-14 7 -11 5 3 9 -2 9 -10 0 -8 6 -16 13 -19 6 -2 4 -3 -5 -2 -9 2 -25 -3 -34
-9 -15 -11 -14 -14 9 -29 19 -12 28 -14 33 -5 5 7 3 8 -6 3 -8 -5 -11 -4 -7 2
4 6 17 13 29 15 18 3 23 0 24 -20 2 -16 -2 -22 -12 -18 -8 3 -14 1 -14 -3 0
-5 -11 -8 -24 -7 -13 0 -22 3 -20 5 10 10 -19 28 -38 23 -14 -3 -19 -1 -14 6
4 7 2 12 -3 12 -6 0 -11 -4 -11 -10 0 -5 -7 -7 -15 -4 -8 4 -13 10 -10 14 3 5
1 11 -5 15 -5 3 -10 0 -10 -7 0 -9 -3 -9 -10 2 -8 13 -10 13 -10 1 0 -11 -3
-12 -11 -4 -7 7 -9 19 -5 29 6 16 7 16 19 0 12 -16 15 -16 26 -3 8 10 9 17 1
22 -5 3 -10 0 -10 -7 0 -8 -5 -6 -11 5 -6 9 -15 14 -21 11 -7 -4 -8 -2 -4 5 6
9 11 9 22 0 9 -7 14 -8 14 -1 0 18 43 9 48 -10 2 -10 9 -18 14 -18 6 0 8 -7 4
-15 -4 -12 -2 -13 14 -2 11 6 18 18 15 25 -3 8 -5 18 -5 23 0 6 -4 8 -9 4 -5
-3 -12 -1 -15 3 -3 5 5 9 17 8 14 -1 22 -7 21 -19z m53 -11 c-2 -5 -9 -12 -15
-14 -8 -2 -10 3 -5 14 4 12 3 15 -5 10 -7 -4 -12 -1 -12 8 0 14 3 14 20 4 11
-7 19 -17 17 -22z m218 24 c3 -5 -1 -10 -10 -10 -9 0 -13 5 -10 10 3 6 8 10
10 10 2 0 7 -4 10 -10z m-1075 -4 c0 -2 -8 -10 -17 -17 -16 -13 -17 -12 -4 4
13 16 21 21 21 13z m1180 -12 c11 -12 10 -18 -4 -32 -14 -14 -18 -15 -25 -3
-9 15 -3 51 9 51 4 0 13 -7 20 -16z m-110 -15 c0 -5 -5 -9 -11 -9 -6 0 -9 -6
-6 -12 2 -7 10 -12 16 -10 13 2 13 0 5 -22 -3 -9 -10 -13 -15 -10 -5 3 -9 1
-9 -4 0 -5 9 -12 20 -15 11 -3 20 -1 20 4 0 5 7 9 16 9 8 0 12 4 9 10 -3 5 -2
17 3 26 8 14 10 14 26 -2 14 -13 15 -19 4 -25 -8 -5 -3 -7 15 -5 15 1 30 6 35
11 4 4 1 5 -5 1 -7 -4 -13 -2 -13 4 0 6 -6 8 -12 5 -7 -4 -4 0 6 9 10 8 24 13
29 9 6 -4 8 0 5 9 -4 8 0 15 7 15 10 0 11 -5 4 -18 -10 -19 5 -37 16 -19 4 6
11 8 16 5 5 -3 6 0 4 7 -4 9 2 14 15 15 13 1 18 -2 14 -9 -5 -7 -2 -9 9 -5 9
3 18 -1 22 -11 5 -13 8 -14 14 -3 5 7 13 11 17 8 5 -3 32 1 59 8 43 10 53 10
73 -3 15 -10 57 -16 125 -19 56 -2 107 -4 112 -4 6 0 20 2 33 5 12 2 22 1 22
-3 0 -4 12 -7 28 -7 15 1 33 -3 40 -8 6 -4 12 -5 12 -2 0 4 9 2 21 -4 15 -9
24 -8 35 1 13 10 17 10 25 -2 7 -12 9 -12 9 1 0 9 3 11 8 5 4 -5 18 -12 32
-13 22 -4 23 -2 10 15 -14 17 -14 17 5 3 11 -7 26 -21 33 -29 11 -14 14 -14
22 -1 7 11 10 11 10 2 0 -9 5 -10 19 -2 25 13 34 13 26 0 -3 -5 -1 -10 4 -10
6 0 11 6 11 13 0 8 3 9 8 1 8 -13 40 -12 61 1 9 5 12 4 8 -2 -4 -6 7 -10 26
-11 18 -1 47 -3 66 -6 19 -2 45 0 58 5 15 6 23 5 23 -2 0 -7 10 -9 26 -5 19 5
30 2 41 -11 14 -17 14 -17 9 0 -3 9 -1 17 4 17 6 0 10 -6 10 -12 0 -7 7 -4 16
7 15 20 15 20 35 -5 12 -14 18 -19 14 -12 -4 7 0 12 11 12 11 0 15 -6 11 -20
-3 -11 -1 -20 4 -20 5 0 9 6 9 13 0 6 9 1 20 -13 13 -17 20 -20 20 -10 1 11 4
10 15 -4 11 -15 15 -16 15 -5 0 24 21 40 37 28 10 -9 13 -8 13 2 0 8 5 5 14
-6 12 -16 16 -17 30 -6 9 7 16 10 16 7 0 -4 10 -2 21 5 12 6 19 7 16 1 -10
-15 38 -33 52 -19 8 8 14 8 23 -1 8 -8 9 -12 1 -12 -6 0 -9 -8 -6 -19 5 -20
-22 -37 -32 -21 -11 18 -33 11 -28 -9 7 -27 -15 -36 -38 -15 -16 14 -20 15
-17 4 4 -17 -27 -21 -56 -7 -12 6 -16 5 -12 -1 3 -5 -3 -12 -15 -15 -16 -4
-18 -3 -8 9 9 11 8 15 -6 20 -10 4 -21 1 -26 -7 -5 -8 -9 -10 -9 -5 0 6 -7 1
-16 -10 -13 -16 -15 -16 -10 -1 3 9 1 17 -4 17 -6 0 -10 -4 -10 -9 0 -11 -19
-9 -39 3 -10 6 -12 5 -7 -2 4 -7 3 -12 -3 -12 -5 0 -12 4 -16 9 -3 6 -19 2
-38 -8 -35 -21 -102 -27 -91 -9 4 6 2 8 -4 4 -5 -3 -12 -1 -14 6 -3 7 -7 5
-11 -6 -5 -11 -3 -15 5 -10 7 5 8 3 3 -6 -6 -10 -11 -9 -21 5 -15 20 -84 32
-84 15 0 -5 -5 -10 -11 -10 -5 0 -7 4 -4 10 3 6 -1 7 -9 4 -9 -3 -16 -9 -16
-13 0 -4 -11 -7 -24 -7 -15 0 -22 5 -19 12 3 7 12 10 21 7 9 -4 14 -3 11 1 -4
4 -25 9 -48 11 -31 3 -40 1 -34 -8 4 -8 1 -8 -10 1 -9 8 -34 12 -57 11 -28 -2
-44 1 -50 11 -8 12 -10 9 -11 -10 -2 -23 -2 -23 -6 -3 -3 14 -9 20 -18 17 -8
-3 -28 1 -45 9 -16 9 -30 11 -30 7 0 -5 -10 -6 -22 -1 -16 6 -31 3 -48 -8 -13
-9 -21 -11 -17 -4 9 14 -16 22 -63 19 -19 -1 -38 3 -42 8 -5 7 -8 6 -8 -2 0
-7 -4 -10 -10 -7 -5 3 -10 1 -10 -5 0 -7 -6 -8 -19 0 -14 7 -22 7 -27 -1 -4
-8 -9 -8 -17 0 -7 7 -15 7 -26 -2 -11 -9 -13 -9 -8 0 4 6 3 14 -3 18 -5 3 -10
-1 -10 -10 0 -9 -5 -13 -10 -10 -6 4 -8 10 -5 15 5 8 -52 6 -139 -4 -30 -4
-53 -2 -62 5 -11 9 -14 9 -14 0 0 -7 -5 -9 -10 -6 -6 4 -8 10 -5 15 3 5 0 12
-6 16 -7 4 -9 3 -5 -4 4 -6 -1 -10 -13 -9 -12 1 -17 6 -13 16 4 10 1 13 -12 8
-11 -4 -19 -1 -23 9 -5 13 -7 13 -14 2 -7 -11 -11 -10 -19 2 -6 10 -10 11 -10
3 0 -7 -10 -13 -22 -13 -12 0 -37 6 -56 13 -29 10 -36 10 -40 -1 -3 -10 -7
-10 -18 -1 -11 9 -11 15 -3 25 12 14 11 16 -18 18 -10 1 -24 5 -30 9 -9 6 -13
2 -13 -12 0 -13 -6 -21 -17 -21 -15 0 -16 2 -3 10 12 7 10 9 -7 7 -25 -1 -20
-14 11 -28 18 -8 -7 -8 -61 1 -2 0 -3 7 -3 16 0 8 -4 12 -10 9 -5 -3 -7 0 -5
8 4 9 16 12 38 9 30 -5 31 -4 17 14 -14 18 -14 18 3 5 15 -12 22 -12 39 -2 14
9 23 9 32 1 10 -8 13 -5 11 14 -2 14 -6 30 -10 35 -3 6 -2 11 4 11 6 0 8 6 5
14 -4 11 0 13 15 9 12 -3 21 -9 21 -14z m60 17 c0 -2 -8 -10 -17 -17 -16 -13
-17 -12 -4 4 13 16 21 21 21 13z m-596 -21 c-7 -16 -24 -21 -24 -6 0 8 7 13
27 20 1 1 0 -6 -3 -14z m39 8 c-18 -7 -16 -23 2 -23 8 0 15 8 15 18 0 14 2 15
10 2 13 -20 13 -33 0 -25 -5 3 -10 2 -10 -3 0 -14 -29 -10 -35 6 -6 17 2 32
18 31 9 0 9 -2 0 -6z m64 -18 c0 -8 -4 -12 -9 -9 -4 3 -8 9 -8 15 0 5 4 9 8 9
5 0 9 -7 9 -15z m370 0 c0 -8 -4 -12 -9 -9 -5 3 -6 10 -3 15 9 13 12 11 12 -6z
m-217 -69 c0 -2 -7 -7 -16 -10 -8 -3 -12 -2 -9 4 6 10 25 14 25 6z m2110 -111
c0 -8 -2 -15 -4 -15 -2 0 -6 7 -10 15 -3 8 -1 15 4 15 6 0 10 -7 10 -15z
m-1190 -20 c0 -2 -7 -5 -15 -9 -9 -3 -15 0 -15 9 0 9 6 12 15 9 8 -4 15 -7 15
-9z m4731 -38 c-1 -12 -15 -9 -19 4 -3 6 1 10 8 8 6 -3 11 -8 11 -12z m129
-19 c0 -15 -15 -8 -28 12 -12 19 -11 20 8 8 11 -7 20 -16 20 -20z m-1760 -30
c0 -21 -25 -35 -48 -27 -13 5 -28 7 -33 3 -5 -3 -9 -3 -9 0 0 2 -3 12 -6 21
-6 14 1 16 45 14 28 -2 51 -6 51 -11z m150 2 c0 -5 -2 -10 -4 -10 -3 0 -8 5
-11 10 -3 6 -1 10 4 10 6 0 11 -4 11 -10z m-299 -9 c-7 -5 -10 -14 -7 -20 8
-12 7 -12 -41 -16 -18 -1 -30 1 -28 6 3 4 16 6 30 5 14 -2 22 1 18 7 -6 10 14
27 32 27 6 0 4 -4 -4 -9z m331 -8 c-11 -4 -11 -7 0 -17 7 -6 11 -10 9 -9 -2 1
-13 -3 -25 -9 -18 -10 -19 -9 -9 4 7 8 10 18 6 22 -4 4 -1 11 7 16 8 5 17 6
20 3 3 -3 -1 -8 -8 -10z m-302 -21 c-6 -2 -8 -8 -4 -13 3 -5 0 -9 -5 -9 -12 0
-15 33 -4 43 4 4 10 2 14 -5 5 -7 4 -15 -1 -16z m1220 24 c0 -11 -19 -15 -25
-6 -3 5 1 10 9 10 9 0 16 -2 16 -4z m-960 -35 c-6 -12 -8 -27 -4 -34 5 -8 2
-8 -9 1 -14 12 -15 16 -2 29 8 8 15 19 15 25 0 6 3 9 6 6 3 -4 1 -16 -6 -27z
m-208 7 c-12 -12 -42 -20 -42 -12 0 4 38 22 50 23 2 1 -1 -4 -8 -11z m188 8
c0 -2 -8 -10 -17 -17 -16 -13 -17 -12 -4 4 13 16 21 21 21 13z m-370 -15 c0
-6 -5 -13 -12 -17 -7 -5 -8 -3 -3 6 6 10 4 12 -9 7 -10 -4 -15 -3 -11 3 8 13
35 13 35 1z m571 -44 c0 -7 4 -3 9 8 7 16 9 14 7 -12 l-1 -33 -28 31 c-15 16
-28 32 -28 35 0 11 40 -18 41 -29z m-466 13 c3 -5 1 -10 -4 -10 -6 0 -11 5
-11 10 0 6 2 10 4 10 3 0 8 -4 11 -10z m515 -20 c0 -12 5 -17 14 -14 8 3 17 0
22 -7 5 -8 3 -10 -6 -4 -8 5 -11 3 -9 -4 3 -7 9 -13 14 -13 6 0 16 -5 24 -11
12 -10 13 -7 10 19 -5 28 -3 30 24 26 22 -4 28 -9 24 -23 -3 -12 0 -19 9 -19
19 0 18 -14 -2 -30 -12 -11 -15 -11 -12 0 2 7 -4 15 -12 17 -10 3 -11 2 -3 -4
15 -11 0 -38 -16 -29 -6 4 -9 11 -6 16 3 5 -7 12 -22 16 -42 10 -97 84 -63 84
6 0 10 -9 10 -20z m-466 2 c3 -5 -1 -9 -9 -9 -8 0 -12 4 -9 9 3 4 7 8 9 8 2 0
6 -4 9 -8z m396 -2 c0 -5 -4 -10 -10 -10 -5 0 -10 5 -10 10 0 6 5 10 10 10 6
0 10 -4 10 -10z m-35 -40 c3 -6 -1 -7 -9 -4 -18 7 -21 14 -7 14 6 0 13 -4 16
-10z m275 -31 c0 -6 -4 -7 -10 -4 -5 3 -10 11 -10 16 0 6 5 7 10 4 6 -3 10
-11 10 -16z m140 -4 c0 -2 -6 -8 -13 -14 -10 -8 -14 -7 -14 2 0 8 6 14 14 14
7 0 13 -1 13 -2z m130 -10 c0 -8 8 -15 18 -16 11 -1 8 -4 -8 -8 -32 -9 -63 8
-48 26 14 18 38 16 38 -2z m127 -20 c1 -11 -1 -14 -4 -7 -3 6 -8 10 -12 7 -5
-2 -16 1 -25 8 -14 11 -13 12 12 12 21 1 28 -4 29 -20z m-1144 -25 c-7 -8 -22
24 -16 34 4 5 10 1 13 -10 4 -10 6 -21 3 -24z m797 30 c0 -5 -5 -10 -11 -10
-5 0 -7 5 -4 10 3 6 8 10 11 10 2 0 4 -4 4 -10z m400 5 c0 -2 -9 -9 -20 -15
-12 -6 -20 -7 -20 -1 0 5 8 12 18 14 9 3 18 5 20 6 1 0 2 -1 2 -4z m454 -11
c3 -8 2 -12 -4 -9 -6 3 -10 10 -10 16 0 14 7 11 14 -7z m-394 2 c0 -2 -7 -7
-16 -10 -8 -3 -12 -2 -9 4 6 10 25 14 25 6z m180 -28 c0 -4 -6 -5 -14 -2 -8 3
-12 12 -9 21 5 12 7 12 14 1 5 -7 9 -16 9 -20z m-340 18 c0 -11 -19 -15 -25
-6 -3 5 1 10 9 10 9 0 16 -2 16 -4z m210 -24 c-6 -2 -8 -7 -6 -11 3 -4 -3 -7
-13 -7 -10 0 -18 6 -18 13 0 7 4 10 8 8 4 -3 10 3 13 12 6 15 8 15 16 3 6 -9
6 -16 0 -18z m74 22 c18 -7 12 -24 -8 -24 -7 0 -13 7 -13 15 0 17 0 17 21 9z
m134 -13 c4 -11 6 -10 13 0 7 11 9 11 9 -2 0 -23 -48 -31 -60 -10 -5 9 -10 12
-10 8 0 -5 -5 -5 -11 -1 -8 5 -8 8 0 14 18 10 54 5 59 -9z m-4030 -366 c-3 -3
-9 2 -12 12 -6 14 -5 15 5 6 7 -7 10 -15 7 -18z m-2634 -35 c5 -5 22 -6 37 -3
20 4 29 1 29 -7 0 -7 8 -10 20 -7 10 3 22 0 25 -7 4 -8 7 -8 11 1 4 9 11 7 27
-7 16 -15 23 -17 29 -8 4 8 8 9 8 2 0 -6 13 -9 30 -6 30 4 31 3 25 -24 -5 -22
-4 -25 4 -14 9 13 11 13 11 -2 0 -10 5 -18 11 -18 5 0 7 5 3 11 -4 8 -1 8 12
1 34 -19 59 -40 53 -46 -3 -3 -15 3 -27 14 -15 14 -22 17 -22 7 0 -7 16 -21
36 -30 19 -10 33 -13 29 -7 -3 5 -1 10 5 10 6 0 8 6 4 13 -4 7 -3 9 2 4 5 -5
9 -14 9 -19 0 -6 6 -13 13 -15 6 -3 12 1 12 9 0 10 3 9 10 -2 8 -13 10 -12 10
4 0 15 3 16 15 6 8 -7 24 -10 35 -7 10 3 18 0 17 -5 -1 -5 6 -15 16 -21 14
-10 20 -9 27 3 7 11 10 11 10 2 0 -9 7 -11 22 -6 21 6 21 6 5 -10 -9 -10 -17
-23 -17 -29 0 -8 3 -9 8 -1 4 6 14 13 23 16 11 4 15 0 14 -15 -1 -16 -8 -22
-26 -22 -18 0 -25 7 -30 30 -6 26 -7 27 -8 6 -1 -24 -1 -24 -16 -5 -11 13 -13
14 -9 3 4 -14 -4 -17 -57 -18 -34 -1 -67 3 -73 8 -14 12 -66 9 -66 -3 0 -6 -7
-1 -15 10 -8 10 -15 14 -15 7 0 -9 -8 -9 -32 -1 -18 5 -53 11 -78 13 -25 2
-45 5 -45 5 0 1 -21 2 -47 3 -26 0 -45 4 -42 9 3 4 0 8 -5 8 -6 0 -11 -4 -11
-9 0 -12 -33 -9 -42 4 -5 6 -8 5 -8 -4 0 -11 -3 -11 -16 0 -13 10 -17 10 -25
-2 -5 -8 -9 -9 -9 -3 0 7 -7 15 -16 18 -12 5 -15 2 -10 -11 5 -15 4 -15 -9 1
-8 11 -15 15 -15 8 0 -6 -9 -16 -20 -22 -16 -9 -19 -8 -13 6 4 12 3 15 -5 10
-7 -4 -12 -1 -12 8 0 9 -5 16 -11 16 -5 0 -7 -5 -4 -10 4 -7 -6 -10 -29 -8
-20 1 -36 6 -36 11 0 5 -8 3 -17 -4 -10 -8 -14 -9 -10 -2 4 6 3 15 -3 18 -6 4
-9 1 -8 -6 2 -6 -7 -12 -19 -14 -16 -1 -23 4 -23 16 0 18 -25 19 -52 3 -6 -4
-8 -3 -5 3 4 6 0 16 -8 23 -12 10 -15 10 -15 -1 -1 -9 -8 -6 -19 9 -11 12 -21
18 -23 12 -2 -6 -8 -6 -18 0 -13 8 -12 10 3 10 10 0 15 5 12 10 -4 6 -11 7
-17 4 -7 -4 -8 -2 -4 4 7 12 36 5 36 -9 0 -5 7 -9 15 -9 10 0 12 6 8 18 -6 15
-5 16 12 2 11 -9 16 -10 11 -2 -4 6 -2 12 3 12 6 0 11 -6 11 -12 0 -10 2 -10
8 -1 4 7 29 15 56 18 32 4 46 3 41 -5 -3 -5 -2 -10 2 -10 5 0 14 9 21 21 13
20 14 20 39 4 24 -16 25 -16 20 -1 -4 9 -2 16 3 16 6 0 10 -4 10 -10 0 -5 5
-10 10 -10 6 0 10 12 10 28 0 21 2 24 10 12 9 -13 10 -13 10 0 0 13 1 13 10 0
7 -11 10 -11 10 -2 0 7 4 11 9 7 5 -3 12 -2 14 2 7 10 99 4 111 -7z m-2514
-30 c0 -5 -5 -10 -11 -10 -5 0 -7 5 -4 10 3 6 8 10 11 10 2 0 4 -4 4 -10z
m5990 0 c0 -5 -4 -10 -10 -10 -5 0 -10 5 -10 10 0 6 5 10 10 10 6 0 10 -4 10
-10z m-6043 -20 c-1 -11 -5 -20 -9 -20 -3 0 -6 9 -5 20 1 11 5 20 9 20 3 0 6
-9 5 -20z m6082 -47 c1 -7 -3 -13 -9 -13 -5 0 -10 12 -10 28 0 21 -2 24 -10
12 -8 -13 -10 -13 -10 2 0 25 24 28 32 4 3 -12 6 -27 7 -33z m-6194 -1 c-3 -3
-11 0 -18 7 -9 10 -8 11 6 5 10 -3 15 -9 12 -12z m1363 -15 c11 -14 17 -15 28
-6 7 6 11 15 8 20 -7 12 3 11 27 -1 14 -8 19 -7 20 2 0 7 4 4 9 -7 11 -25 12
-44 2 -29 -4 6 -17 14 -29 18 -17 6 -23 3 -23 -9 0 -12 -7 -15 -29 -12 -17 3
-32 0 -35 -6 -3 -7 -5 -3 -3 8 1 11 -2 26 -6 33 -13 20 16 10 31 -11z m1669
17 c-3 -3 -12 -4 -19 -1 -8 3 -5 6 6 6 11 1 17 -2 13 -5z m-1724 -24 c-3 -11
-9 -17 -14 -15 -10 7 -1 35 11 35 5 0 6 -9 3 -20z m302 10 c3 -5 1 -10 -4 -10
-6 0 -11 5 -11 10 0 6 2 10 4 10 3 0 8 -4 11 -10z m35 6 c0 -3 -4 -8 -10 -11
-5 -3 -10 -1 -10 4 0 6 5 11 10 11 6 0 10 -2 10 -4z m-606 -33 c13 5 13 2 4
-18 -6 -13 -15 -22 -21 -18 -5 3 -3 9 4 14 11 7 10 9 -3 9 -11 0 -18 7 -18 18
0 14 2 14 9 3 5 -8 16 -11 25 -8z m130 -21 c3 -5 -1 -9 -9 -9 -8 0 -12 4 -9 9
3 4 7 8 9 8 2 0 6 -4 9 -8z m-155 -36 c-3 -3 -11 5 -18 17 -13 21 -12 21 5 5
10 -10 16 -20 13 -22z m2298 -31 c0 -17 -13 -20 -21 -6 -4 5 0 12 6 14 7 3 13
6 14 6 0 1 1 -6 1 -14z m4824 6 c16 -1 26 -7 26 -16 0 -8 -3 -13 -5 -10 -3 3
-11 0 -19 -6 -10 -9 -13 -8 -13 1 0 7 -9 2 -21 -11 -11 -13 -17 -18 -14 -10 6
10 2 11 -15 6 -17 -5 -21 -4 -15 5 6 9 4 11 -6 5 -18 -12 -49 -14 -49 -3 0 4
-5 8 -11 8 -5 0 -7 -5 -3 -12 5 -8 2 -9 -9 -5 -10 4 -17 1 -17 -6 0 -8 -3 -9
-8 -1 -11 17 -40 24 -46 11 -2 -7 -5 -4 -5 7 -1 12 4 16 13 13 8 -3 17 1 20 9
6 15 36 20 36 5 0 -9 66 2 77 12 3 3 17 4 31 2 15 -1 39 -3 53 -4z m-4789 -19
c-7 -2 -9 -9 -6 -14 4 -7 2 -8 -4 -4 -19 12 -15 36 5 29 11 -4 13 -8 5 -11z
m2388 8 c0 -5 -4 -10 -10 -10 -5 0 -10 5 -10 10 0 6 5 10 10 10 6 0 10 -4 10
-10z m-2330 -20 c0 -5 -5 -10 -11 -10 -5 0 -7 5 -4 10 3 6 8 10 11 10 2 0 4
-4 4 -10z m60 -11 c0 -11 -3 -11 -24 -3 -23 9 -20 23 4 17 11 -3 20 -9 20 -14z
m-93 -4 c0 -8 -4 -12 -9 -9 -5 3 -6 10 -3 15 9 13 12 11 12 -6z m136 1 c3 3 3
-4 0 -17 -4 -13 -8 -18 -11 -11 -2 7 -7 10 -11 8 -4 -3 -7 4 -7 14 0 13 4 16
12 10 6 -6 13 -7 17 -4z m57 4 c10 -6 11 -10 3 -10 -7 0 -13 -5 -13 -11 0 -5
5 -7 10 -4 6 3 10 1 10 -4 0 -22 -28 -10 -32 14 -6 27 -1 30 22 15z m4690 1
c0 -5 -7 -11 -14 -14 -10 -4 -13 -1 -9 9 6 15 23 19 23 5z m37 -7 c-3 -3 -12
-4 -19 -1 -8 3 -5 6 6 6 11 1 17 -2 13 -5z m-3627 -14 c0 -5 -4 -10 -10 -10
-5 0 -10 5 -10 10 0 6 5 10 10 10 6 0 10 -4 10 -10z m-1130 -10 c0 -5 -4 -10
-10 -10 -5 0 -10 5 -10 10 0 6 5 10 10 10 6 0 10 -4 10 -10z m64 -5 c3 -8 1
-15 -4 -15 -6 0 -10 7 -10 15 0 8 2 15 4 15 2 0 6 -7 10 -15z m624 -10 c-3 -3
-13 -2 -22 1 -14 5 -15 9 -4 15 13 8 36 -6 26 -16z m-3634 6 c11 -4 15 -10 10
-13 -5 -4 -18 0 -29 8 -20 15 -12 17 19 5z m3051 -1 c3 -6 -1 -7 -9 -4 -18 7
-21 14 -7 14 6 0 13 -4 16 -10z m615 1 c0 -6 -4 -12 -8 -15 -5 -3 -9 1 -9 9 0
8 4 15 9 15 4 0 8 -4 8 -9z m406 -39 c-10 -10 -29 15 -21 28 6 9 10 8 17 -4 6
-10 7 -20 4 -24z m281 -104 c-15 -9 -19 -4 -11 16 5 14 9 15 15 5 5 -8 3 -17
-4 -21z m2814 9 c-10 -9 -11 -8 -5 6 3 10 9 15 12 12 3 -3 0 -11 -7 -18z
m-5496 -57 c-3 -5 -11 -10 -16 -10 -6 0 -7 5 -4 10 3 6 11 10 16 10 6 0 7 -4
4 -10z m30 0 c3 -5 1 -10 -4 -10 -6 0 -11 5 -11 10 0 6 2 10 4 10 3 0 8 -4 11
-10z m35 -10 c5 8 9 9 14 1 4 -6 2 -11 -4 -11 -6 0 -8 -5 -4 -12 5 -9 2 -9 -9
1 -9 7 -16 21 -16 30 1 12 2 11 6 -3 4 -14 7 -15 13 -6z m2071 -103 c-10 -9
-11 -8 -5 6 3 10 9 15 12 12 3 -3 0 -11 -7 -18z m4909 -17 c0 -5 -2 -10 -4
-10 -3 0 -8 5 -11 10 -3 6 -1 10 4 10 6 0 11 -4 11 -10z m-5882 -45 c-3 -3 -9
2 -12 12 -6 14 -5 15 5 6 7 -7 10 -15 7 -18z m-1053 -65 c-9 -14 8 -12 26 2 7
7 6 4 -3 -7 -17 -18 -19 -18 -35 -2 -16 16 -16 17 0 17 10 0 15 -4 12 -10z"/>
<path d="M5941 10664 c0 -11 3 -14 6 -6 3 7 2 16 -1 19 -3 4 -6 -2 -5 -13z"/>
<path d="M5970 10660 c-13 -8 -12 -10 3 -10 9 0 17 5 17 10 0 12 -1 12 -20 0z"/>
<path d="M7379 8813 c-13 -16 -12 -17 4 -4 9 7 17 15 17 17 0 8 -8 3 -21 -13z"/>
<path d="M7472 8731 c-11 -7 -11 -9 0 -14 9 -3 15 1 15 9 0 8 -1 14 -1 14 -1
0 -7 -4 -14 -9z"/>
<path d="M7565 8730 c3 -5 10 -10 16 -10 5 0 9 5 9 10 0 6 -7 10 -16 10 -8 0
-12 -4 -9 -10z"/>
<path d="M8204 8535 c1 -8 7 -20 13 -26 7 -7 9 -3 6 15 -6 27 -23 37 -19 11z"/>
<path d="M10180 7860 c0 -5 5 -10 11 -10 5 0 7 5 4 10 -3 6 -8 10 -11 10 -2 0
-4 -4 -4 -10z"/>
<path d="M10257 7809 c7 -7 15 -10 18 -7 3 3 -2 9 -12 12 -14 6 -15 5 -6 -5z"/>
<path d="M10440 7811 c0 -6 4 -13 10 -16 6 -3 7 1 4 9 -7 18 -14 21 -14 7z"/>
<path d="M3544 7204 c-1 -13 1 -24 5 -24 9 0 12 38 3 44 -4 2 -8 -7 -8 -20z"/>
<path d="M3360 7200 c-9 -6 -10 -10 -3 -10 6 0 15 5 18 10 8 12 4 12 -15 0z"/>
<path d="M3770 7190 c0 -5 5 -10 11 -10 5 0 7 5 4 10 -3 6 -8 10 -11 10 -2 0
-4 -4 -4 -10z"/>
<path d="M3746 7157 c3 -10 9 -15 12 -12 3 3 0 11 -7 18 -10 9 -11 8 -5 -6z"/>
<path d="M3395 7150 c-3 -5 -1 -10 4 -10 6 0 11 5 11 10 0 6 -2 10 -4 10 -3 0
-8 -4 -11 -10z"/>
<path d="M4108 7093 c7 -3 16 -2 19 1 4 3 -2 6 -13 5 -11 0 -14 -3 -6 -6z"/>
<path d="M4821 7054 c0 -11 3 -14 6 -6 3 7 2 16 -1 19 -3 4 -6 -2 -5 -13z"/>
<path d="M5250 7054 c0 -8 5 -12 10 -9 6 4 8 11 5 16 -9 14 -15 11 -15 -7z"/>
<path d="M5436 6872 c-3 -5 1 -9 9 -9 8 0 12 4 9 9 -3 4 -7 8 -9 8 -2 0 -6 -4
-9 -8z"/>
<path d="M6910 6860 c0 -5 5 -10 11 -10 5 0 7 5 4 10 -3 6 -8 10 -11 10 -2 0
-4 -4 -4 -10z"/>
<path d="M6850 6819 c0 -5 5 -7 10 -4 6 3 10 8 10 11 0 2 -4 4 -10 4 -5 0 -10
-5 -10 -11z"/>
<path d="M3285 6080 c-3 -5 1 -10 10 -10 9 0 13 5 10 10 -3 6 -8 10 -10 10 -2
0 -7 -4 -10 -10z"/>
<path d="M3150 6010 c0 -5 5 -10 11 -10 5 0 7 5 4 10 -3 6 -8 10 -11 10 -2 0
-4 -4 -4 -10z"/>
<path d="M10605 6760 c3 -5 8 -10 11 -10 2 0 4 5 4 10 0 6 -5 10 -11 10 -5 0
-7 -4 -4 -10z"/>
<path d="M6006 6072 c-15 -3 -16 -6 -5 -12 10 -7 8 -11 -11 -19 -24 -9 -24
-10 -3 -10 12 -1 28 -8 37 -16 9 -9 17 -11 21 -5 3 5 13 10 22 10 12 0 12 -3
-4 -17 -10 -10 -14 -15 -9 -10 15 11 48 9 41 -3 -3 -5 -1 -10 6 -10 10 0 10
-3 1 -12 -18 -18 -14 -32 5 -17 15 13 15 12 4 -9 -12 -22 -11 -23 8 -13 16 9
19 19 16 44 -4 29 -3 28 6 -6 9 -29 14 -35 24 -27 10 8 15 8 21 -1 5 -8 3 -10
-7 -5 -8 4 -7 1 3 -6 12 -10 14 -19 6 -33 -6 -13 -2 -11 11 5 20 25 20 25 36
5 9 -11 14 -14 10 -7 -8 15 0 15 25 2 13 -7 21 -7 25 0 3 5 0 10 -7 11 -7 0
-3 4 9 9 24 10 23 30 -4 62 -8 9 -12 23 -8 30 6 9 5 10 -3 3 -5 -5 -12 -19
-15 -30 -4 -19 -5 -19 -6 1 -1 13 -9 24 -21 27 -23 6 -24 3 -9 -25 7 -12 7
-18 1 -14 -6 3 -13 1 -15 -4 -3 -6 -4 -5 -3 2 1 7 -8 24 -21 38 -21 22 -25 23
-46 11 -21 -13 -21 -12 3 14 21 23 22 27 6 21 -16 -5 -17 -4 -7 8 10 12 9 14
-8 9 -12 -3 -19 -9 -16 -13 12 -19 -16 -19 -35 0 -22 22 -35 27 -24 8 5 -7 3
-8 -7 -2 -17 10 -28 12 -53 6z m179 -63 c11 -17 -1 -21 -15 -4 -8 9 -8 15 -2
15 6 0 14 -5 17 -11z m15 -49 c0 -5 -2 -10 -4 -10 -3 0 -8 5 -11 10 -3 6 -1
10 4 10 6 0 11 -4 11 -10z m100 0 c0 -5 -4 -10 -10 -10 -5 0 -10 5 -10 10 0 6
5 10 10 10 6 0 10 -4 10 -10z m7 -26 c-3 -3 -12 -4 -19 -1 -8 3 -5 6 6 6 11 1
17 -2 13 -5z"/>
<path d="M6100 6071 c0 -6 4 -13 10 -16 6 -3 7 1 4 9 -7 18 -14 21 -14 7z"/>
<path d="M5951 6054 c0 -11 3 -14 6 -6 3 7 2 16 -1 19 -3 4 -6 -2 -5 -13z"/>
<path d="M6236 6037 c3 -10 9 -15 12 -12 3 3 0 11 -7 18 -10 9 -11 8 -5 -6z"/>
<path d="M976 6014 c-3 -9 -11 -12 -18 -8 -10 6 -10 5 0 -8 7 -8 23 -15 37
-15 21 0 22 1 9 15 -13 12 -13 16 -2 23 10 7 9 9 -3 9 -9 0 -20 -7 -23 -16z"/>
<path d="M1792 5993 c-2 -21 1 -23 12 -14 11 9 15 9 19 -1 4 -11 6 -10 6 0 1
7 6 10 13 6 7 -5 8 -3 4 5 -5 7 -11 10 -14 7 -3 -3 -13 1 -22 9 -14 13 -16 12
-18 -12z"/>
<path d="M1740 5970 c-9 -6 -10 -10 -3 -10 6 0 15 5 18 10 8 12 4 12 -15 0z"/>
<path d="M6070 5970 c0 -5 5 -10 10 -10 6 0 10 5 10 10 0 6 -4 10 -10 10 -5 0
-10 -4 -10 -10z"/>
<path d="M6046 5953 c-6 -14 -5 -15 5 -6 7 7 10 15 7 18 -3 3 -9 -2 -12 -12z"/>
<path d="M6366 5958 c4 -6 -1 -17 -11 -25 -11 -7 -13 -13 -6 -13 7 0 9 -5 5
-12 -5 -9 -2 -8 9 1 10 8 15 16 12 19 -3 3 0 11 5 17 8 9 6 14 -5 19 -11 4
-14 2 -9 -6z"/>
<path d="M6531 5961 c-8 -5 -9 -11 -3 -15 5 -3 12 1 16 9 6 17 6 18 -13 6z"/>
<path d="M5320 5945 c7 -8 17 -15 22 -15 5 0 3 7 -6 15 -8 8 -18 15 -22 15 -3
0 -1 -7 6 -15z"/>
<path d="M5796 5948 c3 -4 9 -8 15 -8 5 0 9 4 9 8 0 5 -7 9 -15 9 -8 0 -12 -4
-9 -9z"/>
<path d="M6742 5944 c-7 -8 -8 -14 -3 -14 10 0 25 19 20 25 -2 1 -10 -3 -17
-11z"/>
<path d="M6059 5933 c-8 -9 -9 -14 -3 -10 7 4 17 1 23 -7 9 -11 9 -15 0 -18
-15 -5 -5 -38 12 -38 8 0 8 4 -1 15 -10 12 -10 15 4 15 9 0 16 -6 17 -12 0 -7
4 -4 9 7 5 11 9 14 9 6 1 -10 4 -11 15 -2 10 8 16 9 19 1 3 -6 4 -5 3 2 -1 7
-18 14 -37 16 -37 4 -62 19 -53 33 9 16 -3 10 -17 -8z"/>
<path d="M5674 5909 c-4 -7 -3 -9 4 -5 5 3 13 0 15 -6 4 -9 6 -10 6 -1 1 17
-16 25 -25 12z"/>
<path d="M5791 5888 c9 -16 29 -17 29 -2 0 3 -5 2 -12 -2 -7 -5 -9 -2 -6 8 4
8 0 15 -7 15 -10 0 -11 -5 -4 -19z"/>
<path d="M6033 5903 c-7 -3 -13 -9 -13 -15 0 -6 7 -8 15 -4 8 3 15 0 15 -6 0
-6 3 -9 6 -5 10 9 -10 34 -23 30z"/>
<path d="M6310 5900 c0 -5 7 -7 15 -4 8 4 15 8 15 10 0 2 -7 4 -15 4 -8 0 -15
-4 -15 -10z"/>
<path d="M5337 5868 c-2 -18 -4 -33 -3 -34 0 0 8 7 17 16 13 14 14 20 4 34
-11 15 -13 13 -18 -16z"/>
<path d="M5830 5880 c0 -6 4 -9 9 -6 5 4 12 1 14 -4 3 -6 4 -5 3 2 -3 15 -26
23 -26 8z"/>
<path d="M5920 5850 c0 -5 5 -10 11 -10 5 0 7 5 4 10 -3 6 -8 10 -11 10 -2 0
-4 -4 -4 -10z"/>
<path d="M6448 5828 c13 -13 16 -32 4 -24 -4 2 -8 -3 -9 -12 -1 -13 6 -17 25
-16 28 1 44 24 17 24 -15 0 -16 2 -4 17 12 15 12 16 -3 10 -10 -3 -18 -2 -18
3 0 6 -5 10 -12 10 -9 0 -9 -3 0 -12z"/>
<path d="M6159 5793 c-13 -16 -12 -17 4 -4 9 7 17 15 17 17 0 8 -8 3 -21 -13z"/>
<path d="M5886 5715 c-3 -8 -3 -15 0 -15 3 0 12 7 20 15 13 13 13 15 1 15 -8
0 -17 -7 -21 -15z"/>
<path d="M10653 5705 c-10 -10 -9 -14 2 -19 17 -6 26 5 17 21 -5 8 -11 7 -19
-2z"/>
<path d="M9463 5583 c-17 -6 -17 -20 0 -26 8 -3 13 3 13 14 0 11 0 19 -1 18 0
0 -6 -3 -12 -6z"/>
<path d="M9560 5575 c-7 -9 -10 -18 -6 -22 3 -3 6 -1 6 6 0 7 7 11 14 8 10 -4
13 -1 9 9 -6 18 -8 18 -23 -1z"/>
<path d="M9355 5570 c-3 -6 1 -7 9 -4 18 7 21 14 7 14 -6 0 -13 -4 -16 -10z"/>
<path d="M1750 5560 c-13 -8 -12 -10 3 -10 9 0 17 5 17 10 0 12 -1 12 -20 0z"/>
<path d="M2028 5533 c7 -3 16 -2 19 1 4 3 -2 6 -13 5 -11 0 -14 -3 -6 -6z"/>
<path d="M10076 5461 c-3 -5 1 -11 9 -14 9 -4 12 -1 8 9 -6 16 -10 17 -17 5z"/>
<path d="M10135 5429 c-4 -6 -5 -12 -2 -15 2 -3 7 2 10 11 7 17 1 20 -8 4z"/>
<path d="M70 5393 c0 -5 5 -15 10 -23 8 -12 10 -11 10 8 0 12 -4 22 -10 22 -5
0 -10 -3 -10 -7z"/>
<path d="M206 5385 c-3 -8 -1 -15 4 -15 6 0 10 7 10 15 0 8 -2 15 -4 15 -2 0
-6 -7 -10 -15z"/>
<path d="M250 5390 c-9 -6 -10 -10 -3 -10 6 0 15 5 18 10 8 12 4 12 -15 0z"/>
<path d="M444 5389 c-3 -6 -1 -16 5 -22 9 -9 10 -7 5 7 -5 13 -4 17 4 12 7 -4
12 -2 12 3 0 14 -17 14 -26 0z"/>
<path d="M486 5384 c-4 -9 1 -14 14 -14 23 0 27 15 6 23 -8 3 -17 -1 -20 -9z"/>
<path d="M125 5380 c-3 -5 -1 -10 4 -10 6 0 11 5 11 10 0 6 -2 10 -4 10 -3 0
-8 -4 -11 -10z"/>
<path d="M524 5372 c-10 -15 -8 -18 10 -19 11 -1 16 1 9 4 -7 2 -9 11 -6 19 7
20 0 18 -13 -4z"/>
<path d="M681 5376 c-1 -13 -4 -16 -13 -8 -14 11 -78 4 -78 -8 0 -4 7 -11 16
-14 10 -4 13 -2 8 6 -7 11 14 8 70 -9 12 -3 16 -1 12 6 -5 7 1 11 14 11 12 0
19 -4 16 -8 -6 -11 66 -8 84 3 13 8 13 6 0 -11 -14 -17 -14 -18 1 -6 9 7 23
11 30 9 8 -2 11 -2 6 0 -4 3 -4 10 0 16 3 7 3 9 -2 5 -4 -4 -14 0 -22 10 -8 9
-11 11 -7 3 5 -11 2 -13 -14 -9 -12 4 -20 2 -17 -2 3 -5 1 -11 -5 -15 -6 -3
-10 4 -10 16 0 22 0 22 -20 4 -15 -14 -20 -15 -17 -4 2 8 2 10 -1 6 -2 -4 -11
-2 -20 5 -12 10 -14 10 -8 1 4 -7 3 -13 -3 -13 -5 0 -12 6 -14 13 -3 7 -6 4
-6 -7z"/>
<path d="M867 5361 c5 -22 40 -25 40 -4 0 7 -2 11 -5 8 -3 -2 -13 0 -22 5 -15
8 -17 6 -13 -9z"/>
<path d="M930 5341 c0 -6 4 -13 10 -16 6 -3 7 1 4 9 -7 18 -14 21 -14 7z"/>
<path d="M20 5302 c0 -7 -4 -10 -10 -7 -6 4 -10 -20 -10 -64 0 -42 5 -73 12
-77 8 -5 9 -2 5 9 -5 14 -1 16 23 12 20 -4 30 -1 30 7 0 8 3 9 8 3 9 -12 32
-18 32 -7 0 4 50 6 111 4 83 -3 109 0 104 8 -6 9 -2 9 14 1 12 -7 26 -9 31 -6
6 3 10 1 10 -6 0 -7 8 -5 20 6 17 16 20 16 20 2 0 -12 6 -14 28 -8 15 4 33 6
41 3 9 -3 11 0 6 8 -6 9 -3 9 14 1 12 -7 27 -9 33 -5 7 4 8 3 4 -4 -4 -7 -1
-12 8 -12 9 0 15 6 14 13 -2 6 4 12 12 12 8 0 14 -5 13 -11 -1 -6 3 -11 10
-11 7 0 20 -4 30 -8 10 -4 17 -3 17 4 0 6 7 11 15 11 8 0 15 -6 15 -12 0 -9 4
-8 10 2 6 9 13 11 18 5 4 -5 30 -10 57 -9 28 0 54 -2 59 -5 6 -2 31 -5 56 -6
25 -1 52 -5 60 -10 9 -6 12 -4 8 6 -4 10 2 14 18 14 13 0 24 -4 24 -8 0 -5 23
-7 50 -5 28 1 50 -1 50 -6 0 -5 7 -3 15 4 8 7 13 16 10 20 -3 5 2 7 11 6 8 -1
20 -9 25 -17 7 -11 9 -11 9 4 0 9 4 17 9 17 5 0 7 -10 4 -21 -5 -19 -4 -20 16
-9 14 7 33 9 49 4 15 -4 31 -6 36 -5 4 1 14 -4 22 -10 11 -9 14 -8 14 7 0 16
2 17 10 4 5 -8 10 -11 10 -7 0 4 9 3 20 -3 15 -8 20 -8 20 2 0 9 3 9 10 -2 9
-13 10 -13 10 0 1 11 4 10 17 -5 15 -20 15 -20 10 2 -3 13 -2 25 2 27 4 3 8
-5 8 -16 2 -28 12 -35 24 -18 8 13 10 13 19 0 8 -13 10 -12 10 4 0 13 5 17 19
13 10 -2 25 0 34 5 13 7 15 5 11 -7 -5 -13 -2 -14 20 -5 14 5 26 6 26 1 0 -11
33 -9 42 3 8 12 38 17 38 7 0 -6 30 -7 88 -2 10 1 10 6 2 21 -6 11 -8 25 -5
30 4 6 -1 13 -9 16 -9 3 -16 10 -16 16 0 5 4 7 9 3 5 -3 12 -2 15 3 2 4 -4 9
-15 9 -14 1 -19 -5 -19 -21 0 -23 -21 -29 -49 -12 -7 5 -18 3 -24 -4 -9 -10
-9 -11 3 -5 16 9 16 10 -18 -35 -2 -3 -2 4 0 15 2 13 -2 19 -11 17 -7 -1 -20
5 -28 15 -13 17 -14 15 -9 -12 3 -16 3 -24 0 -17 -3 6 -10 10 -15 6 -9 -5 -13
16 -10 44 2 9 -5 7 -17 -5 -10 -10 -17 -21 -15 -25 2 -5 -1 -8 -7 -8 -6 0 -8
-5 -4 -12 4 -7 3 -8 -4 -4 -6 4 -8 14 -5 24 6 15 4 15 -9 4 -14 -11 -18 -10
-27 5 -10 17 -10 17 -11 -1 0 -20 0 -20 -15 0 -11 14 -14 15 -15 4 0 -13 -1
-13 -11 0 -8 11 -12 12 -16 3 -5 -14 -33 -18 -33 -5 0 4 -9 8 -20 8 -10 0 -17
-2 -15 -5 7 -6 -16 -31 -29 -31 -6 0 -4 5 4 10 10 6 11 10 3 10 -19 0 -26 2
-52 11 -15 6 -28 6 -36 -1 -9 -7 -15 -8 -19 -1 -5 7 -15 7 -31 -1 -13 -6 -22
-15 -18 -21 3 -6 1 -7 -5 -3 -6 4 -9 12 -6 19 2 7 -4 13 -16 14 -22 2 -26 -7
-9 -24 9 -9 7 -11 -7 -8 -11 1 -18 8 -16 15 2 7 -3 10 -12 7 -9 -4 -18 -2 -22
4 -4 6 -12 5 -22 -3 -9 -7 -13 -8 -9 -2 8 13 -41 12 -63 -1 -9 -5 -11 -4 -6 3
4 7 4 13 -1 13 -4 1 -17 3 -28 5 -11 1 -30 5 -42 8 -13 3 -23 1 -23 -3 0 -4
-6 -8 -12 -8 -7 0 -27 -3 -45 -7 -18 -4 -34 -3 -37 3 -4 6 2 8 15 6 12 -2 19
-1 15 2 -4 4 -12 8 -19 9 -7 2 -22 5 -35 8 -16 3 -20 1 -15 -7 4 -7 -1 -5 -11
3 -16 13 -20 12 -32 -5 -12 -17 -14 -17 -14 -2 0 9 -4 17 -10 17 -5 0 -10 -5
-10 -11 0 -6 -5 -7 -12 -2 -21 12 -79 14 -72 1 4 -6 3 -8 -3 -5 -20 13 -103
15 -103 4 0 -8 -4 -7 -9 2 -6 9 -11 10 -15 2 -4 -6 -14 -11 -22 -11 -8 0 -13
3 -11 8 8 11 -87 8 -95 -3 -5 -6 -8 -5 -8 3 0 7 -14 12 -37 12 -25 0 -33 3
-25 9 8 5 -8 6 -37 3 -33 -3 -51 -1 -51 6 0 7 -19 11 -49 9 -27 -1 -47 1 -44
6 2 4 -1 7 -6 7 -6 0 -11 -5 -11 -12 0 -6 -7 -3 -15 8 -9 12 -14 14 -15 6z
m910 -86 c0 -2 -8 -10 -17 -17 -16 -13 -17 -12 -4 4 13 16 21 21 21 13z m265
-6 c-3 -5 -12 -10 -18 -10 -7 0 -6 4 3 10 19 12 23 12 15 0z m55 0 c0 -5 -4
-10 -10 -10 -5 0 -10 5 -10 10 0 6 5 10 10 10 6 0 10 -4 10 -10z m128 -13 c14
6 15 5 2 -9 -15 -16 -31 -7 -29 17 0 6 3 5 5 -2 3 -7 13 -9 22 -6z m309 -13
c-3 -3 -12 -4 -19 -1 -8 3 -5 6 6 6 11 1 17 -2 13 -5z"/>
<path d="M1345 5300 c3 -5 8 -10 11 -10 2 0 4 5 4 10 0 6 -5 10 -11 10 -5 0
-7 -4 -4 -10z"/>
<path d="M2305 5279 c-4 -6 -5 -12 -2 -15 2 -3 7 2 10 11 7 17 1 20 -8 4z"/>
<path d="M1865 5259 c6 -9 3 -11 -9 -6 -10 4 -15 3 -11 -3 6 -11 -2 -13 -49
-14 -24 -1 -29 -6 -32 -28 -1 -15 2 -31 8 -34 8 -5 9 -1 5 10 -4 10 -3 15 3
11 6 -3 7 -18 4 -32 -6 -22 -4 -25 10 -20 17 7 21 -2 9 -19 -5 -5 1 0 12 12
14 15 26 19 40 14 11 -4 25 -6 30 -5 6 1 7 0 3 -2 -5 -3 -8 -9 -8 -14 0 -15
22 -10 37 9 14 16 14 16 9 0 -3 -10 -1 -20 4 -23 6 -4 10 -1 10 5 0 6 4 9 9 6
5 -3 14 0 20 8 9 11 9 15 -1 18 -7 3 7 4 32 3 56 -3 55 -2 40 -20 -11 -13 -10
-14 4 -9 9 3 16 16 16 28 0 16 2 18 9 7 5 -7 14 -10 20 -6 15 9 43 -14 34 -28
-3 -6 -1 -7 6 -3 6 4 9 11 6 16 -8 14 29 30 53 23 12 -3 20 -9 17 -13 -3 -5
-1 -11 5 -15 5 -3 10 -2 10 4 0 5 10 8 22 6 12 -3 27 3 34 13 12 15 15 15 24
2 5 -8 10 -11 10 -6 0 5 7 3 15 -4 11 -10 18 -9 31 4 8 9 20 14 25 11 5 -4 6
2 2 11 -5 13 -3 15 7 9 9 -5 11 -4 6 4 -6 8 -15 5 -33 -14 -33 -32 -44 -23
-13 10 13 14 20 28 17 32 -4 3 -7 1 -7 -5 0 -6 -7 -9 -15 -6 -8 4 -13 9 -11
13 3 4 -4 7 -15 7 -17 0 -18 -2 -6 -11 16 -12 18 -45 2 -45 -6 0 -16 5 -21 10
-12 12 -47 2 -38 -11 3 -5 -3 -9 -12 -9 -13 0 -15 3 -7 11 6 6 9 17 7 24 -3 7
6 22 20 33 21 16 23 21 10 26 -8 3 -12 2 -9 -4 3 -6 2 -10 -4 -10 -5 0 -15 8
-20 18 -10 16 -10 16 -11 0 0 -10 -4 -18 -10 -18 -5 0 -10 5 -10 12 0 6 -9 3
-20 -7 -19 -17 -21 -17 -40 0 -19 17 -20 17 -20 -1 0 -14 -3 -15 -8 -6 -16 25
-96 -23 -81 -49 6 -13 2 -14 -24 -10 -20 3 -25 6 -14 9 14 3 16 7 6 18 -6 7
-15 12 -19 9 -5 -3 -11 -1 -15 5 -3 5 -13 10 -22 10 -12 0 -13 -3 -3 -14 10
-13 7 -14 -17 -12 -15 2 -29 4 -31 5 -7 2 27 31 37 31 6 0 11 6 11 13 0 6 5 4
11 -6 10 -18 29 -15 29 5 0 6 -3 8 -7 5 -3 -4 -12 -2 -19 4 -8 6 -14 7 -18 0
-4 -6 -13 -8 -22 -4 -9 3 -14 0 -12 -7 2 -7 -3 -15 -11 -18 -8 -3 -11 0 -7 6
4 6 -3 16 -15 22 -17 10 -20 9 -14 -1z m19 -24 c-4 -8 -14 -15 -23 -15 -14 0
-14 -2 -1 -10 9 -6 10 -10 3 -10 -22 0 -26 23 -8 37 25 17 36 17 29 -2z m360
-10 c-4 -8 -10 -15 -15 -15 -4 0 -6 -6 -3 -14 6 -15 -22 -30 -31 -16 -8 12
-31 6 -53 -13 -18 -16 -20 -16 -26 -2 -3 9 -2 13 4 10 17 -10 34 6 19 17 -10
7 -9 8 6 4 18 -5 18 -5 3 7 -14 11 -10 13 30 14 26 1 48 7 50 12 2 6 8 11 13
11 4 0 6 -7 3 -15z m-434 -5 c12 -8 11 -10 -7 -10 -12 0 -25 5 -28 10 -8 13
15 13 35 0z m310 -14 c0 -3 -4 -8 -10 -11 -5 -3 -10 -1 -10 4 0 6 5 11 10 11
6 0 10 -2 10 -4z"/>
<path d="M2190 5201 c0 -6 5 -13 10 -16 6 -3 10 1 10 9 0 9 -4 16 -10 16 -5 0
-10 -4 -10 -9z"/>
<path d="M2013 5253 c-7 -3 -13 -9 -13 -15 0 -7 5 -6 14 1 12 10 13 8 9 -10
-5 -19 -4 -20 16 -10 11 7 21 15 21 18 0 3 -3 3 -7 0 -3 -4 -11 -1 -17 7 -6 8
-17 12 -23 9z"/>
<path d="M1685 5229 c-4 -6 -5 -12 -2 -15 2 -3 7 2 10 11 7 17 1 20 -8 4z"/>
<path d="M2473 5223 c0 -7 4 -13 8 -13 4 0 9 6 12 13 3 8 0 14 -7 14 -7 0 -13
-6 -13 -14z"/>
<path d="M2280 5215 c0 -8 4 -15 10 -15 5 0 7 7 4 15 -4 8 -8 15 -10 15 -2 0
-4 -7 -4 -15z"/>
<path d="M9200 5184 c-61 -13 -172 -64 -230 -104 -14 -10 -59 -35 -100 -56
-82 -41 -268 -162 -288 -187 -19 -23 -150 -87 -177 -87 -13 0 -26 4 -30 9 -3
5 -18 12 -34 16 -73 16 -212 80 -303 141 -97 63 -250 144 -275 144 -7 0 -37
-16 -67 -35 -30 -19 -60 -35 -66 -35 -13 0 -70 -54 -70 -66 0 -5 -15 -18 -34
-28 -19 -10 -51 -33 -70 -51 -25 -23 -45 -32 -72 -33 -21 -1 -53 -12 -73 -26
-20 -13 -74 -36 -121 -51 -87 -27 -165 -74 -277 -164 -34 -28 -81 -60 -105
-72 -24 -11 -56 -34 -73 -50 -16 -15 -61 -40 -100 -54 -69 -26 -172 -87 -188
-112 -4 -7 -14 -13 -21 -13 -8 0 -19 -7 -26 -15 -25 -30 -120 -75 -158 -75
-21 0 -42 -4 -48 -9 -5 -6 -32 -7 -66 -2 -41 5 -68 4 -95 -6 -21 -8 -78 -25
-128 -38 -143 -38 -181 -54 -234 -102 -53 -47 -86 -68 -161 -104 -27 -12 -63
-42 -90 -75 -25 -30 -62 -66 -83 -80 -21 -14 -56 -41 -78 -61 -22 -20 -42 -33
-46 -29 -3 3 -12 -3 -20 -14 -11 -16 -26 -20 -68 -20 -29 0 -64 -4 -77 -9 -19
-7 -29 -4 -48 16 -13 13 -36 27 -52 30 -16 3 -37 18 -48 33 -14 20 -34 30 -77
39 -51 11 -69 10 -143 -7 -47 -11 -100 -23 -119 -27 -19 -4 -80 -24 -136 -45
-164 -61 -152 -62 -208 26 -27 41 -59 79 -71 84 -12 4 -28 16 -36 26 -8 9 -46
42 -85 73 -38 30 -90 75 -115 99 -68 66 -171 112 -275 125 -86 10 -87 10 -148
-20 -173 -85 -298 -143 -312 -143 -8 0 -34 -11 -57 -24 -24 -13 -61 -27 -83
-31 -22 -4 -66 -17 -98 -30 -64 -27 -79 -25 -95 10 -8 18 -22 24 -62 30 -28 4
-54 13 -57 21 -9 25 -70 36 -161 29 -137 -10 -245 -43 -322 -96 -14 -10 -52
-24 -85 -32 -80 -20 -168 -68 -218 -118 -23 -22 -86 -71 -142 -107 -55 -36
-118 -83 -140 -104 -37 -36 -43 -38 -101 -38 -34 0 -97 9 -140 20 -44 11 -94
20 -112 20 -21 0 -50 12 -77 30 -69 47 -83 50 -135 25 -25 -13 -72 -26 -105
-30 -33 -4 -78 -15 -100 -25 -22 -10 -56 -21 -75 -25 -19 -4 -44 -13 -55 -19
-11 -7 -37 -19 -58 -25 -21 -7 -57 -32 -80 -55 -23 -24 -69 -58 -102 -76 -33
-18 -87 -61 -120 -95 -51 -54 -69 -66 -120 -80 -33 -9 -94 -32 -136 -51 -42
-19 -91 -37 -108 -40 l-31 -6 0 -1509 0 -1509 5400 0 5400 0 0 2150 0 2150
-26 6 c-14 4 -60 4 -102 1 -83 -6 -73 -11 -181 81 -21 17 -43 32 -49 32 -6 0
-32 17 -59 38 -75 60 -83 62 -169 56 l-79 -6 -77 76 c-42 41 -96 87 -120 102
-24 15 -47 32 -53 39 -13 14 -97 82 -152 121 -24 17 -71 57 -106 90 -34 33
-105 92 -157 132 -52 39 -108 83 -125 96 -41 33 -68 37 -145 20z"/>
<path d="M2428 5143 c7 -3 16 -2 19 1 4 3 -2 6 -13 5 -11 0 -14 -3 -6 -6z"/>
<path d="M1 5065 c0 -41 4 -77 9 -80 6 -3 10 -1 10 4 0 19 20 12 21 -6 0 -16
1 -16 8 1 7 18 8 18 14 2 5 -12 13 -15 27 -11 13 4 20 2 20 -7 0 -8 7 -23 16
-34 8 -10 12 -12 8 -4 -4 8 5 4 19 -9 15 -13 33 -21 41 -18 9 4 16 2 16 -4 0
-6 7 -9 15 -6 8 4 16 3 19 -1 6 -10 68 -8 84 2 7 4 12 3 12 -2 0 -6 11 -9 25
-8 14 0 25 4 25 9 0 4 5 7 11 7 5 0 8 -3 5 -8 -5 -9 90 -9 99 -1 3 4 -6 9 -20
11 -14 3 -25 1 -25 -6 0 -6 -4 -5 -9 3 -5 7 -14 10 -20 7 -6 -4 -11 -2 -11 3
0 6 -6 11 -14 11 -19 0 -30 31 -14 42 9 6 8 8 -6 6 -10 -2 -21 3 -23 10 -3 8
2 10 14 6 15 -5 15 -4 3 5 -20 14 -37 -4 -21 -23 15 -18 5 -56 -15 -56 -8 0
-14 5 -14 10 0 6 7 10 15 10 18 0 20 26 3 37 -7 4 -30 8 -50 8 -35 1 -69 15
-36 15 8 0 23 10 34 21 19 22 19 22 -5 14 -15 -5 -21 -4 -17 3 4 6 -2 10 -14
9 -14 -1 -18 -6 -15 -18 4 -12 -1 -20 -15 -24 -30 -10 -38 3 -9 14 17 7 19 10
7 10 -10 1 -18 6 -18 12 0 5 5 7 10 4 5 -3 10 -1 10 4 0 10 -14 15 -32 12 -12
-2 -9 14 5 28 6 7 -2 4 -20 -5 -17 -10 -29 -23 -26 -28 4 -5 1 -6 -6 -2 -7 5
-10 14 -7 22 6 16 -10 19 -19 4 -3 -5 -14 -9 -23 -9 -15 1 -15 2 -1 6 18 4 33
43 17 43 -5 0 -6 5 -2 12 4 7 3 8 -5 4 -7 -4 -9 -17 -6 -29 4 -15 3 -18 -3 -9
-5 7 -16 10 -25 6 -13 -4 -17 -1 -17 15 0 12 -5 21 -11 21 -5 0 -7 -4 -4 -10
3 -6 -1 -7 -9 -4 -9 3 -16 10 -16 15 0 5 -4 9 -9 9 -5 0 -10 -34 -10 -75z
m189 -29 c0 -3 -4 -8 -10 -11 -5 -3 -10 -1 -10 4 0 6 5 11 10 11 6 0 10 -2 10
-4z m-65 -46 c-3 -5 -13 -6 -21 -3 -12 4 -13 8 -3 14 15 9 32 2 24 -11z m96
-32 c-10 -29 -30 -35 -28 -9 0 11 5 17 9 15 4 -3 8 0 8 5 0 6 4 11 10 11 5 0
6 -9 1 -22z m79 -8 c9 -6 17 -5 23 3 5 8 7 5 4 -8 -2 -11 -9 -19 -17 -17 -7 2
-17 -3 -22 -10 -6 -9 -7 -5 -3 10 4 13 2 22 -4 22 -6 0 -11 -5 -11 -11 0 -5
-5 -7 -11 -3 -8 4 -9 -1 -4 -17 9 -28 3 -24 -15 10 -6 13 -8 21 -3 18 5 -3 15
-2 23 4 19 11 21 11 40 -1z m-122 -35 c-3 -3 -9 2 -12 12 -6 14 -5 15 5 6 7
-7 10 -15 7 -18z"/>
<path d="M146 5102 c-2 -4 4 -8 14 -8 10 0 16 4 14 8 -3 4 -9 8 -14 8 -5 0
-11 -4 -14 -8z"/>
<path d="M510 4975 c0 -8 4 -15 10 -15 5 0 7 7 4 15 -4 8 -8 15 -10 15 -2 0
-4 -7 -4 -15z"/>
<path d="M435 4969 c-4 -6 -4 -13 -1 -16 3 -4 6 -1 6 5 0 6 8 13 18 15 15 4
15 5 0 6 -9 0 -20 -4 -23 -10z"/>
<path d="M4 4958 c-3 -4 0 -7 8 -6 7 2 12 -2 11 -9 -1 -6 4 -14 13 -17 9 -4
12 -2 8 5 -4 6 -1 15 6 19 8 5 3 9 -14 12 -15 3 -29 1 -32 -4z"/>
<path d="M74 4944 c-10 -8 -13 -13 -6 -9 6 3 12 2 12 -3 0 -5 6 -9 14 -9 7 0
13 6 12 13 -3 22 -12 24 -32 8z"/>
<path d="M410 4935 c14 -17 50 -20 50 -4 0 6 -9 9 -20 6 -11 -3 -20 -1 -20 4
0 5 -5 9 -11 9 -8 0 -8 -5 1 -15z"/>
<path d="M807 4943 c-3 -5 -1 -17 3 -27 5 -16 8 -17 15 -6 5 9 4 15 -3 18 -7
2 -10 8 -6 13 3 5 3 9 0 9 -3 0 -7 -3 -9 -7z"/>
<path d="M866 4938 c5 -8 1 -9 -12 -4 -14 5 -16 4 -7 -4 7 -8 17 -9 28 -3 16
9 16 10 1 16 -12 5 -15 3 -10 -5z"/>
<path d="M937 4933 c-10 -9 -9 -23 2 -23 5 0 11 7 15 15 5 15 -5 20 -17 8z"/>
<path d="M550 4890 c0 -5 5 -10 11 -10 5 0 7 5 4 10 -3 6 -8 10 -11 10 -2 0
-4 -4 -4 -10z"/>
<path d="M660 4890 c-9 -6 -10 -10 -3 -10 6 0 15 5 18 10 8 12 4 12 -15 0z"/>
<path d="M695 4891 c-3 -5 -2 -12 3 -15 5 -3 9 1 9 9 0 17 -3 19 -12 6z"/>
<path d="M1827 4879 c7 -7 15 -10 18 -7 3 3 -2 9 -12 12 -14 6 -15 5 -6 -5z"/>
<path d="M1916 4878 c3 -5 10 -6 15 -3 13 9 11 12 -6 12 -8 0 -12 -4 -9 -9z"/>
<path d="M1960 4869 c0 -3 9 -9 19 -12 13 -3 18 0 15 7 -5 13 -34 18 -34 5z"/>
<path d="M2051 4864 c0 -11 3 -14 6 -6 3 7 2 16 -1 19 -3 4 -6 -2 -5 -13z"/>
<path d="M2086 4859 c3 -5 12 -9 21 -9 19 0 9 13 -12 16 -8 1 -13 -2 -9 -7z"/>
<path d="M2141 4848 c-1 -16 4 -28 11 -28 6 0 8 -3 5 -7 -4 -3 -16 2 -26 11
-19 17 -19 17 -15 -6 5 -20 4 -21 -6 -5 -15 23 -29 22 -23 -2 5 -20 -18 -42
-25 -23 -2 7 -15 12 -28 12 -14 0 -34 5 -45 10 -10 6 -19 7 -19 2 0 -5 -13 -8
-29 -6 -24 3 -28 0 -24 -15 7 -26 -17 -38 -33 -17 -9 13 -13 14 -17 4 -3 -8
-6 -5 -6 6 -1 19 -1 19 -15 1 -13 -18 -14 -18 -11 6 2 16 -2 26 -10 26 -7 0
-12 -8 -10 -19 3 -12 -2 -18 -14 -18 -9 0 -22 -5 -29 -12 -16 -16 -16 4 1 22
10 12 9 12 -5 1 -10 -7 -33 -11 -52 -9 -19 2 -32 0 -30 -4 3 -4 1 -8 -5 -8 -5
0 -12 3 -15 8 -2 4 -22 7 -43 7 -32 0 -38 -3 -35 -20 2 -18 1 -18 -18 4 -11
13 -20 18 -20 12 0 -7 -5 -9 -10 -6 -6 4 -8 11 -4 16 3 6 -3 5 -15 -3 -12 -7
-21 -16 -21 -21 0 -4 -10 -3 -21 4 -17 9 -23 8 -30 -2 -7 -11 -14 -7 -32 15
-20 24 -24 26 -24 10 0 -10 5 -23 11 -27 7 -5 3 -6 -8 -3 -10 4 -25 1 -32 -5
-12 -10 -13 -9 -8 5 4 11 1 16 -13 16 -10 0 -25 6 -32 13 -11 10 -13 8 -9 -9
3 -12 1 -28 -4 -35 -8 -11 -9 -10 -4 4 3 9 1 17 -4 17 -5 0 -7 8 -4 18 4 13 3
14 -4 4 -5 -8 -12 -12 -15 -10 -4 1 -16 -5 -28 -15 -11 -10 -23 -17 -25 -14
-3 2 2 10 11 17 8 7 15 17 15 22 0 6 -8 4 -17 -3 -15 -12 -16 -12 -10 3 5 15
3 15 -28 -2 -19 -11 -37 -15 -40 -10 -3 4 1 10 7 13 7 2 10 7 7 11 -4 4 -17
-4 -30 -18 -23 -24 -39 -26 -39 -3 0 7 4 6 10 -3 6 -9 10 -10 10 -3 0 16 -17
26 -25 13 -3 -5 -11 -10 -16 -10 -6 0 -7 6 -3 13 5 8 2 8 -9 -2 -16 -13 -16
-15 3 -31 18 -16 18 -18 2 -36 -13 -14 -11 -14 8 2 28 24 67 30 49 8 -6 -7 -7
-19 -3 -25 5 -8 3 -9 -6 -4 -8 5 -11 3 -8 -6 3 -9 16 -13 38 -11 19 2 30 0 26
-6 -3 -6 7 -15 23 -20 23 -8 32 -7 42 4 10 13 14 13 29 -1 26 -24 87 -34 245
-40 55 -3 161 -7 235 -11 278 -12 400 -13 400 -1 0 7 5 5 10 -3 5 -8 10 -10
10 -5 0 6 39 9 102 8 217 -5 326 -11 335 -16 6 -4 13 -3 17 0 4 4 28 6 54 5
33 -2 43 0 32 7 -8 5 -19 7 -25 4 -5 -4 -2 3 8 15 11 11 25 18 33 15 9 -3 14
2 14 13 0 16 2 17 10 4 9 -13 10 -13 10 0 0 12 2 13 9 1 6 -9 16 -11 32 -5 13
4 33 8 44 8 11 1 26 5 33 9 7 5 12 3 12 -5 0 -10 2 -10 8 -1 4 7 21 10 40 8
19 -2 32 0 32 7 0 6 -3 9 -6 5 -4 -3 -13 0 -20 8 -8 7 -19 15 -26 18 -22 8 5
40 36 43 15 1 40 -2 54 -7 21 -8 29 -7 38 5 14 20 25 21 17 1 -4 -13 1 -15 27
-10 22 4 29 2 25 -6 -6 -8 -2 -8 13 0 24 13 35 14 28 3 -10 -16 98 -10 119 7
18 15 19 15 7 0 -10 -14 -10 -18 3 -23 9 -3 14 -2 11 2 -2 4 -1 14 5 22 6 10
9 11 9 3 0 -8 14 -13 38 -13 27 0 33 -3 22 -10 -12 -7 -10 -9 7 -7 12 0 20 4
17 8 -2 4 3 9 11 13 8 3 15 0 15 -6 0 -6 6 -5 17 3 13 11 15 11 9 1 -6 -10 -2
-13 15 -11 13 2 35 -3 48 -10 21 -12 23 -11 18 3 -4 11 -1 16 9 16 10 0 14 -6
10 -15 -3 -8 -2 -15 2 -15 12 0 32 22 32 34 0 6 -5 4 -10 -4 -8 -12 -10 -11
-10 7 0 17 4 20 23 15 12 -3 25 -10 29 -16 5 -8 8 -7 8 2 0 6 5 12 11 12 5 0
7 -6 3 -12 -5 -10 -4 -10 6 -1 7 6 19 9 27 6 11 -4 11 -8 3 -13 -7 -5 -2 -9
14 -12 14 -3 26 -1 26 3 0 5 -5 9 -12 9 -6 0 -4 6 6 13 10 7 39 14 65 16 25 1
48 6 49 12 2 5 8 7 13 3 5 -3 9 1 10 8 0 7 4 4 9 -7 6 -13 9 -15 9 -5 0 8 -5
22 -12 30 -14 18 -69 21 -63 3 3 -7 -1 -10 -9 -7 -8 3 -20 2 -27 -2 -18 -12
-38 -14 -38 -5 0 5 -11 6 -25 4 -26 -6 -29 -24 -5 -35 9 -4 4 -6 -13 -5 -15 1
-36 11 -45 22 -17 20 -17 20 6 1 22 -19 22 -19 22 0 0 18 -8 20 -104 19 -57 0
-102 3 -100 7 3 5 0 8 -5 8 -6 0 -11 -4 -11 -10 0 -5 -6 -10 -14 -10 -16 0
-67 25 -63 31 1 2 -3 -1 -9 -8 -6 -7 -16 -8 -24 -3 -8 5 -18 6 -22 4 -5 -3 -8
-2 -7 3 3 18 -2 28 -9 17 -10 -15 -57 -30 -48 -15 4 6 3 11 -3 11 -5 0 -16 3
-25 6 -11 4 -16 1 -16 -10 0 -13 -4 -15 -19 -6 -26 13 -34 13 -25 -2 5 -8 0
-7 -11 2 -10 8 -37 15 -59 16 -23 1 -53 5 -68 9 -16 4 -28 3 -28 -2 0 -5 -15
-9 -34 -9 -19 0 -32 5 -28 10 3 6 -3 6 -14 2 -10 -4 -26 -9 -34 -11 -8 -2 -17
-4 -20 -5 -15 -6 -36 -4 -47 4 -9 6 -13 3 -14 -10 0 -18 -1 -18 -9 1 -5 11 -9
14 -9 6 -1 -11 -4 -11 -16 -1 -12 10 -15 9 -16 -6 0 -15 -2 -16 -7 -4 -8 16
-29 19 -50 7 -7 -5 -22 -5 -33 -2 -14 5 -25 2 -30 -6 -7 -11 -9 -11 -9 1 0 9
-10 16 -26 18 -16 1 -23 -2 -18 -9 4 -8 0 -8 -15 0 -15 8 -21 9 -21 1 0 -6 -5
-8 -12 -3 -7 4 -5 -5 5 -21 21 -31 21 -31 -10 -40 -15 -5 -23 -3 -23 4 0 7 -8
9 -20 5 -15 -5 -20 -2 -20 11 0 17 -1 17 -13 -1 -9 -11 -19 -15 -27 -10 -10 6
-12 4 -7 -10 6 -13 2 -12 -17 6 -19 18 -22 27 -14 42 5 10 7 21 4 25 -3 3 -6
0 -6 -6 0 -15 -36 -52 -51 -52 -5 0 -7 4 -4 10 4 6 -2 7 -18 1 -16 -6 -28 -6
-36 2 -8 8 -11 7 -11 -3 -1 -10 -7 -8 -20 8 -10 13 -21 23 -24 22 -28 -2 -38
3 -46 23 -8 21 -9 21 -9 -5z m480 -27 c7 12 9 12 9 0 0 -8 3 -11 7 -8 3 4 12
-1 20 -11 8 -9 12 -11 8 -5 -4 8 -1 11 9 7 16 -6 11 -33 -8 -35 -6 -1 -18 -2
-26 -3 -8 0 -18 4 -22 9 -5 6 -8 5 -8 -2 0 -7 -5 -13 -11 -13 -5 0 -7 5 -3 11
4 7 0 9 -14 5 -15 -5 -24 -1 -32 14 -10 20 -10 21 8 11 18 -9 19 -8 15 10 -5
19 -4 20 17 9 18 -10 24 -9 31 1z m169 -35 c0 7 11 11 24 10 13 0 22 -5 19 -9
-3 -5 -11 -6 -19 -3 -8 3 -14 3 -14 0 0 -2 12 -9 27 -15 20 -7 28 -6 35 3 6
11 8 10 8 0 0 -9 8 -11 23 -8 12 3 16 3 9 0 -6 -3 -10 -10 -7 -15 4 -5 -13 -7
-37 -5 -24 2 -51 4 -60 5 -9 1 -20 10 -23 22 -5 16 -10 18 -21 8 -17 -14 -19
2 -2 19 9 9 14 7 24 -6 8 -9 14 -12 14 -6z m-593 8 c-3 -3 -12 -4 -19 -1 -8 3
-5 6 6 6 11 1 17 -2 13 -5z m153 -4 c0 -5 -5 -10 -11 -10 -5 0 -7 5 -4 10 3 6
8 10 11 10 2 0 4 -4 4 -10z m373 -4 c7 3 3 -2 -7 -10 -23 -19 -31 -14 -21 11
5 12 9 14 12 5 3 -6 10 -10 16 -6z m987 -10 c0 -3 -4 -8 -10 -11 -5 -3 -10 -1
-10 4 0 6 5 11 10 11 6 0 10 -2 10 -4z"/>
<path d="M2180 4849 c0 -5 5 -7 10 -4 6 3 10 8 10 11 0 2 -4 4 -10 4 -5 0 -10
-5 -10 -11z"/>
<path d="M2399 4838 c8 -23 39 -27 51 -8 3 5 12 5 20 0 10 -7 11 -10 3 -10 -7
0 -13 -5 -13 -11 0 -8 4 -9 13 0 8 6 18 7 23 3 4 -4 3 0 -4 9 -6 9 -9 19 -6
22 3 3 -8 4 -25 2 -17 -2 -33 0 -36 6 -4 5 -13 9 -20 9 -11 0 -12 -6 -6 -22z"/>
<path d="M2225 4839 c-4 -6 -5 -12 -2 -15 2 -3 7 2 10 11 7 17 1 20 -8 4z"/>
<path d="M1900 4830 c-9 -6 -10 -10 -3 -10 6 0 15 5 18 10 8 12 4 12 -15 0z"/>
<path d="M3405 4829 c-4 -6 -5 -12 -2 -15 2 -3 7 2 10 11 7 17 1 20 -8 4z"/>
<path d="M2005 4820 c3 -5 12 -7 20 -3 21 7 19 13 -6 13 -11 0 -18 -4 -14 -10z"/>
<path d="M3848 4823 c7 -3 16 -2 19 1 4 3 -2 6 -13 5 -11 0 -14 -3 -6 -6z"/>
<path d="M950 4810 c0 -5 5 -10 11 -10 5 0 7 5 4 10 -3 6 -8 10 -11 10 -2 0
-4 -4 -4 -10z"/>
<path d="M3895 4811 c11 -5 16 -10 11 -10 -11 -1 13 -31 25 -31 5 0 9 5 9 11
0 5 -4 8 -9 5 -5 -3 -8 2 -7 12 1 11 -7 18 -24 19 -23 2 -23 2 -5 -6z"/>
<path d="M989 4788 c-11 -20 -10 -21 3 -11 15 13 28 8 28 -9 0 -5 -5 -6 -12
-2 -6 4 -8 3 -4 -4 3 -6 15 -10 26 -9 16 1 17 4 7 17 -31 40 -36 41 -48 18z"/>
<path d="M1890 4790 c0 -19 3 -21 12 -12 9 9 9 15 0 24 -9 9 -12 7 -12 -12z"/>
<path d="M3940 4801 c0 -6 4 -12 8 -15 5 -3 9 1 9 9 0 8 -4 15 -9 15 -4 0 -8
-4 -8 -9z"/>
<path d="M6415 4749 c-4 -6 -5 -12 -2 -15 2 -3 7 2 10 11 7 17 1 20 -8 4z"/>
<path d="M6475 4740 c3 -5 8 -10 11 -10 2 0 4 5 4 10 0 6 -5 10 -11 10 -5 0
-7 -4 -4 -10z"/>
<path d="M6543 4736 c-9 -11 -8 -15 5 -18 12 -4 18 1 18 13 0 22 -6 23 -23 5z"/>
<path d="M6666 4743 c-3 -3 4 -14 16 -25 28 -24 36 -16 10 10 -11 11 -23 18
-26 15z"/>
<path d="M6630 4720 c-6 -11 -8 -20 -6 -20 3 0 10 9 16 20 6 11 8 20 6 20 -3
0 -10 -9 -16 -20z"/>
<path d="M1085 4719 c-4 -6 -5 -12 -2 -15 2 -3 7 2 10 11 7 17 1 20 -8 4z"/>
<path d="M4273 4705 c0 -8 4 -12 9 -9 5 3 6 10 3 15 -9 13 -12 11 -12 -6z"/>
<path d="M4242 4701 c-11 -7 -11 -9 0 -14 9 -3 15 1 15 9 0 8 -1 14 -1 14 -1
0 -7 -4 -14 -9z"/>
<path d="M803 3955 c0 -8 4 -12 9 -9 5 3 6 10 3 15 -9 13 -12 11 -12 -6z"/>
<path d="M890 3961 c0 -7 -4 -9 -10 -6 -5 3 -10 2 -10 -2 0 -5 39 -10 88 -11
48 -1 100 -4 116 -8 21 -5 27 -3 24 7 -3 8 -13 14 -24 14 -10 -1 -22 4 -26 10
-5 7 -8 6 -8 -1 0 -14 -33 -14 -43 0 -6 8 -10 8 -13 -1 -4 -9 -13 -9 -32 -2
-19 7 -28 7 -30 -1 -3 -8 -8 -8 -18 1 -11 9 -14 9 -14 0z"/>
<path d="M835 3950 c-3 -5 -1 -10 4 -10 6 0 11 5 11 10 0 6 -2 10 -4 10 -3 0
-8 -4 -11 -10z"/>
<path d="M1117 3947 c-3 -9 17 -13 71 -15 42 -1 73 1 69 5 -5 4 -31 8 -59 9
-28 2 -56 5 -63 8 -8 3 -15 -1 -18 -7z"/>
<path d="M1290 3940 c0 -5 5 -10 11 -10 5 0 7 5 4 10 -3 6 -8 10 -11 10 -2 0
-4 -4 -4 -10z"/>
<path d="M1354 3943 c3 -3 26 -7 51 -8 25 -1 43 1 40 4 -4 3 -26 6 -51 7 -25
1 -43 0 -40 -3z"/>
</g>
</svg>
